<svg width="374" height="391" viewBox="0 0 374 391" fill="none" xmlns="http://www.w3.org/2000/svg">
<path d="M108.668 324.897C104.637 322.658 101.246 319.426 98.8156 315.507L37.9403 207.177C35.9598 203.637 35.727 200.222 37.3315 197.516C39.2341 194.306 43.5214 192.51 49.1022 192.569L168.424 193.958C178.809 194.078 190.831 200.566 195.215 208.4L256.091 316.729C258.071 320.269 258.292 323.704 256.7 326.391C254.797 329.6 250.51 331.396 244.929 331.338L125.607 329.948C119.623 329.733 113.793 327.994 108.668 324.897ZM184.754 200.036C179.793 197.036 174.15 195.347 168.356 195.128L49.0864 193.743C43.9408 193.684 40.0196 195.275 38.3376 198.112C36.9658 200.427 37.1904 203.442 38.9545 206.636L99.8238 314.976C104.062 322.506 115.637 328.715 125.609 328.821L244.931 330.21C250.086 330.275 253.998 328.678 255.68 325.841C257.051 323.526 256.827 320.511 255.073 317.323L194.204 208.983C191.889 205.245 188.659 202.16 184.818 200.02L184.754 200.036Z" fill="white"/>
<path opacity="0.8" d="M111.773 301.31L66.7723 221.25C63.5767 215.562 67.0911 211.01 74.636 211.105L162.813 212.115C170.348 212.204 179.028 216.874 182.254 222.58L227.255 302.639C230.46 308.333 226.936 312.879 219.401 312.791L131.224 311.78C123.719 311.71 115.007 307.048 111.773 301.31Z" fill="#0C0F38"/>
<path d="M304.042 191.642L268.082 170.325L241.777 123.457C238.414 117.385 229.165 112.459 221.159 112.363L169.37 111.807L133.411 90.4898L73.7119 191.194C72.3781 193.123 72.368 195.755 73.976 198.639L121.656 283.468C125.028 289.547 134.267 294.466 142.274 294.562L235.715 295.662C239.869 295.718 242.839 294.446 244.307 292.338L304.042 191.642Z" fill="url(#paint0_linear_517_29436)"/>
<path d="M142.536 95.898L133.411 90.4882L73.712 191.193C73.2289 191.921 72.9125 192.747 72.7854 193.612C72.6582 194.477 72.7234 195.359 72.9762 196.195C72.8027 194.82 73.1432 193.429 73.9324 192.289L133.637 91.5743L142.843 97.0318C142.745 96.6472 142.657 96.2685 142.536 95.898Z" fill="white"/>
<path d="M292.532 184.819L291.962 185.297L303.03 191.858L243.325 292.572C242.237 294.003 240.68 295.005 238.927 295.404C241.052 295.131 242.984 294.036 244.311 292.355L304.022 191.63L292.532 184.819Z" fill="white"/>
<g style="mix-blend-mode:lighten" opacity="0.5">
<path d="M88.4266 224.31L157.675 107.498L144.625 99.7617L79.8444 209.038L88.4266 224.31Z" fill="#BBBBBB"/>
</g>
<g style="mix-blend-mode:lighten" opacity="0.3">
<path d="M93.7019 233.691L161.041 120.098L157.479 117.986L91.3569 229.527L93.7019 233.691Z" fill="#BBBBBB"/>
</g>
<g style="mix-blend-mode:lighten" opacity="0.15">
<path d="M97.902 241.171L166.619 125.254L163.047 123.137L95.5529 236.991L97.902 241.171Z" fill="#BBBBBB"/>
</g>
<path d="M181.391 182.77L133.761 97.9704C130.389 91.8922 134.097 87.1284 142.083 87.2125L235.46 88.26C243.456 88.35 252.682 93.316 256.078 99.3539L303.768 184.19C307.13 190.262 303.426 195.042 295.436 194.942L202.009 193.864C194.002 193.768 184.787 188.808 181.391 182.77Z" fill="url(#paint1_linear_517_29436)"/>
<path d="M182.196 183.248L134.506 98.4127C131.144 92.3405 134.842 87.5708 142.828 87.6548L236.265 88.7381C240.438 88.8849 244.52 90.0013 248.187 91.9988C244.319 89.7104 239.941 88.4236 235.45 88.255L142.033 87.1836C134.057 87.1055 130.315 91.9036 133.711 97.9415L181.391 182.771C183.496 186.143 186.497 188.863 190.058 190.629C186.837 188.899 184.126 186.354 182.196 183.248Z" fill="white"/>
<path d="M303.758 184.185L256.068 99.3493C253.956 95.9785 250.952 93.2571 247.391 91.4859C250.565 93.2102 253.237 95.7311 255.142 98.8006L302.772 183.6C306.144 189.679 302.44 194.458 294.45 194.358L201.023 193.281C196.854 193.135 192.775 192.02 189.111 190.026C193.002 192.353 197.418 193.661 201.949 193.83L295.376 194.907C303.416 195.037 307.144 190.217 303.758 184.185Z" fill="white"/>
<path d="M190.927 172.119L155.448 108.935C152.917 104.443 155.666 100.906 161.638 100.925L231.203 101.725C237.155 101.8 244.017 105.501 246.538 109.987L282.027 173.177C284.548 177.663 281.799 181.2 275.827 181.181L206.262 180.381C200.326 180.302 193.458 176.611 190.927 172.119Z" fill="white"/>
<path d="M158.172 106.771L227.737 107.572C233.689 107.647 240.557 111.338 243.078 115.824L278.567 179.013C278.876 179.55 279.116 180.122 279.285 180.717C282.675 179.585 283.967 176.694 282.021 173.188L246.532 109.998C244.01 105.512 237.149 101.811 231.196 101.737L161.626 100.946C156.464 100.891 153.69 103.598 154.709 107.247C155.83 106.903 157 106.742 158.172 106.771Z" fill="url(#paint2_linear_517_29436)"/>
<path d="M199.336 203.077L281.741 203.984C282.18 203.942 282.604 203.799 282.978 203.566C283.353 203.332 283.668 203.015 283.898 202.638L284.495 201.632C284.936 200.888 284.676 200.271 283.942 200.271L201.536 199.364C201.098 199.402 200.675 199.543 200.302 199.775C199.928 200.007 199.614 200.324 199.385 200.699L198.789 201.705C198.331 202.454 198.571 203.059 199.336 203.077Z" fill="#BBBBBB"/>
<path d="M280.796 202.39C281.235 202.349 281.659 202.207 282.034 201.973C282.409 201.739 282.723 201.421 282.953 201.045L283.442 200.22L283.888 200.225C284.632 200.231 284.894 200.822 284.44 201.586L283.844 202.592C283.613 202.969 283.299 203.286 282.924 203.52C282.55 203.753 282.126 203.896 281.687 203.938L199.281 203.031C198.527 203.019 198.275 202.434 198.734 201.66L198.842 201.478L280.796 202.39Z" fill="white"/>
<path d="M192.942 213.862L275.341 214.779C275.78 214.736 276.203 214.593 276.578 214.359C276.952 214.126 277.267 213.809 277.498 213.433L278.095 212.427C278.536 211.683 278.276 211.066 277.542 211.066L195.143 210.149C194.703 210.189 194.279 210.332 193.904 210.566C193.53 210.799 193.215 211.117 192.985 211.494L192.389 212.5C191.937 213.239 192.171 213.854 192.942 213.862Z" fill="#BBBBBB"/>
<path d="M274.396 213.185C274.835 213.143 275.259 213 275.633 212.767C276.007 212.533 276.322 212.215 276.553 211.839L277.042 211.014L277.481 211.03C278.226 211.036 278.487 211.626 278.034 212.391L277.438 213.397C277.207 213.773 276.891 214.09 276.517 214.323C276.143 214.557 275.72 214.7 275.28 214.742L192.881 213.825C192.121 213.823 191.875 213.229 192.328 212.464L192.442 212.273L274.396 213.185Z" fill="white"/>
<path d="M186.542 224.657L268.941 225.574C269.38 225.53 269.802 225.386 270.176 225.152C270.55 224.919 270.866 224.603 271.098 224.228L271.695 223.222C272.142 222.468 271.882 221.851 271.148 221.851L188.743 220.944C188.303 220.984 187.879 221.127 187.504 221.361C187.13 221.594 186.815 221.912 186.585 222.289L185.989 223.295C185.537 224.034 185.777 224.639 186.542 224.657Z" fill="#BBBBBB"/>
<path d="M268.002 223.97C268.442 223.931 268.866 223.789 269.241 223.555C269.616 223.321 269.931 223.002 270.159 222.624L270.642 221.809L271.087 221.815C271.832 221.821 272.094 222.411 271.634 223.186L271.038 224.192C270.805 224.567 270.49 224.883 270.116 225.116C269.742 225.349 269.319 225.494 268.881 225.538L186.481 224.62C185.727 224.608 185.475 224.024 185.928 223.259L186.042 223.068L268.002 223.97Z" fill="white"/>
<path d="M180.112 235.504L262.517 236.411C262.957 236.37 263.38 236.227 263.755 235.993C264.129 235.76 264.444 235.442 264.675 235.066L265.271 234.06C265.712 233.315 265.452 232.699 264.718 232.699L182.313 231.792C181.873 231.83 181.448 231.972 181.073 232.206C180.698 232.44 180.384 232.759 180.156 233.137L179.559 234.143C179.137 234.832 179.377 235.436 180.112 235.504Z" fill="#BBBBBB"/>
<path d="M261.602 234.767C262.042 234.728 262.466 234.586 262.841 234.352C263.216 234.118 263.531 233.799 263.759 233.421L264.242 232.606L264.687 232.612C265.432 232.618 265.694 233.208 265.24 233.973L264.644 234.979C264.413 235.355 264.098 235.673 263.724 235.907C263.35 236.14 262.926 236.283 262.486 236.325L180.081 235.417C179.327 235.405 179.075 234.821 179.528 234.056L179.642 233.865L261.602 234.767Z" fill="white"/>
<path d="M173.742 246.25L256.147 247.158C256.586 247.115 257.01 246.972 257.384 246.738C257.758 246.505 258.073 246.188 258.304 245.812L258.901 244.806C259.342 244.062 259.082 243.445 258.348 243.445L175.949 242.528C175.509 242.569 175.086 242.712 174.711 242.946C174.337 243.179 174.022 243.497 173.791 243.873L173.195 244.879C172.738 245.628 172.977 246.232 173.742 246.25Z" fill="#BBBBBB"/>
<path d="M255.202 245.563C255.641 245.523 256.065 245.38 256.44 245.147C256.814 244.913 257.129 244.595 257.359 244.218L257.842 243.403L258.287 243.409C259.032 243.415 259.294 244.005 258.84 244.77L258.244 245.776C258.013 246.152 257.698 246.469 257.323 246.702C256.949 246.936 256.526 247.079 256.087 247.121L173.681 246.214C172.927 246.202 172.675 245.618 173.134 244.843L173.242 244.662L255.202 245.563Z" fill="white"/>
<path d="M167.348 257.036L249.748 257.953C250.187 257.911 250.61 257.767 250.984 257.534C251.359 257.3 251.674 256.983 251.905 256.607L252.501 255.601C252.943 254.857 252.689 254.23 251.949 254.24L169.549 253.323C169.11 253.364 168.686 253.506 168.311 253.74C167.936 253.974 167.622 254.292 167.392 254.668L166.795 255.675C166.344 256.413 166.584 257.018 167.348 257.036Z" fill="#BBBBBB"/>
<path d="M248.802 256.359C249.242 256.317 249.665 256.174 250.04 255.941C250.414 255.707 250.729 255.39 250.959 255.013L251.449 254.188L251.888 254.204C252.638 254.2 252.894 254.801 252.441 255.565L251.844 256.571C251.613 256.947 251.298 257.264 250.924 257.498C250.549 257.731 250.126 257.874 249.687 257.917L167.288 257C166.533 256.987 166.282 256.403 166.735 255.638L166.848 255.447L248.802 256.359Z" fill="white"/>
<path d="M160.948 267.83L243.353 268.738C243.791 268.697 244.213 268.556 244.587 268.324C244.96 268.092 245.274 267.776 245.505 267.402L246.101 266.396C246.548 265.641 246.288 265.025 245.554 265.025L163.149 264.118C162.709 264.156 162.284 264.298 161.909 264.532C161.534 264.766 161.22 265.085 160.992 265.463L160.395 266.469C159.944 267.208 160.184 267.812 160.948 267.83Z" fill="#BBBBBB"/>
<path d="M242.408 267.143C242.848 267.105 243.273 266.963 243.648 266.729C244.023 266.495 244.337 266.176 244.566 265.798L245.049 264.983L245.494 264.989C246.238 264.995 246.5 265.585 246.041 266.36L245.445 267.366C245.214 267.74 244.9 268.056 244.527 268.288C244.153 268.519 243.731 268.661 243.293 268.701L160.888 267.794C160.134 267.782 159.882 267.198 160.335 266.433L160.448 266.242L242.408 267.143Z" fill="white"/>
<path d="M154.548 278.627L236.953 279.535C237.393 279.493 237.816 279.35 238.191 279.117C238.565 278.883 238.88 278.565 239.111 278.189L239.707 277.183C240.148 276.438 239.888 275.822 239.154 275.822L156.755 274.905C156.315 274.946 155.892 275.089 155.517 275.323C155.143 275.556 154.828 275.874 154.598 276.25L154.001 277.256C153.544 278.005 153.784 278.609 154.548 278.627Z" fill="#BBBBBB"/>
<path d="M236.008 277.94C236.448 277.9 236.872 277.757 237.247 277.524C237.621 277.29 237.936 276.972 238.166 276.595L238.649 275.78L239.094 275.786C239.838 275.792 240.1 276.382 239.647 277.147L239.05 278.153C238.82 278.529 238.505 278.847 238.131 279.08C237.756 279.314 237.333 279.457 236.893 279.498L154.488 278.591C153.734 278.579 153.482 277.995 153.941 277.22L154.048 277.039L236.008 277.94Z" fill="white"/>
<path d="M148.154 289.415L230.553 290.332C230.992 290.29 231.416 290.146 231.79 289.913C232.164 289.679 232.479 289.362 232.711 288.986L233.307 287.98C233.748 287.236 233.494 286.609 232.754 286.619L150.355 285.702C149.915 285.742 149.491 285.885 149.117 286.119C148.742 286.352 148.427 286.67 148.198 287.047L147.601 288.054C147.15 288.792 147.384 289.407 148.154 289.415Z" fill="#BBBBBB"/>
<path d="M229.608 288.738C230.048 288.696 230.471 288.553 230.846 288.32C231.22 288.086 231.535 287.769 231.766 287.392L232.255 286.567L232.694 286.583C233.444 286.579 233.7 287.179 233.247 287.944L232.65 288.95C232.419 289.326 232.104 289.643 231.73 289.876C231.356 290.11 230.932 290.253 230.493 290.296L148.094 289.378C147.334 289.376 147.088 288.782 147.541 288.017L147.654 287.826L229.608 288.738Z" fill="white"/>
<path d="M184.471 198.86C185.382 199.401 186.559 199.1 187.099 198.188C187.64 197.277 187.339 196.1 186.427 195.56C185.516 195.02 184.339 195.321 183.799 196.232C183.259 197.143 183.56 198.32 184.471 198.86Z" fill="#BBBBBB"/>
<path d="M184.841 198.238C184.459 198.012 184.167 197.66 184.015 197.243C183.863 196.826 183.861 196.369 184.008 195.95C183.939 196.044 183.879 196.145 183.829 196.252C183.677 196.468 183.571 196.713 183.519 196.973C183.466 197.232 183.467 197.499 183.523 197.758C183.578 198.016 183.686 198.261 183.841 198.475C183.995 198.69 184.192 198.871 184.42 199.006C184.648 199.14 184.901 199.227 185.163 199.259C185.426 199.292 185.692 199.269 185.945 199.194C186.199 199.119 186.434 198.991 186.636 198.821C186.838 198.65 187.003 198.439 187.12 198.202C187.189 198.107 187.249 198.006 187.298 197.9C186.998 198.242 186.584 198.465 186.133 198.527C185.681 198.589 185.223 198.487 184.841 198.238Z" fill="white"/>
<path d="M178.071 209.655C178.982 210.195 180.159 209.895 180.699 208.983C181.24 208.072 180.939 206.895 180.028 206.355C179.116 205.815 177.939 206.116 177.399 207.027C176.859 207.938 177.16 209.115 178.071 209.655Z" fill="#BBBBBB"/>
<path d="M178.441 209.032C178.058 208.804 177.766 208.45 177.615 208.031C177.464 207.612 177.464 207.153 177.615 206.733C177.543 206.831 177.481 206.935 177.43 207.045C177.278 207.261 177.172 207.507 177.119 207.766C177.066 208.025 177.068 208.293 177.123 208.551C177.178 208.81 177.287 209.054 177.441 209.269C177.596 209.484 177.793 209.664 178.02 209.799C178.248 209.934 178.501 210.02 178.763 210.053C179.026 210.085 179.292 210.063 179.546 209.987C179.799 209.912 180.035 209.785 180.237 209.614C180.439 209.443 180.603 209.233 180.72 208.995C180.792 208.898 180.854 208.793 180.905 208.684C180.605 209.029 180.191 209.255 179.738 209.319C179.285 209.382 178.825 209.281 178.441 209.032Z" fill="white"/>
<path d="M171.671 220.452C172.583 220.992 173.759 220.692 174.299 219.78C174.84 218.869 174.539 217.692 173.628 217.152C172.716 216.612 171.54 216.913 170.999 217.824C170.459 218.735 170.76 219.912 171.671 220.452Z" fill="#BBBBBB"/>
<path d="M172.035 219.838C171.652 219.611 171.36 219.257 171.209 218.838C171.058 218.418 171.058 217.959 171.209 217.54C171.137 217.637 171.075 217.742 171.024 217.852C170.811 218.285 170.769 218.783 170.906 219.245C171.044 219.708 171.351 220.102 171.767 220.348C172.182 220.594 172.675 220.675 173.147 220.574C173.619 220.472 174.036 220.197 174.314 219.802C174.386 219.705 174.448 219.6 174.499 219.49C174.199 219.836 173.785 220.061 173.332 220.125C172.879 220.189 172.419 220.087 172.035 219.838Z" fill="white"/>
<path d="M165.277 231.239C166.189 231.779 167.365 231.479 167.905 230.567C168.446 229.656 168.145 228.479 167.234 227.939C166.322 227.399 165.146 227.7 164.605 228.611C164.065 229.522 164.366 230.699 165.277 231.239Z" fill="#BBBBBB"/>
<path d="M165.641 230.625C165.259 230.396 164.969 230.042 164.818 229.623C164.667 229.204 164.666 228.746 164.815 228.327C164.745 228.421 164.685 228.522 164.636 228.629C164.483 228.845 164.378 229.09 164.325 229.349C164.272 229.609 164.273 229.876 164.329 230.135C164.384 230.393 164.493 230.638 164.647 230.852C164.801 231.067 164.999 231.248 165.226 231.383C165.454 231.517 165.707 231.604 165.969 231.636C166.232 231.669 166.498 231.646 166.752 231.571C167.005 231.495 167.24 231.368 167.442 231.198C167.644 231.027 167.809 230.816 167.926 230.579C167.995 230.484 168.055 230.383 168.105 230.277C167.804 230.62 167.39 230.844 166.937 230.908C166.485 230.972 166.025 230.872 165.641 230.625Z" fill="white"/>
<path d="M158.877 242.032C159.789 242.572 160.965 242.272 161.506 241.36C162.046 240.449 161.745 239.272 160.834 238.732C159.922 238.192 158.746 238.493 158.205 239.404C157.665 240.315 157.966 241.492 158.877 242.032Z" fill="#BBBBBB"/>
<path d="M159.248 241.411C158.864 241.184 158.572 240.83 158.421 240.41C158.27 239.991 158.27 239.532 158.421 239.113C158.228 239.323 158.085 239.574 158.001 239.846C157.917 240.119 157.895 240.407 157.937 240.69C157.979 240.972 158.083 241.241 158.242 241.478C158.401 241.715 158.611 241.914 158.857 242.059C159.102 242.205 159.377 242.294 159.661 242.319C159.945 242.345 160.232 242.307 160.499 242.208C160.767 242.11 161.009 241.952 161.208 241.748C161.408 241.544 161.559 241.297 161.651 241.027C161.359 241.363 160.958 241.586 160.519 241.656C160.079 241.726 159.629 241.639 159.248 241.411Z" fill="white"/>
<path d="M152.477 252.829C153.389 253.369 154.565 253.069 155.106 252.157C155.646 251.246 155.345 250.069 154.434 249.529C153.522 248.989 152.346 249.29 151.806 250.201C151.265 251.112 151.566 252.289 152.477 252.829Z" fill="#BBBBBB"/>
<path d="M152.848 252.207C152.464 251.98 152.172 251.626 152.021 251.207C151.87 250.787 151.87 250.328 152.021 249.909C151.949 250.006 151.887 250.111 151.836 250.221C151.623 250.654 151.581 251.152 151.719 251.615C151.857 252.077 152.164 252.471 152.579 252.717C152.995 252.964 153.488 253.044 153.96 252.943C154.432 252.842 154.848 252.566 155.126 252.171C155.198 252.074 155.26 251.969 155.311 251.859C155.012 252.205 154.597 252.43 154.144 252.494C153.692 252.558 153.231 252.456 152.848 252.207Z" fill="white"/>
<path d="M146.083 263.616C146.995 264.156 148.171 263.856 148.712 262.944C149.252 262.033 148.951 260.856 148.04 260.316C147.128 259.776 145.952 260.077 145.411 260.988C144.871 261.899 145.172 263.076 146.083 263.616Z" fill="#BBBBBB"/>
<path d="M146.447 263.002C146.066 262.773 145.775 262.419 145.624 262C145.473 261.581 145.472 261.123 145.621 260.704C145.551 260.798 145.491 260.899 145.442 261.005C145.29 261.222 145.184 261.467 145.131 261.726C145.078 261.986 145.079 262.253 145.135 262.512C145.19 262.77 145.299 263.015 145.453 263.229C145.608 263.444 145.805 263.625 146.032 263.759C146.26 263.894 146.513 263.981 146.775 264.013C147.038 264.046 147.304 264.023 147.558 263.948C147.811 263.872 148.046 263.745 148.249 263.575C148.451 263.404 148.615 263.193 148.732 262.956C148.801 262.861 148.861 262.76 148.911 262.654C148.61 262.997 148.196 263.221 147.744 263.285C147.292 263.349 146.832 263.249 146.447 263.002Z" fill="white"/>
<path d="M139.683 274.411C140.595 274.951 141.771 274.651 142.312 273.739C142.852 272.828 142.551 271.651 141.64 271.111C140.729 270.571 139.552 270.872 139.012 271.783C138.471 272.694 138.772 273.871 139.683 274.411Z" fill="#BBBBBB"/>
<path d="M140.053 273.787C139.671 273.561 139.379 273.209 139.227 272.792C139.075 272.375 139.073 271.918 139.221 271.499C139.151 271.593 139.091 271.694 139.042 271.801C138.89 272.017 138.784 272.262 138.731 272.522C138.678 272.781 138.679 273.048 138.735 273.307C138.79 273.565 138.899 273.81 139.053 274.025C139.208 274.239 139.405 274.42 139.632 274.555C139.86 274.69 140.113 274.776 140.375 274.808C140.638 274.841 140.904 274.819 141.158 274.743C141.411 274.668 141.646 274.54 141.849 274.37C142.051 274.199 142.215 273.988 142.332 273.751C142.402 273.657 142.462 273.556 142.511 273.449C142.21 273.792 141.796 274.014 141.345 274.076C140.894 274.138 140.435 274.036 140.053 273.787Z" fill="white"/>
<path d="M133.284 285.206C134.195 285.746 135.372 285.445 135.912 284.534C136.452 283.623 136.151 282.446 135.24 281.906C134.329 281.366 133.152 281.666 132.612 282.578C132.071 283.489 132.372 284.666 133.284 285.206Z" fill="#BBBBBB"/>
<path d="M133.653 284.584C133.27 284.357 132.978 284.003 132.827 283.584C132.676 283.164 132.676 282.705 132.827 282.286C132.755 282.383 132.693 282.488 132.642 282.598C132.429 283.031 132.387 283.529 132.525 283.992C132.662 284.454 132.97 284.848 133.385 285.094C133.8 285.341 134.293 285.421 134.765 285.32C135.237 285.219 135.654 284.943 135.932 284.548C136.004 284.451 136.066 284.346 136.117 284.236C135.817 284.582 135.403 284.807 134.95 284.871C134.497 284.935 134.037 284.833 133.653 284.584Z" fill="white"/>
<path d="M120.087 253.82C119.737 253.595 119.454 253.282 119.266 252.911L117.642 250.031C117.219 249.072 117.027 248.027 117.081 246.98C117.135 245.933 117.434 244.913 117.953 244.002L157.223 177.758C157.415 177.337 157.715 176.975 158.091 176.707C158.467 176.438 158.907 176.273 159.367 176.228C159.726 176.251 160.071 176.371 160.367 176.575C160.662 176.779 160.897 177.06 161.046 177.386L162.618 180.263C163.035 181.218 163.223 182.258 163.168 183.299C163.113 184.34 162.815 185.354 162.299 186.26L123.029 252.504C122.837 252.925 122.538 253.288 122.162 253.557C121.785 253.825 121.345 253.99 120.884 254.034C120.604 254.033 120.33 253.959 120.087 253.82ZM159.867 176.945C159.705 176.847 159.521 176.794 159.332 176.792C158.975 176.841 158.636 176.981 158.348 177.198C158.06 177.415 157.832 177.702 157.686 178.032L118.415 244.276C117.943 245.099 117.669 246.021 117.618 246.968C117.567 247.915 117.738 248.861 118.119 249.73L119.733 252.604C119.837 252.84 120.001 253.045 120.21 253.197C120.418 253.349 120.663 253.443 120.919 253.47C121.276 253.419 121.613 253.277 121.899 253.059C122.185 252.841 122.411 252.554 122.556 252.224L161.826 185.98C162.295 185.157 162.567 184.237 162.62 183.292C162.673 182.347 162.506 181.402 162.132 180.532L160.508 177.652C160.361 177.364 160.139 177.12 159.867 176.945Z" fill="white"/>
<path d="M92.9996 206.365C92.6501 206.141 92.3666 205.827 92.1784 205.457L90.5584 202.593C90.1335 201.632 89.94 200.584 89.9933 199.534C90.0466 198.484 90.3453 197.461 90.8654 196.548L130.136 130.303C130.332 129.884 130.633 129.524 131.011 129.256C131.389 128.989 131.83 128.825 132.29 128.78C132.648 128.803 132.994 128.923 133.29 129.127C133.585 129.331 133.82 129.611 133.969 129.938L135.533 132.782C135.953 133.744 136.144 134.791 136.089 135.84C136.034 136.888 135.735 137.909 135.216 138.822L95.9514 205.056C95.7599 205.477 95.4609 205.84 95.0845 206.108C94.708 206.377 94.2675 206.542 93.8072 206.586C93.5231 206.586 93.2441 206.51 92.9996 206.365ZM91.0362 202.292L92.6562 205.156C92.7549 205.393 92.9157 205.598 93.1216 205.752C93.3276 205.905 93.571 206 93.8263 206.026C94.1857 205.977 94.5265 205.836 94.8158 205.617C95.1052 205.398 95.3334 205.108 95.4786 204.776L134.743 138.542C135.216 137.717 135.489 136.794 135.542 135.845C135.594 134.897 135.424 133.949 135.045 133.078L133.431 130.204C133.327 129.968 133.163 129.763 132.955 129.611C132.746 129.459 132.501 129.364 132.245 129.337C131.889 129.39 131.552 129.532 131.266 129.75C130.98 129.968 130.754 130.255 130.609 130.584L91.3383 196.828C90.8655 197.652 90.5919 198.575 90.5395 199.524C90.487 200.473 90.6572 201.421 91.0362 202.292Z" fill="white"/>
<path d="M106.535 230.094C106.191 229.863 105.909 229.551 105.714 229.185L104.1 226.311C103.677 225.35 103.485 224.303 103.54 223.254C103.595 222.205 103.895 221.184 104.417 220.272L143.663 154.068C143.855 153.647 144.154 153.284 144.53 153.015C144.907 152.747 145.347 152.582 145.808 152.538C146.167 152.559 146.513 152.678 146.809 152.882C147.105 153.087 147.34 153.368 147.487 153.697L149.101 156.571C149.517 157.522 149.706 158.558 149.653 159.596C149.599 160.633 149.305 161.644 148.793 162.548L109.523 228.792C109.327 229.211 109.025 229.572 108.648 229.839C108.27 230.106 107.829 230.271 107.369 230.316C107.076 230.317 106.789 230.24 106.535 230.094ZM146.325 153.225C146.164 153.126 145.979 153.073 145.79 153.072C145.432 153.118 145.092 153.256 144.803 153.474C144.514 153.691 144.287 153.98 144.144 154.312L104.88 220.546C104.394 221.374 104.111 222.305 104.053 223.263C103.995 224.222 104.165 225.18 104.548 226.06L106.162 228.934C106.266 229.171 106.43 229.375 106.638 229.527C106.847 229.679 107.091 229.774 107.348 229.801C107.704 229.749 108.041 229.608 108.328 229.39C108.614 229.171 108.84 228.884 108.984 228.554L148.29 162.25C148.763 161.427 149.036 160.505 149.088 159.558C149.139 158.611 148.968 157.665 148.586 156.796L146.972 153.922C146.822 153.637 146.599 153.396 146.325 153.225Z" fill="white"/>
<path opacity="0.5" d="M292.702 164.347L282.898 175.586L299.034 175.823L292.702 164.347Z" fill="url(#paint3_linear_517_29436)"/>
<path d="M265.609 65.9141L261.836 65.8799L262.746 70.7436L248.676 94.4784C245.604 99.66 245.191 107.56 247.745 112.106L281.721 172.549L281.828 172.735L282.377 175.617L285.91 175.644C285.958 175.651 286.007 175.653 286.056 175.65L286.381 175.652C288.292 175.548 290.309 174.119 291.907 171.422L308.852 142.838L265.609 65.9141Z" fill="url(#paint4_linear_517_29436)"/>
<path d="M261.836 65.8789L305.079 142.803L288.146 171.367C285.068 176.559 280.511 177.066 277.947 172.514L243.971 112.07C241.417 107.524 241.831 99.6248 244.903 94.4432L261.836 65.8789Z" fill="white"/>
<path opacity="0.5" d="M194.448 176.046L177.525 175.899L140.372 109.805L156.057 110.021L194.448 176.046Z" fill="url(#paint5_linear_517_29436)"/>
<path d="M178.75 66.4844L174.977 66.4503L175.888 71.3139L161.817 95.0487C158.74 100.24 158.322 108.124 160.886 112.676L194.862 173.12L194.969 173.306L195.518 176.187L199.051 176.215L199.187 176.214L199.522 176.222C201.443 176.124 203.46 174.695 205.058 171.998L222.009 143.404L178.75 66.4844Z" fill="url(#paint6_linear_517_29436)"/>
<path d="M174.977 66.4512L218.22 143.375L201.299 171.919C198.221 177.111 193.664 177.618 191.1 173.066L157.112 112.643C154.549 108.091 154.972 100.197 158.044 95.0154L174.977 66.4512Z" fill="url(#paint7_linear_517_29436)"/>
<defs>
<linearGradient id="paint0_linear_517_29436" x1="80.2885" y1="143.355" x2="288.147" y2="266.576" gradientUnits="userSpaceOnUse">
<stop stop-color="#3B3149"/>
<stop offset="0.520833" stop-color="#392B4D"/>
<stop offset="1" stop-color="#2C2C46"/>
</linearGradient>
<linearGradient id="paint1_linear_517_29436" x1="117.367" y1="80.9815" x2="325.147" y2="204.157" gradientUnits="userSpaceOnUse">
<stop stop-color="#3B3149"/>
<stop offset="0.520833" stop-color="#392B4D"/>
<stop offset="1" stop-color="#2C2C46"/>
</linearGradient>
<linearGradient id="paint2_linear_517_29436" x1="292.177" y1="161.887" x2="169.526" y2="89.1783" gradientUnits="userSpaceOnUse">
<stop stop-color="#111C33"/>
<stop offset="1" stop-color="#2E2230"/>
</linearGradient>
<linearGradient id="paint3_linear_517_29436" x1="302.42" y1="170.111" x2="285.947" y2="165.255" gradientUnits="userSpaceOnUse">
<stop offset="0.000350169" stop-color="#302044"/>
<stop offset="0.491985"/>
<stop offset="1" stop-color="#2F1818"/>
</linearGradient>
<linearGradient id="paint4_linear_517_29436" x1="309.47" y1="141.796" x2="243.265" y2="102.549" gradientUnits="userSpaceOnUse">
<stop stop-color="#111C33"/>
<stop offset="1" stop-color="#2E2230"/>
</linearGradient>
<linearGradient id="paint5_linear_517_29436" x1="213.422" y1="144.04" x2="121.789" y2="134.993" gradientUnits="userSpaceOnUse">
<stop offset="0.000350169" stop-color="#302044"/>
<stop offset="0.491985"/>
<stop offset="1" stop-color="#2F1818"/>
</linearGradient>
<linearGradient id="paint6_linear_517_29436" x1="222.621" y1="142.373" x2="156.406" y2="103.12" gradientUnits="userSpaceOnUse">
<stop stop-color="#111C33"/>
<stop offset="1" stop-color="#2E2230"/>
</linearGradient>
<linearGradient id="paint7_linear_517_29436" x1="240.708" y1="105.44" x2="150.849" y2="77.7289" gradientUnits="userSpaceOnUse">
<stop offset="0.000350169" stop-color="#302044"/>
<stop offset="0.491985"/>
<stop offset="1" stop-color="#2F1818"/>
</linearGradient>
</defs>
</svg>
