<svg width="155" height="34" viewBox="0 0 155 34" fill="none" xmlns="http://www.w3.org/2000/svg">
<g clip-path="url(#clip0_27_554)">
<path d="M31.7843 33.5562C33.7802 33.5562 35.6913 33.2594 37.0926 32.2844C37.4747 32.0302 37.8144 31.691 38.1117 31.3518C38.4938 30.8009 38.7913 31.0128 38.7913 31.8181V32.1997C38.7913 32.7507 39.0885 33.0475 39.6405 33.0475H45.0762C45.6282 33.0475 45.9255 32.7507 45.9255 32.1997V21.6447C45.9255 17.1938 45.9254 13.4211 42.9528 10.8777C41.0418 9.22453 38.2815 8.50391 35.4789 8.50391C30.8925 8.50391 26.1789 10.7506 24.9473 16.0917C24.8199 16.6851 25.1172 17.0242 25.7117 17.0242H31.1049C31.6144 17.0242 31.8694 16.7699 32.0392 16.3036C32.6337 14.7352 33.9925 13.845 35.4365 13.845C36.4981 13.845 37.3049 14.0993 37.8569 14.6928C38.2815 15.1591 38.5788 15.8373 38.7488 16.6428C38.8337 17.1938 38.5363 17.5329 38.0267 17.6176L32.5913 18.5926C30.7652 18.9318 28.5994 19.3981 26.9008 20.5002C25.1596 21.6447 23.8857 23.425 23.8857 26.3075C23.8857 31.1399 27.4528 33.5562 31.7843 33.5562ZM33.8652 28.1727C32.3365 28.1727 31.0199 27.5793 31.0199 26.0532C31.0199 25.375 31.2747 24.9087 31.6569 24.5272C32.2515 23.9761 33.0159 23.6793 34.587 23.3827L37.9843 22.7045C38.5788 22.5773 38.9611 22.9164 38.9186 23.5098C38.7063 25.5445 38.1541 26.8162 36.4556 27.5793C35.6063 27.9607 34.672 28.1727 33.8652 28.1727Z" fill="#F8F8F8"/>
<path d="M118.436 33.5554C124.126 33.5554 128.585 30.6306 130.071 25.6286C130.199 25.0774 129.901 24.7384 129.307 24.7384H123.277C122.809 24.7384 122.47 24.9928 122.3 25.4591C121.705 26.985 120.559 27.8752 118.436 27.8752C115.251 27.8752 113.255 25.2471 113.255 20.8809C113.255 16.6843 115.251 14.141 118.436 14.141C120.304 14.141 121.493 14.8616 122.173 16.3453C122.385 16.8116 122.682 17.0235 123.149 17.0235H129.264C129.859 17.0235 130.156 16.642 129.986 16.0909C128.457 11.4281 124.126 8.50317 118.436 8.50317C110.877 8.50317 105.908 13.5052 105.908 20.8809C105.908 28.5535 110.919 33.5554 118.436 33.5554Z" fill="#F8F8F8"/>
<path d="M95.7969 0.709229C95.3865 0.709229 95.0537 1.04135 95.0537 1.45105V5.92119C95.0537 6.33089 95.3865 6.663 95.7969 6.663H101.445C101.855 6.663 102.188 6.33089 102.188 5.92119V1.45105C102.188 1.04135 101.855 0.709229 101.445 0.709229H95.7969Z" fill="#F8F8F8"/>
<path d="M102.188 32.1991C102.188 32.7501 101.891 33.0468 101.339 33.0468H95.9031C95.351 33.0468 95.0537 32.7501 95.0537 32.1991V9.85974C95.0537 9.30869 95.351 9.01196 95.9031 9.01196H101.339C101.891 9.01196 102.188 9.30869 102.188 9.85974V32.1991Z" fill="#F8F8F8"/>
<path d="M83.8358 9.24499C83.8358 8.83531 84.1686 8.50317 84.579 8.50317H91.0612C91.4717 8.50317 91.8044 8.83531 91.8044 9.24499V14.5373C91.8044 14.947 91.4717 15.2791 91.0612 15.2791H85.3246C84.9142 15.2791 84.5814 15.6112 84.5814 16.0209V32.3067C84.5814 32.7163 84.2488 33.0483 83.8384 33.0483H78.2059C77.7955 33.0483 77.4629 32.7163 77.4629 32.3067V14.9069C77.4629 14.4973 77.7955 14.1651 78.2059 14.1651H83.0926C83.503 14.1651 83.8358 13.833 83.8358 13.4233V9.24499Z" fill="#F8F8F8"/>
<path d="M63.0847 33.5587C69.2422 33.5587 73.5737 28.3873 73.5737 21.0114C73.5737 13.678 69.2422 8.50648 63.0847 8.50648C61.0038 8.50648 59.3053 8.97276 57.8615 10.414C57.3518 10.9651 56.9272 10.8803 56.9272 10.1173V1.55458C56.9272 1.00351 56.6299 0.706787 56.0779 0.706787H50.6422C50.0902 0.706787 49.793 1.00351 49.793 1.55458V32.2022C49.793 32.7534 50.0902 33.0501 50.6422 33.0501H56.0779C56.6299 33.0501 56.9272 32.7534 56.9272 32.2022V31.736C56.9272 31.1002 57.3518 31.1002 57.8615 31.6513C59.3053 33.0924 61.0038 33.5587 63.0847 33.5587ZM61.0889 27.497C57.9465 27.497 55.8231 24.9112 55.8231 21.0114C55.8231 17.154 57.9465 14.5682 61.0889 14.5682C64.2738 14.5682 66.3546 17.2387 66.3546 21.0114C66.3546 24.8265 64.2738 27.497 61.0889 27.497Z" fill="#F8F8F8"/>
<path d="M140.71 33.5554C142.706 33.5554 144.617 33.2587 146.018 32.2838C146.401 32.0295 146.74 31.6903 147.037 31.3513C147.42 30.8001 147.717 31.0121 147.717 31.8175V32.199C147.717 32.7501 148.014 33.0467 148.566 33.0467H154.002C154.554 33.0467 154.851 32.7501 154.851 32.199V21.6439C154.851 17.193 154.851 13.4204 151.879 10.877C149.968 9.22381 147.207 8.50317 144.405 8.50317C139.818 8.50317 135.105 10.7498 133.873 16.0909C133.746 16.6843 134.043 17.0235 134.637 17.0235H140.031C140.54 17.0235 140.795 16.7691 140.965 16.3029C141.56 14.7345 142.918 13.8443 144.362 13.8443C145.424 13.8443 146.231 14.0986 146.783 14.6921C147.207 15.1584 147.505 15.8366 147.674 16.642C147.759 17.193 147.462 17.5322 146.953 17.6169L141.517 18.5919C139.691 18.9311 137.525 19.3973 135.827 20.4994C134.085 21.6439 132.812 23.4244 132.812 26.3068C132.812 31.1392 136.379 33.5554 140.71 33.5554ZM142.791 28.1719C141.262 28.1719 139.946 27.5786 139.946 26.0524C139.946 25.3742 140.201 24.9079 140.583 24.5265C141.177 23.9754 141.942 23.6786 143.513 23.382L146.91 22.7038C147.505 22.5765 147.887 22.9157 147.844 23.5091C147.632 25.5437 147.08 26.8155 145.381 27.5786C144.532 27.96 143.598 28.1719 142.791 28.1719Z" fill="#F8F8F8"/>
<path d="M7.31948 1.44861C7.31948 1.03891 7.65222 0.706787 8.06264 0.706787H23.3571C23.7676 0.706787 24.1003 1.03891 24.1003 1.44861V8.19839C24.1003 8.60809 23.7676 8.94021 23.3571 8.94021L8.41643 8.94228C8.006 8.94228 7.67329 9.27441 7.67329 9.68409V13.4845C7.67329 13.8859 7.9927 14.2128 8.39166 14.2259H20.1921C20.6025 14.2259 20.9353 14.558 20.9353 14.9677V21.9399C20.9353 22.3495 20.6025 22.6816 20.1921 22.6816H8.67459C8.26416 22.6816 7.93144 23.0138 7.93144 23.4234V32.307C7.93144 32.7168 7.59873 33.0488 7.18828 33.0488H1.00878C0.598344 33.0488 0.265625 32.7168 0.265625 32.307V22.25C0.265625 21.8402 0.598344 21.5081 1.00878 21.5081H6.56959C6.98003 21.5081 7.31275 21.1759 7.31275 20.7663V16.5815C7.31275 16.1719 6.98003 15.8398 6.56959 15.8398H1.00878C0.598344 15.8398 0.265625 15.5076 0.265625 15.0979V8.12579C0.265625 7.71611 0.598344 7.38398 1.00878 7.38398H6.57634C6.98677 7.38398 7.31948 7.05186 7.31948 6.64216V1.44861Z" fill="#F8F8F8"/>
</g>
<defs>
<clipPath id="clip0_27_554">
<rect width="155" height="34" fill="white"/>
</clipPath>
</defs>
</svg>
