<svg width="464" height="184" viewBox="0 0 464 184" fill="none" xmlns="http://www.w3.org/2000/svg">
<path d="M10 138H37.7791V92.625H58.052L82.9441 138H113.61L85.7028 88.25C100.651 82 108.927 69.3125 108.927 51.8125C108.927 26.375 91.6692 10 61.8372 10H10V138ZM37.7791 70.875V32.125H56.5123C72.551 32.125 80.3138 39.0625 80.3138 51.8125C80.3138 64.5 72.551 70.875 56.6406 70.875H37.7791Z" fill="black"/>
<path d="M165.668 139.875C190.047 139.875 206.47 128.312 210.32 110.5L185.043 108.875C182.284 116.188 175.227 120 166.117 120C152.452 120 143.791 111.187 143.791 96.875V96.8125H210.897V89.5C210.897 56.875 190.624 40.75 164.577 40.75C135.579 40.75 116.782 60.8125 116.782 90.4375C116.782 120.875 135.323 139.875 165.668 139.875ZM143.791 80.3125C144.368 69.375 152.901 60.625 165.026 60.625C176.895 60.625 185.107 68.875 185.171 80.3125H143.791Z" fill="black"/>
<path d="M250.364 10H223.034V138H250.364V10Z" fill="black"/>
<path d="M294.659 139.812C309.222 139.812 318.653 133.625 323.465 124.688H324.235V138H350.153V73.25C350.153 50.375 330.265 40.75 308.324 40.75C284.715 40.75 269.19 51.75 265.405 69.25L290.682 71.25C292.542 64.875 298.38 60.1875 308.196 60.1875C317.498 60.1875 322.823 64.75 322.823 72.625V73C322.823 79.1875 316.087 80 298.958 81.625C279.455 83.375 261.94 89.75 261.94 111.188C261.94 130.188 275.862 139.812 294.659 139.812ZM302.486 121.438C294.082 121.438 288.051 117.625 288.051 110.312C288.051 102.812 294.403 99.125 304.026 97.8125C309.992 97 319.744 95.625 323.016 93.5V103.688C323.016 113.75 314.483 121.438 302.486 121.438Z" fill="black"/>
<path d="M379.003 174C399.34 174 410.118 163.875 415.7 148.375L454 42.125L425.066 42L404.472 112.5H403.446L383.045 42H354.303L389.653 140.75L388.049 144.812C384.456 153.812 377.592 154.25 367.968 151.375L361.809 171.25C365.723 172.875 372.074 174 379.003 174Z" fill="black"/>
</svg>
