<svg width="341" height="372" viewBox="0 0 341 372" fill="none" xmlns="http://www.w3.org/2000/svg">
<path d="M265.885 234.296C265.559 234.433 252.055 240.378 251.756 240.47C248.704 240.934 245.568 240.214 242.998 238.459L90.869 149.085C88.3435 147.695 86.2827 145.596 84.9521 143.057C84.649 142.277 84.9323 143.555 81.9711 126.5C81.6028 124.701 81.8152 122.842 82.5781 121.189L18.8579 243.498C18.0264 245.107 17.5685 246.885 17.5172 248.704C17.5038 249.656 17.4537 248.036 18.2862 267.34C18.4853 268.67 18.9753 269.945 19.7217 271.077C20.4682 272.209 21.453 273.17 22.6069 273.891C23.6716 274.523 161.99 355.589 162.353 355.804C163.583 356.625 164.989 357.144 166.453 357.317C167.917 357.491 169.395 357.313 170.763 356.8C171.03 356.659 185.469 348.208 186.044 347.858C187.222 347.1 188.244 346.129 189.057 344.995C192.686 339.856 172.876 367.953 268.841 231.789C268.086 232.859 267.07 233.721 265.885 234.296Z" fill="url(#paint0_linear_517_29277)"/>
<g style="mix-blend-mode:color-dodge">
<path d="M268.05 226.465C268.975 224.431 269.092 222.115 268.379 219.97C268.125 219.073 267.807 218.193 267.43 217.337L261.503 204.044C267.916 218.376 267.71 217.743 268.246 219.472C268.669 220.613 268.855 221.823 268.793 223.029C268.731 224.235 268.421 225.411 267.884 226.487C267.195 227.66 266.145 228.582 264.885 229.119L250.86 235.115C250.645 235.168 250.86 235.115 250.525 235.216C250.376 235.237 250.226 235.248 250.076 235.25C249.314 235.292 248.549 235.176 247.829 234.909C246.984 234.642 246.171 234.281 245.406 233.832L93.7298 144.726C92.7376 144.132 91.8481 143.382 91.0971 142.506C90.8833 142.274 90.6945 142.022 90.5338 141.752C90.2735 141.378 90.0847 140.961 89.9771 140.522C89.8684 139.827 89.9771 140.522 87.0222 124.85C86.6345 123.1 86.8873 121.282 87.7352 119.722C87.8801 119.429 88.0472 119.147 88.2353 118.879C88.4469 118.628 88.6778 118.394 88.9261 118.178C89.7668 117.456 90.734 116.892 91.7818 116.511C93.8247 115.802 93.5571 115.944 111.954 113.469C112.203 113.436 112.455 113.425 112.708 113.436L113.117 113.469L113.572 113.528C114.166 113.627 114.75 113.783 115.317 113.993C116.727 114.527 118.071 115.224 119.322 116.067C117.854 115.075 116.253 114.298 114.568 113.759C113.747 113.508 112.892 113.396 112.038 113.429L94.3677 115.764C92.7452 115.979 91.1886 116.515 89.7901 117.341C89.2009 117.713 88.6665 118.163 88.201 118.679C87.714 119.243 87.3311 119.889 87.0692 120.588C86.5699 121.947 86.4681 123.425 86.7752 124.853C89.9403 142.03 89.5293 139.986 89.7476 140.806C89.882 141.095 89.7476 140.806 89.9711 141.358C90.6968 142.551 91.6855 143.568 92.8616 144.332C93.5865 144.762 245.554 234.1 245.884 234.265L246.881 234.856C247.527 235.109 248.196 235.295 248.879 235.411C249.367 235.508 249.867 235.52 250.357 235.447C250.953 235.32 249.845 235.743 264.57 229.443C266.059 228.9 267.294 227.844 268.05 226.465Z" fill="white"/>
<path d="M269.409 230.992C270.42 228.686 270.54 226.079 269.745 223.66C269.504 222.827 269.579 223.112 268.237 219.077C268.552 219.961 268.769 220.875 268.887 221.802C268.946 222.167 268.963 222.447 268.99 222.763C269.069 224.169 268.761 225.562 268.1 226.796C267.384 227.982 266.316 228.919 265.039 229.481C264.749 229.609 251.242 235.402 251.014 235.477C249.213 235.769 247.355 235.393 245.793 234.422C245.476 234.234 93.637 145.092 92.8157 144.515C91.3597 143.607 90.2227 142.272 89.5672 140.699C89.4723 140.343 89.63 141.007 86.6781 124.916C86.2872 123.149 86.5496 121.313 87.4174 119.745C88.3918 118.183 89.9027 117.025 91.6789 116.481C92.4501 116.21 93.2456 116.009 94.0557 115.88L90.0214 116.488C87.4554 116.86 85.1222 118.124 83.4372 120.055C82.4904 121.262 81.9567 122.741 81.9118 124.281C81.8807 125.883 81.8115 125.121 84.7763 142.119C84.9501 142.941 85.2882 143.723 85.7705 144.419C87.0979 146.271 88.8068 147.827 90.7815 148.979C91.008 149.114 243.02 238.479 244.079 239.016C246.434 240.469 249.247 240.976 251.934 240.433C252.224 240.305 265.666 234.413 266.201 234.13C267.578 233.443 268.699 232.346 269.409 230.992Z" fill="white"/>
</g>
<g style="mix-blend-mode:color-dodge">
<path d="M267.784 226.599C267.095 227.773 266.045 228.694 264.784 229.231L250.76 235.228C250.545 235.28 250.76 235.228 250.424 235.329C250.276 235.349 250.126 235.361 249.976 235.363C249.214 235.393 248.451 235.277 247.729 235.021C246.884 234.754 246.071 234.393 245.306 233.944C83.6266 138.939 93.6355 144.932 92.4269 143.976C91.6415 143.394 90.9663 142.679 90.4336 141.864C90.2822 141.643 90.1553 141.407 90.0552 141.16C89.8828 140.728 90.1646 142.215 87.0127 125.016C86.625 123.266 86.8778 121.448 87.7257 119.888C87.8705 119.595 88.0377 119.313 88.2257 119.045C88.4374 118.794 88.6683 118.56 88.9166 118.344C89.7573 117.623 90.7245 117.058 91.7723 116.677C93.8151 115.968 93.5476 116.11 111.944 113.635C112.194 113.602 112.446 113.591 112.698 113.602L113.107 113.635L113.562 113.694C114.156 113.794 114.741 113.949 115.307 114.159C116.717 114.693 118.061 115.39 119.312 116.233C109.341 135.222 110.42 133.042 110.091 133.957L109.976 134.668C109.943 135.166 109.987 135.667 110.105 136.155C110.235 136.722 110.433 137.272 110.694 137.794C110.981 138.39 111.318 138.961 111.702 139.502C112.139 140.11 112.612 140.691 113.12 141.242C114.191 142.327 113.781 141.934 114.914 142.966C115.58 143.55 116.279 144.094 117.008 144.598C117.667 145.034 118.348 145.438 119.047 145.806C120.565 146.706 119.998 146.37 121.618 147.15C123.237 147.93 122.501 147.674 124.081 148.16C125.66 148.646 125.024 148.479 126.539 148.868C127.359 149.128 128.193 149.342 129.037 149.508C129.73 149.589 130.427 149.621 131.123 149.605C131.75 149.581 132.373 149.498 132.983 149.358C133.502 149.233 134.003 149.046 134.476 148.803C134.831 148.608 135.158 148.369 135.449 148.09L135.805 147.49L144.872 131.265L237.946 185.991L227.797 200.735L227.442 201.334L227.259 202.005C227.208 202.433 227.208 202.866 227.259 203.296C227.317 203.871 227.443 204.439 227.634 204.988C227.855 205.608 228.136 206.206 228.472 206.775C228.832 207.416 229.232 208.034 229.671 208.626C230.618 209.817 230.257 209.393 231.243 210.518L233.206 212.371C234.534 213.488 234.043 213.077 235.387 214.114C236.732 215.151 236.361 214.692 237.879 215.591C238.53 216.04 239.212 216.444 239.918 216.8C241.392 217.464 240.778 217.31 242.354 217.854C243.93 218.398 243.252 218.147 244.673 218.539C246.093 218.931 245.556 218.702 246.78 218.858C247.407 218.909 248.038 218.901 248.662 218.833C249.196 218.775 249.721 218.653 250.224 218.47C250.679 218.312 251.1 218.074 251.468 217.767C252.123 217.075 250.889 218.743 261.426 204.17C267.839 218.502 267.632 217.869 268.169 219.597C268.586 220.738 268.768 221.947 268.701 223.15C268.635 224.353 268.323 225.527 267.784 226.599Z" fill="url(#paint1_linear_517_29277)"/>
</g>
<path d="M268.531 220.022C268.033 218.228 268.147 218.655 261.585 203.905L261.506 204.038C268.309 219.261 267.791 217.964 268.201 219.287C269.574 223.581 268.846 227.65 264.689 229.445C249.638 235.883 251.033 235.39 250.086 235.489C249.722 235.499 249.358 235.473 248.998 235.414L248.817 235.306C247.63 235.074 246.492 234.633 245.456 234.004C238.048 229.613 93.9571 145.063 93.2037 144.527C91.8066 143.679 90.6703 142.465 89.9238 141.022C89.6718 140.363 90.0616 142.184 86.8813 124.879C86.6635 123.777 86.6673 122.647 86.8922 121.555C87.0602 120.83 87.3544 120.142 87.7617 119.52C87.9034 119.225 88.0708 118.943 88.2617 118.677C88.4803 118.418 88.7236 118.18 88.9883 117.968C89.5508 117.506 90.1718 117.118 90.8362 116.813C91.9953 116.296 93.2291 115.956 94.4964 115.803C94.7697 115.755 112.086 113.45 112.356 113.46L112.755 113.457L112.914 113.551C114.298 113.695 115.646 114.107 116.88 114.762C117.356 115.044 117.877 115.352 119.417 116.266C117.879 115.233 116.199 114.43 114.432 113.881C113.794 113.701 113.139 113.594 112.478 113.562C111.939 113.543 112.478 113.562 94.6455 115.861C89.2291 116.58 85.6459 119.526 86.5911 125.007C90.384 145.255 89.2291 139.561 89.546 140.679C89.6149 140.967 89.7153 141.248 89.8455 141.516C90.7957 143.077 92.1466 144.365 93.7575 145.245C248.469 236.15 246.223 234.879 247.316 235.256C247.73 235.414 248.153 235.545 248.583 235.648C249.387 235.848 250.226 235.839 251.018 235.621C251.018 235.621 264.716 229.762 265.042 229.625C265.697 229.333 266.301 228.942 266.832 228.465C267.928 227.396 268.675 226.024 268.977 224.522C269.28 223.019 269.124 221.453 268.531 220.022Z" fill="url(#paint2_linear_517_29277)"/>
<g style="mix-blend-mode:color-dodge">
<path d="M106.74 274.298C106.77 274.441 106.83 274.578 106.918 274.697C107.006 274.817 107.119 274.916 107.248 274.989L123.105 284.389C123.694 284.738 124.288 284.46 124.466 284.056C124.645 283.652 125.029 282.229 130.316 265.203C132.06 265.576 133.861 265.543 135.575 265.107C137.29 264.67 138.871 263.843 140.194 262.689C141.275 261.639 142.055 260.323 142.458 258.871C142.963 257.174 142.976 255.364 142.495 253.643C141.938 251.773 140.944 250.052 139.593 248.623C138.88 247.844 138.085 247.141 137.223 246.528C135.441 245.291 133.419 244.44 131.294 244.033C129.356 243.652 127.363 243.724 125.475 244.243C123.695 244.681 122.085 245.608 120.828 246.918C120.294 247.511 119.842 248.17 119.481 248.88C118.945 250.017 118.646 251.254 118.603 252.516C118.559 253.778 118.771 255.041 119.226 256.229C119.661 257.451 120.295 258.598 121.103 259.622L106.972 273.595C106.885 273.688 106.823 273.801 106.792 273.925C106.762 274.048 106.764 274.178 106.798 274.302L106.74 274.298ZM140.478 259.317C139.575 260.728 138.245 261.817 136.673 262.432C134.976 263.084 133.128 263.282 131.313 263.004L129.498 262.709L123.542 281.948L109.248 273.474L123.807 259.244C122.791 258.061 121.982 256.719 121.414 255.276C120.873 253.737 120.79 252.083 121.175 250.514C121.411 249.552 121.839 248.649 122.434 247.858C123.029 247.068 123.779 246.405 124.641 245.909C126.028 245.091 127.61 244.645 129.236 244.612C131.949 244.548 134.623 245.374 136.843 246.962C139.007 248.425 140.609 250.572 141.382 253.043C141.833 254.527 141.855 256.1 141.446 257.581C141.201 258.2 140.876 258.784 140.478 259.317Z" fill="url(#paint3_linear_517_29277)"/>
</g>
<g style="mix-blend-mode:color-dodge">
<path d="M120.864 253.933C121.343 255.851 122.282 257.633 123.602 259.126L125.484 255.592C124.499 254.258 124.453 254.231 123.93 253.41C122.73 251.475 122.321 249.17 122.787 246.973C122.523 247.417 122.51 247.439 122.062 247.833C121.257 248.981 120.786 250.33 120.698 251.735L120.683 252.535C120.706 253.005 120.767 253.472 120.864 253.933Z" fill="white"/>
<path d="M140.644 258.723C140.833 258.399 140.978 258.051 141.074 257.688C141.186 257.546 141.279 257.389 141.35 257.222C141.534 256.911 141.495 256.978 141.447 256.8C140.462 257.849 139.22 258.63 137.837 259.069C135.714 259.654 133.464 259.675 131.31 259.13L129.497 262.706C130.938 263.03 132.415 263.147 133.882 263.055C135.064 262.983 136.215 262.674 137.265 262.146C138.314 261.619 139.241 260.883 139.988 259.985C140.253 259.59 140.473 259.167 140.644 258.723Z" fill="white"/>
<path d="M112.169 270.404L109.148 273.383L123.429 281.879L124.683 277.852L112.169 270.404Z" fill="white"/>
</g>
<g style="mix-blend-mode:color-dodge">
<path d="M156.8 211.126L152.962 211.61C148.071 212.371 149.376 212.185 147.398 212.422C143.734 212.891 140.027 213.024 136.326 212.819C134.38 212.695 132.445 212.421 130.537 211.997C128.885 211.609 127.274 211.056 125.73 210.347C119.325 207.18 113.4 203.122 108.137 198.298C105.001 195.479 105.092 195.533 100.326 190.817L98.1779 193.924C102.725 198.39 103.505 199.242 107.426 202.647C110.72 205.481 114.217 208.075 117.887 210.408C119.985 211.734 122.183 212.896 124.459 213.884C126.002 214.56 127.614 215.063 129.265 215.383C131.408 215.848 133.583 216.134 135.768 216.238C139.563 216.344 143.355 216.133 147.102 215.607C152.715 214.764 150.688 215.032 155.148 214.377L156.8 211.126Z" fill="url(#paint4_linear_517_29277)"/>
</g>
<g style="mix-blend-mode:color-dodge">
<path d="M201.399 250.224C194.866 248.459 188.475 246.185 182.287 243.424C179.079 241.979 175.999 240.263 173.081 238.297C170.222 236.354 167.767 233.879 165.857 231.014C161.861 224.78 158.782 218.024 156.716 210.955L155.038 214.25C157.843 221.913 157.889 222.3 159.292 225.562C161.194 230.067 163.828 234.244 167.087 237.924C168.272 239.174 169.588 240.296 171.012 241.27C173.685 243.17 176.512 244.845 179.461 246.279C186.116 249.357 193.014 251.871 200.08 253.792L201.399 250.224Z" fill="url(#paint5_linear_517_29277)"/>
</g>
<g style="mix-blend-mode:color-dodge">
<path d="M194.113 257.095C187.079 267.566 189.411 264.148 183.727 272.239C179.549 277.893 180.934 276.073 177.621 280.319C175.353 283.212 172.934 285.983 170.372 288.622C168.467 290.493 167.891 291.052 165.827 292.828C163.043 295.186 159.997 297.224 156.745 298.905C153.099 300.78 149.284 302.324 145.347 303.518C142.758 304.338 140.11 304.974 137.423 305.421C133.117 306.082 128.774 306.512 124.414 306.709C116.02 307.158 107.588 306.762 99.2448 305.529L98.6746 306.181C103.452 306.963 108.267 307.463 113.094 307.678C119.815 307.977 126.54 307.782 133.215 307.096C135.085 306.885 136.646 306.73 139.093 306.321C139.78 306.248 140.375 306.121 141.016 306.021C145.031 305.185 148.964 304.025 152.777 302.552C155.274 301.542 155.769 301.326 158.264 300.165C161.705 298.507 164.953 296.491 167.953 294.149C170.084 292.412 170.621 291.92 172.633 290.023C175.655 287.044 176.799 285.682 179.322 282.768C184.877 275.981 186.9 272.98 191.973 265.817L200.081 253.793L194.113 257.095Z" fill="url(#paint6_linear_517_29277)"/>
</g>
<g style="mix-blend-mode:color-dodge">
<path d="M89.0824 289.725C86.2984 284.589 83.8865 279.27 81.8653 273.806C81.1336 271.854 80.5261 269.861 80.0462 267.837C79.0727 263.766 78.4545 259.626 78.1985 255.462C78.0088 252.168 78.1589 248.869 78.6464 245.617C79.4053 241.018 80.6557 236.52 82.3767 232.198C84.9053 225.867 85.8412 224.082 88.8002 218.006C93.2822 209.413 91.2167 213.258 98.0959 200.776L98.0098 193.795L90.3526 207.796C86.0812 216.034 87.4529 213.307 84.276 219.854C82.1197 224.576 81.4565 225.953 79.398 231.543C78.4472 234.489 78.1957 235.12 77.3552 238.552C76.949 240.224 76.6298 241.917 76.3988 243.625C75.8976 247.237 75.7798 250.897 76.0471 254.547C76.3775 258.854 77.0894 263.131 78.1746 267.328C78.5485 268.66 78.8712 269.871 79.4358 271.346C80.6816 274.878 82.1091 278.348 83.7126 281.741C86.4794 287.682 89.7078 293.408 93.3682 298.865C95.4328 301.889 95.4971 301.988 98.6519 306.168L99.2221 305.516C95.4221 300.524 92.0311 295.243 89.0824 289.725Z" fill="url(#paint7_linear_517_29277)"/>
</g>
<g style="mix-blend-mode:color-dodge">
<path d="M151.574 214.777C147.201 215.56 142.769 216.011 138.315 216.127C133.992 216.285 129.663 215.66 125.539 214.284C120.086 211.981 114.99 208.9 110.418 205.14C106.054 201.64 101.921 197.867 98.0427 193.843L98.1288 200.824C104.595 207.38 112.019 212.934 120.142 217.294C121.952 218.218 123.845 218.968 125.794 219.535C131.09 220.859 136.558 221.291 141.966 220.812C147.956 220.313 149.572 219.86 151.881 219.579L154.987 214.34L151.574 214.777Z" fill="url(#paint8_linear_517_29277)"/>
</g>
<g style="mix-blend-mode:color-dodge">
<path d="M192.551 251.519C184.928 249.19 177.67 245.777 171.006 241.387C169.582 240.413 168.266 239.291 167.081 238.04C163.813 234.367 161.178 230.189 159.286 225.679C157.981 222.716 157.981 222.716 155.032 214.367L151.926 219.606C153.032 222.903 154.309 226.144 155.753 229.315C157.101 232.237 158.709 235.038 160.558 237.683C162.8 240.936 165.652 243.738 168.955 245.931C174.19 249.383 179.816 252.204 185.71 254.334C189.923 255.901 190.64 256.086 194.11 257.153L200.114 253.842L192.551 251.519Z" fill="url(#paint9_linear_517_29277)"/>
</g>
<g style="mix-blend-mode:color-dodge">
<path d="M191.077 256.224C186.407 254.714 181.838 252.897 177.402 250.787C174.497 249.335 173.94 249.035 171.652 247.678C167.026 245.107 163.076 241.478 160.136 237.101C156.607 231.648 153.837 225.757 151.903 219.591C149.841 219.868 148.887 220.083 145.582 220.493C141.651 220.961 137.679 221.076 133.714 220.838C131.52 220.745 129.336 220.454 127.188 219.969C125.259 219.537 123.38 218.896 121.586 218.058C118.864 216.821 116.247 215.36 113.765 213.692C108.151 209.933 102.909 205.65 98.1115 200.902C90.9786 213.864 93.3372 209.472 88.8384 218.146C85.8041 224.297 86.7773 222.294 84.5947 227.06C83.1331 230.336 81.842 233.686 80.7263 237.097C79.6089 240.551 78.8322 244.109 78.4072 247.723C78.061 251.163 78.0534 254.635 78.3844 258.089C78.755 262.204 79.5034 266.282 80.6203 270.275C81.2805 272.466 81.1512 271.91 81.7508 273.945L82.8705 276.859C84.7134 281.342 85.1488 282.26 86.6251 285.295C89.3988 290.998 92.6147 296.485 96.2436 301.707C97.688 303.763 98.4062 304.669 99.2303 305.758C101.396 306.081 101.594 306.109 105.417 306.425C111.743 307.029 118.099 307.166 124.429 306.836C128.441 306.649 132.436 306.254 136.398 305.65C138.226 305.355 137.533 305.543 139.847 304.995C143.963 304.076 147.981 302.794 151.854 301.163C158.821 298.35 165.079 294.095 170.216 288.678C173.464 285.263 174.33 284.216 177.464 280.374C180.778 276.128 179.393 277.948 183.571 272.294C189.278 264.217 186.923 267.621 193.956 257.151L191.077 256.224ZM141.448 261.034C140.734 262.132 139.798 263.07 138.697 263.79C137.596 264.51 136.355 264.997 135.048 265.22C133.443 265.557 131.782 265.59 130.153 265.318C123.974 285.295 124.375 284.153 124.149 284.379C123.987 284.519 123.784 284.605 123.569 284.627C123.353 284.65 123.135 284.607 122.943 284.504L107.086 275.104C106.962 275.04 106.854 274.951 106.769 274.843C106.683 274.735 106.622 274.609 106.59 274.476C106.559 274.343 106.556 274.205 106.584 274.072C106.612 273.938 106.669 273.813 106.751 273.705C108.165 272.353 101.737 278.653 120.895 259.71C119.946 258.55 119.244 257.213 118.833 255.783C118.422 254.352 118.312 252.858 118.508 251.394C118.708 250.093 119.217 248.863 119.993 247.805C121.035 246.342 122.496 245.225 124.192 244.594C125.994 243.925 127.938 243.689 129.865 243.907C131.978 244.123 134.024 244.798 135.857 245.885C137.69 246.971 139.264 248.442 140.467 250.192C141.567 251.737 142.265 253.522 142.5 255.387C142.799 257.344 142.429 259.332 141.448 261.034Z" fill="white"/>
</g>
<g style="mix-blend-mode:color-dodge">
<path d="M288.275 165.903C289.656 163.212 289.236 164.283 290.488 161.395C291.741 158.507 291.241 159.711 292.367 156.779C293.28 154.283 294.053 151.737 294.684 149.152C295.339 146.24 295.104 147.361 295.698 144.293C296.292 141.225 296 142.492 296.373 139.383C296.747 136.275 296.716 135.656 296.785 131.407C296.742 128.382 296.772 129.57 296.665 126.446C296.558 123.322 296.497 124.457 296.136 121.452C295.774 118.447 295.631 117.913 294.632 113.66C293.88 110.695 294.197 111.812 293.299 108.73C292.402 105.648 292.721 106.917 291.621 103.866C289.952 99.6063 289.75 99.2763 288.374 96.3304C286.998 93.3845 287.435 94.4539 285.918 91.6944C284.4 88.9348 284.859 89.8664 283.202 87.0841C281.545 84.3018 282.022 85.3046 280.12 82.6772C278.218 80.0498 278.819 80.9462 276.735 78.4205C274.65 75.8947 275.301 76.7602 273.047 74.3139C270.793 71.8677 271.514 72.7156 269.064 70.3932C266.614 68.0708 267.398 68.8656 264.798 66.694C262.197 64.5223 263.021 65.2505 260.238 63.1805C256.888 60.7748 254.895 59.5931 252.982 58.4295C249.584 56.4151 247.051 55.2136 245.183 54.2859C242.041 52.8732 243.252 53.4114 239.944 52.0203C236.636 50.6292 237.983 51.248 234.615 50.0613C229.949 48.5853 229.68 48.5754 226.429 47.7585C223.178 46.9415 224.437 47.2975 220.977 46.6266C217.518 45.9558 218.965 46.3035 215.549 45.8686C212.133 45.4337 213.551 45.6746 210.134 45.4488C206.717 45.223 208.143 45.3482 204.809 45.2918C201.475 45.2354 202.832 45.3203 199.506 45.5086C196.18 45.697 197.545 45.6662 194.267 46.0327C190.988 46.3991 192.334 46.2972 189.113 46.8774C185.891 47.4576 187.232 47.2622 184.08 48.034C179.809 49.1356 175.636 50.5635 171.599 52.3051C168.81 53.6521 169.88 53.0864 167.052 54.5001C164.224 55.9137 163.829 56.2193 160.231 58.4666C157.726 60.1617 158.674 59.4933 156.135 61.3484C153.597 63.2036 154.642 62.4732 152.245 64.5024C150.212 66.2529 148.274 68.1082 146.439 70.061C144.441 72.2962 145.201 71.4269 143.156 73.8444C141.11 76.2619 141.916 75.4195 140.15 77.8825C138.162 80.8742 137.932 81.1581 135.895 84.7503C107.786 138.259 110.432 132.867 110.194 133.836C110.086 134.304 110.048 134.787 110.08 135.268C110.143 135.799 110.263 136.323 110.439 136.831C110.658 137.413 110.93 137.975 111.249 138.511C111.607 139.128 112.018 139.713 112.478 140.26C112.97 140.875 113.507 141.454 114.084 141.992C114.722 142.615 115.4 143.197 116.112 143.734C117.425 144.722 117.064 144.298 117.978 145.08C119.473 145.967 118.907 145.631 120.492 146.571C121.32 147.008 122.17 147.402 123.038 147.75C123.863 148.098 124.708 148.399 125.567 148.649C127.06 149.109 128.601 149.388 130.156 149.48C130.818 149.494 131.48 149.465 132.136 149.393C132.714 149.328 133.28 149.19 133.819 148.981C134.3 148.816 134.752 148.577 135.157 148.274C135.465 148.035 135.73 147.746 135.94 147.418C164.324 96.5937 161.941 100.821 163.336 98.4677C164.482 96.6153 165.757 94.8449 167.15 93.1689C168.418 91.6676 169.787 90.2545 171.25 88.939C172.762 87.5827 174.365 86.3281 176.048 85.1832C177.838 83.9717 179.705 82.8743 181.639 81.8974C183.474 80.9767 185.37 80.1765 187.314 79.5018C191.58 78.0226 196.021 77.0688 200.539 76.6616C202.756 76.4559 204.986 76.3851 207.216 76.4497C209.592 76.5216 211.965 76.7262 214.323 77.0624C216.726 77.4217 219.107 77.922 221.455 78.5607C223.848 79.2068 226.2 79.9999 228.497 80.9351C230.855 81.8812 233.153 82.9728 235.376 84.2033C237.644 85.4422 239.834 86.8202 241.931 88.329C243.964 89.778 245.905 91.3497 247.744 93.0348C249.541 94.6775 251.232 96.4313 252.805 98.2853C254.272 100.009 255.633 101.817 256.881 103.701C258.156 105.626 259.313 107.624 260.344 109.685C261.361 111.702 262.246 113.779 262.993 115.905C263.662 117.852 264.192 119.84 264.579 121.855C265.033 124.018 265.341 126.205 265.503 128.403C265.644 130.419 265.673 132.439 265.59 134.455C265.512 136.347 265.306 138.229 264.974 140.09C264.572 142.175 264.029 144.228 263.35 146.237C262.713 148.077 261.947 149.868 261.059 151.599C258.845 155.747 261.222 151.996 227.767 200.684L227.411 201.284L227.25 201.968C227.184 202.39 227.176 202.82 227.228 203.245C227.283 203.815 227.413 204.376 227.616 204.915C227.849 205.535 228.125 206.14 228.441 206.724C228.809 207.37 229.217 207.993 229.663 208.589C230.142 209.24 230.664 209.861 231.226 210.445C232.374 211.606 231.942 211.2 233.175 212.321C234.409 213.442 234.012 213.027 235.243 213.997C236.474 214.967 236.24 214.587 237.735 215.474C238.393 215.911 239.074 216.315 239.774 216.682C240.569 217.074 241.387 217.419 242.223 217.714C242.98 217.989 243.749 218.225 244.529 218.421C245.911 218.671 245.412 218.585 246.636 218.74C247.263 218.791 247.894 218.783 248.518 218.716C249.059 218.661 249.591 218.544 250.103 218.366C250.542 218.184 250.953 217.943 251.323 217.649C252.027 216.927 249.29 220.614 284.056 172.762C285.987 169.917 286.221 169.575 288.275 165.903Z" fill="white"/>
</g>
<g style="mix-blend-mode:color-dodge" opacity="0.75">
<mask id="mask0_517_29277" style="mask-type:luminance" maskUnits="userSpaceOnUse" x="110" y="129" width="28" height="21">
<path d="M135.837 147.542L135.482 148.141L135.122 148.438L134.508 148.854L133.794 149.181L132.98 149.418L132.101 149.557L131.155 149.656L130.121 149.644L129.037 149.511L127.907 149.351L126.735 149.107L125.509 148.8L124.277 148.399L123.003 147.914L121.746 147.349L120.523 146.624L119.277 145.885L118.031 145.147L117.216 144.663L116.117 143.832L115.076 143.005L114.143 142.152L113.318 141.272L112.551 140.398L111.878 139.519L111.331 138.685L110.869 137.811L110.534 136.982L110.28 136.171C110.159 135.166 110.325 134.152 110.759 133.246C112.83 129.133 120.163 128.95 127.362 132.558C134.56 136.165 138.297 141.74 136.894 146.069L135.837 147.542Z" fill="white"/>
</mask>
<g mask="url(#mask0_517_29277)">
<path d="M140.523 139.643L115.242 124.656L106.886 138.753L132.166 153.739L140.523 139.643Z" fill="#3E3E40"/>
<path d="M137.756 146.941C135.446 151.302 127.264 151.522 119.511 147.405C111.757 143.288 107.341 136.381 109.651 132.02C111.96 127.659 120.119 127.426 127.896 131.556C135.673 135.686 140.079 142.558 137.756 146.941Z" fill="#3E3E40"/>
<path d="M137.449 146.79C135.192 151.062 127.212 151.252 119.617 147.229C112.021 143.206 107.657 136.419 109.959 132.174C112.261 127.928 120.209 127.69 127.792 131.735C135.374 135.78 139.719 142.496 137.449 146.79Z" fill="#3C3C3E"/>
<path d="M137.154 146.612C134.95 150.795 127.122 150.985 119.699 147.034C112.275 143.083 108.049 136.528 110.213 132.411C112.378 128.294 120.258 128.016 127.682 131.966C135.106 135.917 139.358 142.428 137.154 146.612Z" fill="#3B3B3D"/>
<path d="M136.936 146.517C134.762 150.598 127.145 150.794 119.88 146.937C112.615 143.08 108.499 136.649 110.69 132.488C112.881 128.327 120.48 128.212 127.745 132.069C135.01 135.926 138.997 142.369 136.936 146.517Z" fill="#39393B"/>
<path d="M136.552 146.285C134.431 150.277 126.967 150.473 119.897 146.701C112.826 142.93 108.77 136.655 110.869 132.649C112.968 128.644 120.441 128.484 127.525 132.233C134.608 135.982 138.638 142.301 136.552 146.285Z" fill="#373739"/>
<path d="M136.221 146.124C134.175 150.041 126.878 150.215 119.965 146.537C113.053 142.86 109.129 136.724 111.163 132.829C113.196 128.934 120.507 128.738 127.441 132.429C134.376 136.12 138.291 142.221 136.221 146.124Z" fill="#363638"/>
<path d="M135.914 145.973C133.91 149.766 126.824 149.945 120.071 146.362C113.317 142.778 109.454 136.798 111.47 132.983C113.487 129.168 120.596 129.003 127.349 132.586C134.103 136.17 137.93 142.159 135.914 145.973Z" fill="#343436"/>
<path d="M135.62 145.796C133.656 149.522 126.736 149.68 120.096 146.163C113.455 142.647 109.747 136.818 111.734 133.106C113.72 129.393 120.552 129.333 127.245 132.761C133.938 136.188 137.571 142.092 135.62 145.796Z" fill="#333334"/>
<path d="M135.312 145.642C133.414 149.257 126.63 149.495 120.246 146.011C113.862 142.526 110.236 137.076 112.096 133.319C113.956 129.561 120.778 129.466 127.175 132.928C133.572 136.39 137.21 142.027 135.312 145.642Z" fill="#313133"/>
<path d="M135.004 145.488C133.136 149 126.671 149.218 120.364 145.809C114.058 142.401 110.535 136.982 112.407 133.412C114.278 129.841 120.741 129.682 127.047 133.09C133.353 136.499 136.872 141.975 135.004 145.488Z" fill="#303031"/>
<path d="M134.619 145.26C132.804 148.684 126.378 148.835 120.33 145.609C114.282 142.384 110.818 136.971 112.62 133.569C114.422 130.167 120.849 130.017 126.887 133.206C132.925 136.396 136.567 141.975 134.619 145.26Z" fill="#2E2E30"/>
<path d="M134.402 145.164C132.639 148.499 126.437 148.633 120.512 145.51C114.587 142.388 111.295 137.046 113.005 133.8C114.715 130.554 120.983 130.309 126.894 133.454C132.806 136.598 136.204 141.763 134.402 145.164Z" fill="#2D2D2E"/>
<path d="M134.108 144.99C132.375 148.223 126.349 148.37 120.618 145.333C114.888 142.296 111.603 137.199 113.313 133.953C115.023 130.706 121.072 130.572 126.79 133.632C132.507 136.691 135.805 141.766 134.108 144.99Z" fill="#2B2B2D"/>
<path d="M133.777 144.822C132.132 147.957 126.281 148.119 120.687 145.162C115.092 142.206 111.962 137.26 113.607 134.125C115.251 130.99 121.125 130.842 126.697 133.785C132.269 136.728 135.444 141.7 133.777 144.822Z" fill="#2A2A2C"/>
<path d="M133.469 144.669C131.877 147.715 126.192 147.855 120.792 144.984C115.391 142.112 112.322 137.323 113.914 134.276C115.506 131.23 121.214 131.103 126.614 133.975C132.014 136.846 135.096 141.613 133.469 144.669Z" fill="#29292A"/>
<path d="M133.176 144.496C131.614 147.44 126.104 147.594 120.885 144.83C115.666 142.066 112.684 137.388 114.246 134.444C115.807 131.5 121.304 131.368 126.523 134.132C131.742 136.896 134.737 141.552 133.176 144.496Z" fill="#272729"/>
<path d="M132.867 144.339C131.357 147.195 126.036 147.341 120.966 144.635C115.896 141.929 112.984 137.443 114.629 134.668C116.274 131.893 121.46 131.667 126.53 134.373C131.599 137.078 134.376 141.484 132.867 144.339Z" fill="#262628"/>
<path d="M132.559 144.189C131.116 146.933 125.961 147.057 121.072 144.459C116.183 141.861 113.39 137.535 114.847 134.768C116.303 132.002 121.459 131.878 126.347 134.476C131.236 137.074 134.016 141.422 132.559 144.189Z" fill="#252526"/>
<path d="M132.287 144.03C130.748 146.627 125.894 146.81 121.187 144.319C116.479 141.829 113.773 137.614 115.177 134.936C116.581 132.259 121.534 132.165 126.265 134.669C130.995 137.173 133.655 141.361 132.287 144.03Z" fill="#242425"/>
<path d="M131.958 143.864C130.484 146.35 125.806 146.547 121.248 144.115C116.689 141.682 114.089 137.651 115.45 135.097C116.811 132.544 121.602 132.414 126.173 134.824C130.745 137.234 133.309 141.275 131.958 143.864Z" fill="#232324"/>
<path d="M131.663 143.69C130.342 146.177 125.769 146.197 121.34 143.96C116.91 141.724 114.449 137.716 115.757 135.251C117.065 132.786 121.651 132.745 126.068 135.003C130.485 137.262 132.949 141.212 131.663 143.69Z" fill="#212123"/>
<path d="M131.333 143.523C130.017 145.743 125.598 146.123 121.475 143.679C117.352 141.235 114.849 137.711 116.104 135.335C117.36 132.959 121.862 132.748 126.028 135.068C130.194 137.388 132.588 141.147 131.333 143.523Z" fill="#202022"/>
<path d="M131.026 143.369C129.71 145.589 125.575 145.748 121.463 143.7C117.35 141.652 115.105 137.951 116.308 135.664C117.51 133.377 121.794 133.277 125.894 135.347C129.993 137.417 132.252 141.096 131.026 143.369Z" fill="#1F1F21"/>
<path d="M130.73 143.199C129.414 145.419 125.484 145.489 121.619 143.437C117.753 141.386 115.516 137.93 116.689 135.745C117.862 133.56 121.912 133.441 125.8 135.506C129.689 137.571 131.89 141.036 130.73 143.199Z" fill="#1E1E1F"/>
<path d="M130.423 143.041C129.212 145.083 125.418 145.234 121.689 143.263C117.959 141.292 115.877 137.988 116.893 135.86C117.909 133.733 121.898 133.667 125.605 135.625C129.312 137.582 131.543 140.945 130.423 143.041Z" fill="#1D1D1E"/>
<path d="M130.115 142.891C128.97 144.822 125.329 144.974 121.793 143.088C118.258 141.202 116.237 138.054 117.291 136.069C118.345 134.084 122.077 133.986 125.612 135.872C129.148 137.757 131.114 140.843 130.115 142.891Z" fill="#1C1C1D"/>
<path d="M129.82 142.717C128.715 144.582 125.262 144.725 121.886 142.933C118.509 141.141 116.584 138.14 117.599 136.222C118.614 134.303 122.143 134.236 125.52 136.028C128.897 137.819 130.822 140.821 129.82 142.717Z" fill="#1B1B1C"/>
<path d="M129.514 142.567C128.474 144.321 125.187 144.443 121.969 142.745C118.751 141.047 116.945 138.206 117.894 136.399C118.843 134.592 122.233 134.501 125.438 136.221C128.643 137.941 130.463 140.76 129.514 142.567Z" fill="#1A1A1C"/>
<path d="M129.207 142.413C128.233 144.056 125.099 144.178 122.062 142.588C119.025 140.998 117.306 138.269 118.202 136.55C119.099 134.831 122.323 134.763 125.347 136.375C128.371 137.988 130.103 140.695 129.207 142.413Z" fill="#19191B"/>
<path d="M128.888 142.222C127.954 143.798 125.031 143.925 122.166 142.407C119.301 140.888 117.665 138.328 118.495 136.721C119.326 135.113 122.375 135.031 125.24 136.549C128.106 138.068 129.754 140.605 128.888 142.222Z" fill="#19191A"/>
<path d="M128.581 142.069C127.713 143.534 124.943 143.662 122.34 142.269C119.737 140.876 118.103 138.468 118.895 136.926C119.686 135.385 122.556 135.347 125.149 136.704C127.742 138.062 129.395 140.541 128.581 142.069Z" fill="#181819"/>
<path d="M128.287 141.897C127.457 143.295 124.876 143.415 122.341 142.062C119.806 140.709 118.35 138.466 119.127 137.157C119.903 135.847 122.524 135.66 125.059 137.013C127.594 138.366 129.021 140.502 128.287 141.897Z" fill="#171718"/>
<path d="M127.979 141.748C127.216 143.036 124.801 143.134 122.424 141.875C120.048 140.616 118.711 138.534 119.481 137.13C120.252 135.727 122.673 135.722 125.027 136.968C127.381 138.213 128.727 140.331 127.979 141.748Z" fill="#161617"/>
<path d="M127.626 141.565C126.916 142.764 124.679 142.818 122.471 141.689C120.263 140.56 119.026 138.567 119.691 137.341C120.357 136.115 122.616 136.074 124.847 137.217C127.078 138.36 128.337 140.366 127.626 141.565Z" fill="#161617"/>
<path d="M127.376 141.415C126.718 142.525 124.644 142.616 122.594 141.58C120.544 140.545 119.404 138.699 120.017 137.562C120.629 136.426 122.736 136.384 124.799 137.397C126.862 138.41 127.966 140.265 127.376 141.415Z" fill="#151516"/>
<path d="M127.07 141.269C126.464 142.29 124.556 142.359 122.691 141.374C120.826 140.388 119.779 138.747 120.339 137.699C120.899 136.651 122.852 136.609 124.695 137.581C126.537 138.553 127.63 140.221 127.07 141.269Z" fill="#141415"/>
<path d="M126.761 141.112C126.222 142.022 124.466 142.091 122.796 141.191C121.125 140.29 120.138 138.805 120.646 137.846C121.153 136.887 122.918 136.853 124.624 137.745C126.331 138.636 127.269 140.152 126.761 141.112Z" fill="#141415"/>
<path d="M126.467 140.938C125.967 141.781 124.4 141.842 122.888 141.036C121.376 140.23 120.499 138.87 120.954 137.999C121.408 137.129 123.008 137.117 124.519 137.923C126.031 138.729 126.909 140.089 126.467 140.938Z" fill="url(#paint10_linear_517_29277)"/>
<path d="M126.137 140.774C125.703 141.506 124.325 141.559 123.017 140.874C121.708 140.188 120.905 138.962 121.294 138.202C121.683 137.443 123.142 137.408 124.415 138.102C125.687 138.796 126.562 140.005 126.137 140.774Z" fill="url(#paint11_linear_517_29277)"/>
<path d="M125.843 140.598C125.448 141.264 124.258 141.309 123.063 140.691C121.868 140.073 121.22 138.998 121.579 138.341C121.938 137.684 123.163 137.63 124.345 138.271C125.526 138.911 126.202 139.941 125.843 140.598Z" fill="url(#paint12_linear_517_29277)"/>
<path d="M125.534 140.444C125.205 140.999 124.168 141.044 123.168 140.511C122.167 139.978 121.566 139.082 121.872 138.513C122.179 137.945 123.238 137.913 124.239 138.446C125.239 138.979 125.84 139.876 125.534 140.444Z" fill="url(#paint13_linear_517_29277)"/>
<path d="M125.295 140.335C125.032 140.779 124.147 140.825 123.306 140.386C122.464 139.947 121.995 139.189 122.248 138.709C122.502 138.23 123.373 138.206 124.238 138.658C125.102 139.111 125.571 139.869 125.295 140.335Z" fill="url(#paint14_linear_517_29277)"/>
<path d="M124.932 140.115C124.709 140.492 124.013 140.53 123.343 140.162C122.673 139.795 122.287 139.206 122.488 138.816C122.689 138.425 123.394 138.423 124.064 138.79C124.735 139.157 125.12 139.746 124.932 140.115Z" fill="url(#paint15_linear_517_29277)"/>
<path d="M124.624 139.965C124.466 140.231 123.936 140.247 123.425 139.974C122.913 139.701 122.646 139.273 122.782 138.993C122.917 138.713 123.483 138.688 123.972 138.948C124.46 139.208 124.772 139.663 124.624 139.965Z" fill="url(#paint16_linear_517_29277)"/>
<path d="M124.317 139.816C124.212 139.994 123.87 140.002 123.517 139.822C123.165 139.643 123.007 139.34 123.09 139.149C123.173 138.958 123.55 138.941 123.89 139.143C124.229 139.344 124.413 139.603 124.317 139.816Z" fill="url(#paint17_linear_517_29277)"/>
<path d="M124.022 139.641C124.022 139.641 123.781 139.738 123.622 139.644C123.464 139.55 123.305 139.456 123.397 139.3C123.489 139.145 123.625 139.225 123.797 139.297C123.969 139.369 124.052 139.538 124.022 139.641Z" fill="url(#paint18_linear_517_29277)"/>
</g>
</g>
<g style="mix-blend-mode:color-dodge" opacity="0.75">
<mask id="mask1_517_29277" style="mask-type:luminance" maskUnits="userSpaceOnUse" x="227" y="197" width="26" height="22">
<path d="M252.342 216.604L251.881 217.381L251.403 217.878L250.861 218.276L250.196 218.572L249.44 218.814L248.62 218.958L247.713 218.99L246.751 218.96L245.725 218.832L244.622 218.628L243.49 218.317L242.325 217.957L241.11 217.476L239.876 216.924L239.083 216.454L237.837 215.716L236.591 214.977L235.368 214.252L234.246 213.407L233.187 212.509L232.199 211.593L231.292 210.696L230.448 209.745L229.72 208.804L229.051 207.867L228.498 206.94L228.05 206.044L227.761 205.033L227.511 204.164L227.364 203.327L227.331 202.557L227.366 202.188C227.522 201.515 227.805 200.879 228.202 200.314C230.835 196.595 238.266 197.28 244.989 201.895C251.226 206.403 254.407 212.759 252.342 216.604Z" fill="white"/>
</mask>
<g mask="url(#mask1_517_29277)">
<path d="M257.184 208.438L232.062 193.545L223.823 207.442L248.945 222.334L257.184 208.438Z" fill="#3E3E40"/>
<path d="M252.698 217.09C249.636 221.274 241.557 220.805 234.757 215.904C227.958 211.004 224.954 203.522 228.056 199.271C231.158 195.02 239.175 195.542 245.984 200.479C252.792 205.415 255.8 212.838 252.698 217.09Z" fill="#3E3E40"/>
<path d="M252.417 216.895C249.377 221.093 241.539 220.526 234.772 215.675C228.005 210.823 225.314 203.588 228.354 199.39C231.394 195.191 239.255 195.771 245.986 200.632C252.717 205.492 255.466 212.732 252.417 216.895Z" fill="#3C3C3E"/>
<path d="M252.158 216.709C249.197 220.774 241.508 220.266 235.003 215.54C228.499 210.814 225.635 203.716 228.556 199.718C231.477 195.719 239.206 196.161 245.71 200.887C252.215 205.613 255.132 212.622 252.158 216.709Z" fill="#3B3B3D"/>
<path d="M251.877 216.514C248.991 220.504 241.491 219.987 235.118 215.4C228.746 210.812 225.903 203.937 228.841 199.858C231.779 195.78 239.263 196.376 245.622 200.986C251.982 205.596 254.785 212.538 251.877 216.514Z" fill="#39393B"/>
<path d="M251.729 216.245C248.896 220.146 241.571 219.644 235.344 215.172C229.117 210.701 226.377 203.857 229.22 199.992C232.062 196.126 239.378 196.593 245.592 201.087C251.806 205.581 254.45 212.429 251.729 216.245Z" fill="#373739"/>
<path d="M251.39 216.045C248.645 219.848 241.46 219.369 235.391 214.991C229.323 210.614 226.697 203.837 229.421 200.172C232.145 196.506 239.351 196.848 245.406 201.248C251.461 205.647 254.072 212.295 251.39 216.045Z" fill="#363638"/>
<path d="M251.118 215.884C248.426 219.598 241.416 219.132 235.506 214.849C229.596 210.565 226.974 204.091 229.689 200.39C232.403 196.689 239.368 197.128 245.287 201.447C251.207 205.766 253.783 212.214 251.118 215.884Z" fill="#343436"/>
<path d="M250.823 215.712C248.197 219.315 241.385 218.877 235.62 214.709C229.856 210.542 227.295 204.224 229.934 200.598C232.573 196.973 239.381 197.469 245.146 201.636C250.91 205.803 253.436 212.13 250.823 215.712Z" fill="#333334"/>
<path d="M250.552 215.544C247.979 219.059 241.355 218.612 235.804 214.602C230.253 210.591 227.698 204.366 230.258 200.873C232.818 197.381 239.468 197.783 245.006 201.816C250.544 205.849 253.125 212.03 250.552 215.544Z" fill="#313133"/>
<path d="M250.257 215.371C247.772 218.788 241.324 218.355 235.827 214.407C230.331 210.459 227.95 204.457 230.435 201.04C232.919 197.623 239.403 198.047 244.864 202.004C250.325 205.961 252.791 211.923 250.257 215.371Z" fill="#303031"/>
<path d="M249.986 215.21C247.553 218.539 241.268 218.142 235.93 214.288C230.592 210.434 228.258 204.61 230.69 201.282C233.123 197.954 239.395 198.372 244.733 202.226C250.071 206.081 252.457 211.816 249.986 215.21Z" fill="#2E2E30"/>
<path d="M249.742 214.981C252.1 211.743 249.819 206.087 244.645 202.347C239.472 198.607 233.366 198.199 231.007 201.437C228.648 204.674 230.93 210.331 236.103 214.071C241.277 217.811 247.383 218.218 249.742 214.981Z" fill="#2D2D2E"/>
<path d="M249.466 214.902C247.174 218.044 241.23 217.64 236.205 214.031C231.181 210.423 228.959 204.875 231.25 201.733C233.541 198.592 239.463 198.982 244.497 202.626C249.531 206.27 251.777 211.622 249.466 214.902Z" fill="#2B2B2D"/>
<path d="M249.204 214.568C246.988 217.634 241.219 217.244 236.331 213.717C231.442 210.189 229.336 204.86 231.489 201.846C233.643 198.833 239.461 199.192 244.35 202.72C249.238 206.248 251.465 211.528 249.204 214.568Z" fill="#2A2A2C"/>
<path d="M248.945 214.385C246.795 217.34 241.269 217.005 236.458 213.553C231.647 210.101 229.647 204.955 231.81 201.977C233.973 198.999 239.486 199.357 244.284 202.831C249.082 206.306 251.108 211.407 248.945 214.385Z" fill="#29292A"/>
<path d="M248.664 214.187C246.589 217.067 241.093 216.63 236.586 213.388C232.079 210.146 229.98 205.062 232.055 202.182C234.13 199.301 239.639 199.717 244.155 202.995C248.672 206.272 250.761 211.321 248.664 214.187Z" fill="#272729"/>
<path d="M248.418 213.983C246.396 216.774 241.153 216.426 236.646 213.184C232.139 209.943 230.237 205.095 232.269 202.339C234.3 199.583 239.534 199.896 243.962 203.271C248.39 206.646 250.427 211.214 248.418 213.983Z" fill="#262628"/>
<path d="M248.163 213.834C250.119 211.15 248.228 206.46 243.938 203.358C239.648 200.257 234.585 199.92 232.629 202.604C230.674 205.289 232.565 209.979 236.855 213.08C241.144 216.181 246.207 216.519 248.163 213.834Z" fill="#252526"/>
<path d="M247.877 213.603C245.973 216.194 241.081 215.874 236.946 212.883C232.811 209.892 230.972 205.351 232.876 202.76C234.779 200.168 239.636 200.497 243.793 203.502C247.951 206.506 249.758 210.998 247.877 213.603Z" fill="#242425"/>
<path d="M247.597 213.404C245.781 215.898 241.091 215.547 237.075 212.716C233.059 209.886 231.307 205.457 233.135 202.941C234.963 200.424 239.641 200.797 243.666 203.663C247.692 206.53 249.412 210.91 247.597 213.404Z" fill="#232324"/>
<path d="M247.383 213.247C245.62 215.652 241.092 215.338 237.248 212.579C233.404 209.82 231.699 205.57 233.461 203.164C235.224 200.759 239.752 201.074 243.583 203.855C247.414 206.636 249.1 210.815 247.383 213.247Z" fill="#212123"/>
<path d="M247.056 213.028C245.382 215.336 241.016 215.058 237.308 212.379C233.6 209.701 232.078 205.709 233.662 203.347C235.245 200.986 239.724 201.331 243.41 203.996C247.096 206.661 248.857 210.765 247.056 213.028Z" fill="#202022"/>
<path d="M246.798 212.845C245.177 215.063 240.999 214.777 237.436 212.215C233.873 209.653 232.322 205.763 233.943 203.544C235.565 201.325 239.755 201.589 243.305 204.174C246.855 206.758 248.42 210.626 246.798 212.845Z" fill="#1F1F21"/>
<path d="M246.529 212.625C245.01 214.724 240.981 214.496 237.654 212.104C234.327 209.711 232.746 205.924 234.292 203.78C235.838 201.637 239.863 201.923 243.267 204.391C246.672 206.859 248.085 210.517 246.529 212.625Z" fill="#1E1E1F"/>
<path d="M246.272 212.439C244.752 214.538 240.929 214.221 237.67 211.869C234.411 209.518 232.937 206.064 234.457 203.965C235.977 201.866 239.764 202.191 243.023 204.543C246.282 206.895 247.752 210.406 246.272 212.439Z" fill="#1D1D1E"/>
<path d="M245.99 212.241C244.585 214.199 240.911 213.941 237.797 211.705C234.684 209.469 233.337 206.061 234.742 204.104C236.147 202.146 239.821 202.404 242.921 204.662C246.022 206.92 247.417 210.298 245.99 212.241Z" fill="#1C1C1D"/>
<path d="M245.731 212.062C244.391 213.908 240.893 213.664 237.925 211.544C234.957 209.425 233.736 206.061 235.023 204.304C236.309 202.547 239.861 202.702 242.816 204.843C245.771 206.985 247.07 210.216 245.731 212.062Z" fill="#1B1B1C"/>
<path d="M245.449 211.863C244.185 213.634 240.862 213.404 238.052 211.379C235.243 209.353 233.981 206.265 235.268 204.508C236.554 202.751 239.891 202.958 242.687 205.006C245.484 207.054 246.736 210.106 245.449 211.863Z" fill="#1A1A1C"/>
<path d="M245.237 211.709C244.016 213.355 240.891 213.153 238.204 211.23C235.517 209.307 234.375 206.38 235.596 204.734C236.817 203.087 239.955 203.268 242.606 205.199C245.257 207.131 246.364 210.067 245.237 211.709Z" fill="#19191B"/>
<path d="M244.922 211.461C243.777 213.032 240.814 212.866 238.286 211.037C235.757 209.208 234.663 206.459 235.808 204.888C236.954 203.317 239.926 203.519 242.432 205.335C244.937 207.15 246.068 209.89 244.922 211.461Z" fill="#19191A"/>
<path d="M244.664 211.277C243.571 212.759 240.819 212.598 238.414 210.872C236.008 209.146 234.883 206.499 236.09 205.084C237.296 203.669 239.934 203.763 242.326 205.511C244.719 207.259 245.774 209.715 244.664 211.277Z" fill="#181819"/>
<path d="M244.384 211.079C243.379 212.464 240.758 212.29 238.537 210.613C236.316 208.937 235.339 206.557 236.344 205.173C237.348 203.788 240.083 204.029 242.19 205.639C244.297 207.248 245.411 209.708 244.384 211.079Z" fill="#171718"/>
<path d="M244.124 210.897C243.172 212.192 240.792 211.921 238.594 210.619C236.397 209.316 235.625 206.848 236.577 205.553C237.529 204.257 239.909 204.528 242.084 205.817C244.259 207.106 245.076 209.601 244.124 210.897Z" fill="#161617"/>
<path d="M243.843 210.702C243.093 211.968 240.67 211.821 238.776 210.368C236.882 208.915 236.012 206.87 236.876 205.672C237.739 204.474 240.072 204.566 241.943 206.006C243.815 207.445 244.742 209.495 243.843 210.702Z" fill="#161617"/>
<path d="M243.583 210.518C242.886 211.695 240.691 211.473 238.902 210.203C237.114 208.933 236.345 206.977 237.156 205.868C237.967 204.758 240.062 204.89 241.837 206.183C243.612 207.475 244.394 209.409 243.583 210.518Z" fill="#151516"/>
<path d="M243.316 210.3C242.671 211.388 240.66 211.216 239.031 210.04C237.402 208.864 236.693 207.064 237.402 206.074C238.111 205.084 240.067 205.194 241.696 206.37C243.326 207.546 244.061 209.301 243.316 210.3Z" fill="#141415"/>
<path d="M243.103 210.142C242.524 211.119 240.666 210.948 239.182 209.888C237.698 208.828 237.072 207.198 237.742 206.275C238.412 205.352 240.156 205.456 241.627 206.538C243.098 207.62 243.682 209.166 243.103 210.142Z" fill="#141415"/>
<path d="M242.775 209.917C242.249 210.805 240.603 210.639 239.264 209.695C237.925 208.752 237.361 207.277 237.955 206.429C238.549 205.581 240.128 205.707 241.476 206.686C242.824 207.666 243.393 209.083 242.775 209.917Z" fill="url(#paint19_linear_517_29277)"/>
<path d="M242.517 209.733C242.057 210.51 240.573 210.38 239.392 209.53C238.212 208.681 237.627 207.344 238.237 206.625C238.847 205.907 240.169 206.001 241.349 206.85C242.529 207.7 243.046 208.996 242.517 209.733Z" fill="url(#paint20_linear_517_29277)"/>
<path d="M242.236 209.538C241.828 210.226 240.555 210.102 239.521 209.368C238.486 208.635 238.02 207.459 238.483 206.833C238.945 206.207 240.2 206.261 241.221 207.016C242.243 207.772 242.712 208.89 242.236 209.538Z" fill="url(#paint21_linear_517_29277)"/>
<path d="M241.977 209.353C241.635 209.93 240.537 209.82 239.625 209.189C238.713 208.559 238.353 207.565 238.763 207.028C239.173 206.491 240.216 206.54 241.092 207.179C241.968 207.818 242.377 208.781 241.977 209.353Z" fill="url(#paint22_linear_517_29277)"/>
<path d="M241.709 209.136C241.406 209.647 240.507 209.563 239.753 209.027C239 208.49 238.687 207.675 239.022 207.213C239.357 206.752 240.247 206.799 240.987 207.358C241.727 207.917 242.044 208.675 241.709 209.136Z" fill="url(#paint23_linear_517_29277)"/>
<path d="M241.45 208.955C241.214 209.354 240.467 209.272 239.881 208.865C239.296 208.458 239.021 207.785 239.304 207.412C239.586 207.039 240.265 207.082 240.86 207.524C241.454 207.967 241.697 208.591 241.45 208.955Z" fill="url(#paint24_linear_517_29277)"/>
<path d="M241.169 208.754C240.998 209.042 240.436 209.009 240.009 208.696C239.582 208.383 239.368 207.867 239.562 207.591C239.756 207.316 240.282 207.358 240.732 207.685C241.181 208.011 241.385 208.492 241.169 208.754Z" fill="url(#paint25_linear_517_29277)"/>
<path d="M240.956 208.596C240.838 208.796 240.464 208.755 240.16 208.544C239.856 208.334 239.748 208 239.889 207.814C240.03 207.627 240.359 207.642 240.649 207.874C240.94 208.107 241.075 208.396 240.956 208.596Z" fill="url(#paint26_linear_517_29277)"/>
<path d="M240.629 208.375C240.629 208.375 240.401 208.45 240.243 208.356C240.084 208.262 239.971 208.194 240.102 207.972C240.234 207.751 240.353 207.911 240.499 208.027C240.644 208.144 240.718 208.277 240.629 208.375Z" fill="url(#paint27_linear_517_29277)"/>
</g>
</g>
<defs>
<linearGradient id="paint0_linear_517_29277" x1="214.537" y1="293.648" x2="48.0383" y2="194.946" gradientUnits="userSpaceOnUse">
<stop stop-color="#353E68"/>
<stop offset="0.500292" stop-color="#2F2C46"/>
<stop offset="0.96875" stop-color="#473D5B"/>
</linearGradient>
<linearGradient id="paint1_linear_517_29277" x1="255.486" y1="218.6" x2="94.6004" y2="123.225" gradientUnits="userSpaceOnUse">
<stop stop-color="#353E68"/>
<stop offset="0.500292" stop-color="#2F2C46"/>
<stop offset="0.96875" stop-color="#5E4B6F"/>
</linearGradient>
<linearGradient id="paint2_linear_517_29277" x1="268.404" y1="226.326" x2="93.8816" y2="122.867" gradientUnits="userSpaceOnUse">
<stop stop-color="#111C33"/>
<stop offset="1" stop-color="#2E2230"/>
</linearGradient>
<linearGradient id="paint3_linear_517_29277" x1="136.635" y1="269.272" x2="115.721" y2="256.873" gradientUnits="userSpaceOnUse">
<stop stop-color="#111C33"/>
<stop offset="1" stop-color="#2E2230"/>
</linearGradient>
<linearGradient id="paint4_linear_517_29277" x1="152.097" y1="219.524" x2="102.717" y2="190.251" gradientUnits="userSpaceOnUse">
<stop stop-color="#111C33"/>
<stop offset="1" stop-color="#2E2230"/>
</linearGradient>
<linearGradient id="paint5_linear_517_29277" x1="202.753" y1="249.284" x2="153.614" y2="220.154" gradientUnits="userSpaceOnUse">
<stop stop-color="#111C33"/>
<stop offset="1" stop-color="#2E2230"/>
</linearGradient>
<linearGradient id="paint6_linear_517_29277" x1="175.406" y1="295.417" x2="125.129" y2="265.612" gradientUnits="userSpaceOnUse">
<stop stop-color="#111C33"/>
<stop offset="1" stop-color="#2E2230"/>
</linearGradient>
<linearGradient id="paint7_linear_517_29277" x1="123.351" y1="264.814" x2="75.1528" y2="236.241" gradientUnits="userSpaceOnUse">
<stop stop-color="#111C33"/>
<stop offset="1" stop-color="#2E2230"/>
</linearGradient>
<linearGradient id="paint8_linear_517_29277" x1="149.787" y1="223.111" x2="100.408" y2="193.839" gradientUnits="userSpaceOnUse">
<stop stop-color="#111C33"/>
<stop offset="1" stop-color="#2E2230"/>
</linearGradient>
<linearGradient id="paint9_linear_517_29277" x1="200.571" y1="253.071" x2="151.629" y2="224.058" gradientUnits="userSpaceOnUse">
<stop stop-color="#111C33"/>
<stop offset="1" stop-color="#2E2230"/>
</linearGradient>
<linearGradient id="paint10_linear_517_29277" x1="126.388" y1="141.071" x2="121.202" y2="137.996" gradientUnits="userSpaceOnUse">
<stop stop-color="#111C33"/>
<stop offset="1" stop-color="#2E2230"/>
</linearGradient>
<linearGradient id="paint11_linear_517_29277" x1="126.071" y1="140.886" x2="121.519" y2="138.187" gradientUnits="userSpaceOnUse">
<stop stop-color="#111C33"/>
<stop offset="1" stop-color="#2E2230"/>
</linearGradient>
<linearGradient id="paint12_linear_517_29277" x1="125.776" y1="140.711" x2="121.772" y2="138.337" gradientUnits="userSpaceOnUse">
<stop stop-color="#111C33"/>
<stop offset="1" stop-color="#2E2230"/>
</linearGradient>
<linearGradient id="paint13_linear_517_29277" x1="125.481" y1="140.533" x2="122.046" y2="138.496" gradientUnits="userSpaceOnUse">
<stop stop-color="#111C33"/>
<stop offset="1" stop-color="#2E2230"/>
</linearGradient>
<linearGradient id="paint14_linear_517_29277" x1="125.255" y1="140.402" x2="122.389" y2="138.702" gradientUnits="userSpaceOnUse">
<stop stop-color="#111C33"/>
<stop offset="1" stop-color="#2E2230"/>
</linearGradient>
<linearGradient id="paint15_linear_517_29277" x1="124.893" y1="140.181" x2="122.595" y2="138.819" gradientUnits="userSpaceOnUse">
<stop stop-color="#111C33"/>
<stop offset="1" stop-color="#2E2230"/>
</linearGradient>
<linearGradient id="paint16_linear_517_29277" x1="124.604" y1="139.998" x2="122.875" y2="138.973" gradientUnits="userSpaceOnUse">
<stop stop-color="#111C33"/>
<stop offset="1" stop-color="#2E2230"/>
</linearGradient>
<linearGradient id="paint17_linear_517_29277" x1="124.303" y1="139.84" x2="123.142" y2="139.151" gradientUnits="userSpaceOnUse">
<stop stop-color="#111C33"/>
<stop offset="1" stop-color="#2E2230"/>
</linearGradient>
<linearGradient id="paint18_linear_517_29277" x1="124.016" y1="139.65" x2="123.426" y2="139.3" gradientUnits="userSpaceOnUse">
<stop stop-color="#111C33"/>
<stop offset="1" stop-color="#2E2230"/>
</linearGradient>
<linearGradient id="paint19_linear_517_29277" x1="242.914" y1="209.695" x2="237.983" y2="206.772" gradientUnits="userSpaceOnUse">
<stop stop-color="#111C33"/>
<stop offset="1" stop-color="#2E2230"/>
</linearGradient>
<linearGradient id="paint20_linear_517_29277" x1="242.64" y1="209.535" x2="238.249" y2="206.932" gradientUnits="userSpaceOnUse">
<stop stop-color="#111C33"/>
<stop offset="1" stop-color="#2E2230"/>
</linearGradient>
<linearGradient id="paint21_linear_517_29277" x1="242.347" y1="209.361" x2="238.511" y2="207.087" gradientUnits="userSpaceOnUse">
<stop stop-color="#111C33"/>
<stop offset="1" stop-color="#2E2230"/>
</linearGradient>
<linearGradient id="paint22_linear_517_29277" x1="242.072" y1="209.197" x2="238.784" y2="207.248" gradientUnits="userSpaceOnUse">
<stop stop-color="#111C33"/>
<stop offset="1" stop-color="#2E2230"/>
</linearGradient>
<linearGradient id="paint23_linear_517_29277" x1="241.779" y1="209.024" x2="239.039" y2="207.4" gradientUnits="userSpaceOnUse">
<stop stop-color="#111C33"/>
<stop offset="1" stop-color="#2E2230"/>
</linearGradient>
<linearGradient id="paint24_linear_517_29277" x1="241.505" y1="208.864" x2="239.314" y2="207.565" gradientUnits="userSpaceOnUse">
<stop stop-color="#111C33"/>
<stop offset="1" stop-color="#2E2230"/>
</linearGradient>
<linearGradient id="paint25_linear_517_29277" x1="241.213" y1="208.689" x2="239.567" y2="207.714" gradientUnits="userSpaceOnUse">
<stop stop-color="#111C33"/>
<stop offset="1" stop-color="#2E2230"/>
</linearGradient>
<linearGradient id="paint26_linear_517_29277" x1="240.984" y1="208.549" x2="239.889" y2="207.899" gradientUnits="userSpaceOnUse">
<stop stop-color="#111C33"/>
<stop offset="1" stop-color="#2E2230"/>
</linearGradient>
<linearGradient id="paint27_linear_517_29277" x1="240.653" y1="208.341" x2="240.104" y2="208.015" gradientUnits="userSpaceOnUse">
<stop stop-color="#111C33"/>
<stop offset="1" stop-color="#2E2230"/>
</linearGradient>
</defs>
</svg>
