<svg width="96" height="21" viewBox="0 0 96 21" fill="none" xmlns="http://www.w3.org/2000/svg">
<path d="M19.6856 20.7259C20.9218 20.7259 22.1054 20.5426 22.9733 19.9404C23.21 19.7834 23.4204 19.5739 23.6045 19.3644C23.8412 19.0241 24.0254 19.155 24.0254 19.6524V19.8881C24.0254 20.2284 24.2095 20.4117 24.5514 20.4117H27.918C28.2599 20.4117 28.444 20.2284 28.444 19.8881V13.3688C28.444 10.6197 28.444 8.28953 26.6029 6.71863C25.4193 5.69753 23.7097 5.25244 21.9739 5.25244C19.1333 5.25244 16.2139 6.64008 15.4511 9.93899C15.3722 10.3055 15.5563 10.515 15.9245 10.515H19.2648C19.5804 10.515 19.7383 10.3579 19.8435 10.0699C20.2117 9.10117 21.0533 8.55135 21.9476 8.55135C22.6051 8.55135 23.1048 8.70844 23.4467 9.07499C23.7097 9.36299 23.8938 9.7819 23.9991 10.2794C24.0517 10.6197 23.8675 10.8292 23.5519 10.8815L20.1854 11.4837C19.0544 11.6932 17.713 11.9812 16.661 12.6619C15.5826 13.3688 14.7936 14.4684 14.7936 16.2488C14.7936 19.2335 17.0029 20.7259 19.6856 20.7259ZM20.9744 17.4008C20.0276 17.4008 19.2122 17.0343 19.2122 16.0917C19.2122 15.6728 19.37 15.3848 19.6067 15.1492C19.975 14.8088 20.4484 14.6255 21.4215 14.4423L23.5256 14.0234C23.8938 13.9448 24.1306 14.1543 24.1043 14.5208C23.9728 15.7775 23.6308 16.563 22.5788 17.0343C22.0528 17.2699 21.4741 17.4008 20.9744 17.4008Z" fill="#F8F8F8"/>
<path d="M73.3536 20.7254C76.878 20.7254 79.6396 18.9189 80.5602 15.8294C80.6391 15.489 80.455 15.2796 80.0867 15.2796H76.352C76.0626 15.2796 75.8522 15.4367 75.747 15.7247C75.3788 16.6672 74.6687 17.217 73.3536 17.217C71.381 17.217 70.1448 15.5938 70.1448 12.897C70.1448 10.305 71.381 8.73414 73.3536 8.73414C74.5109 8.73414 75.2473 9.17923 75.6681 10.0956C75.7996 10.3836 75.9837 10.5145 76.2731 10.5145L80.0604 10.5145C80.4287 10.5145 80.6128 10.2789 80.5076 9.9385C79.5607 7.0585 76.878 5.25195 73.3536 5.25195C68.6719 5.25195 65.5947 8.34141 65.5947 12.897C65.5947 17.636 68.6982 20.7254 73.3536 20.7254Z" fill="#F8F8F8"/>
<path d="M59.3324 0.437988C59.0782 0.437988 58.8721 0.643123 58.8721 0.89617V3.65714C58.8721 3.91019 59.0782 4.11532 59.3324 4.11532H62.8303C63.0845 4.11532 63.2906 3.91019 63.2906 3.65714V0.89617C63.2906 0.643123 63.0845 0.437988 62.8303 0.437988H59.3324Z" fill="#F8F8F8"/>
<path d="M63.2907 19.8877C63.2907 20.228 63.1066 20.4113 62.7647 20.4113H59.3982C59.0562 20.4113 58.8721 20.228 58.8721 19.8877L58.8721 6.08986C58.8721 5.7495 59.0562 5.56623 59.3982 5.56623H62.7647C63.1066 5.56623 63.2907 5.7495 63.2907 6.08986V19.8877Z" fill="#F8F8F8"/>
<path d="M51.924 5.71013C51.924 5.45709 52.1301 5.25195 52.3843 5.25195H56.3991C56.6533 5.25195 56.8594 5.45709 56.8594 5.71013V8.9789C56.8594 9.23195 56.6533 9.43708 56.3991 9.43708H52.8461C52.5919 9.43708 52.3858 9.64222 52.3858 9.89527V19.9541C52.3858 20.2071 52.1798 20.4122 51.9256 20.4122H48.4371C48.1829 20.4122 47.9769 20.2071 47.9769 19.9541V9.20722C47.9769 8.95418 48.1829 8.74904 48.4371 8.74904H51.4637C51.7179 8.74904 51.924 8.54391 51.924 8.29086V5.71013Z" fill="#F8F8F8"/>
<path d="M39.0719 20.7274C42.8856 20.7274 45.5683 17.5333 45.5683 12.9776C45.5683 8.44816 42.8856 5.25398 39.0719 5.25398C37.7831 5.25398 36.7311 5.54198 35.8369 6.43216C35.5212 6.77253 35.2582 6.72016 35.2582 6.24889V0.960159C35.2582 0.619795 35.0741 0.436523 34.7322 0.436523L31.3656 0.436523C31.0237 0.436523 30.8396 0.619795 30.8396 0.960159L30.8396 19.8896C30.8396 20.23 31.0237 20.4133 31.3656 20.4133H34.7322C35.0741 20.4133 35.2582 20.23 35.2582 19.8896V19.6016C35.2582 19.2089 35.5212 19.2089 35.8369 19.5493C36.7311 20.4394 37.7831 20.7274 39.0719 20.7274ZM37.8358 16.9834C35.8895 16.9834 34.5744 15.3863 34.5744 12.9776C34.5744 10.5951 35.8895 8.99798 37.8358 8.99798C39.8084 8.99798 41.0971 10.6474 41.0971 12.9776C41.0971 15.334 39.8084 16.9834 37.8358 16.9834Z" fill="#F8F8F8"/>
<path d="M87.1496 20.7254C88.3858 20.7254 89.5693 20.5421 90.4373 19.94C90.674 19.7829 90.8844 19.5734 91.0685 19.364C91.3052 19.0236 91.4894 19.1545 91.4894 19.652V19.8876C91.4894 20.228 91.6735 20.4112 92.0154 20.4112H95.382C95.7239 20.4112 95.908 20.228 95.908 19.8876V13.3683C95.908 10.6192 95.908 8.28905 94.0669 6.71814C92.8833 5.69705 91.1737 5.25195 89.4378 5.25195C86.5973 5.25195 83.6778 6.63959 82.9151 9.9385C82.8362 10.305 83.0203 10.5145 83.3885 10.5145H86.7288C87.0444 10.5145 87.2022 10.3574 87.3074 10.0694C87.6757 9.10068 88.5173 8.55086 89.4115 8.55086C90.0691 8.55086 90.5688 8.70795 90.9107 9.0745C91.1737 9.3625 91.3578 9.78141 91.463 10.2789C91.5156 10.6192 91.3315 10.8287 91.0159 10.881L87.6493 11.4832C86.5184 11.6927 85.177 11.9807 84.125 12.6614C83.0466 13.3683 82.2576 14.468 82.2576 16.2483C82.2576 19.233 84.4669 20.7254 87.1496 20.7254ZM88.4384 17.4003C87.4915 17.4003 86.6762 17.0338 86.6762 16.0912C86.6762 15.6723 86.834 15.3843 87.0707 15.1487C87.4389 14.8083 87.9124 14.625 88.8855 14.4418L90.9896 14.0229C91.3578 13.9443 91.5946 14.1538 91.5683 14.5203C91.4367 15.777 91.0948 16.5625 90.0428 17.0338C89.5167 17.2694 88.9381 17.4003 88.4384 17.4003Z" fill="#F8F8F8"/>
<path d="M4.53321 0.894705C4.53321 0.641658 4.73929 0.436523 4.99349 0.436523L14.4662 0.436523C14.7204 0.436523 14.9265 0.641658 14.9265 0.894705V5.06369C14.9265 5.31674 14.7204 5.52187 14.4662 5.52187L5.21261 5.52315C4.95841 5.52315 4.75234 5.72829 4.75234 5.98133V8.32861C4.75234 8.57655 4.95017 8.77849 5.19727 8.78654H12.5059C12.7601 8.78654 12.9662 8.99168 12.9662 9.24472V13.5511C12.9662 13.8041 12.7601 14.0092 12.5059 14.0092H5.3725C5.1183 14.0092 4.91223 14.2144 4.91223 14.4674V19.9543C4.91223 20.2074 4.70616 20.4125 4.45195 20.4125H0.624642C0.370439 20.4125 0.164368 20.2074 0.164368 19.9543L0.164368 13.7426C0.164368 13.4895 0.370439 13.2844 0.624642 13.2844H4.06876C4.32297 13.2844 4.52904 13.0792 4.52904 12.8262V10.2415C4.52904 9.9885 4.32297 9.78336 4.06876 9.78336H0.624642C0.370439 9.78336 0.164368 9.57823 0.164368 9.32518V5.01885C0.164368 4.76581 0.370439 4.56067 0.624642 4.56067H4.07294C4.32714 4.56067 4.53321 4.35554 4.53321 4.10249L4.53321 0.894705Z" fill="#F8F8F8"/>
</svg>
