<svg width="52" height="52" viewBox="0 0 52 52" fill="none" xmlns="http://www.w3.org/2000/svg">
<rect width="52" height="52" rx="8" fill="#106EEA"/>
<path d="M35 24C35 31 26 37 26 37C26 37 17 31 17 24C17 21.6131 17.9482 19.3239 19.636 17.636C21.3239 15.9482 23.6131 15 26 15C28.3869 15 30.6761 15.9482 32.364 17.636C34.0518 19.3239 35 21.6131 35 24Z" stroke="white" stroke-width="2" stroke-linecap="round" stroke-linejoin="round"/>
<path d="M26 27C27.6569 27 29 25.6569 29 24C29 22.3431 27.6569 21 26 21C24.3431 21 23 22.3431 23 24C23 25.6569 24.3431 27 26 27Z" stroke="white" stroke-width="2" stroke-linecap="round" stroke-linejoin="round"/>
</svg>
