<svg width="260" height="245" viewBox="0 0 260 245" fill="none" xmlns="http://www.w3.org/2000/svg">
<g clip-path="url(#clip0_306_504)">
<path d="M154.239 107.626C149.778 105.579 144.993 104.071 139.991 103.207C139.9 103.19 139.809 103.232 139.762 103.315C139.147 104.41 138.465 105.837 137.988 106.96C132.608 106.154 127.255 106.154 121.985 106.96C121.508 105.812 120.801 104.41 120.183 103.315C120.136 103.235 120.045 103.193 119.954 103.207C114.955 104.068 110.17 105.576 105.706 107.626C105.667 107.643 105.634 107.671 105.612 107.707C96.5372 121.265 94.0512 134.489 95.2707 147.55C95.2762 147.613 95.3121 147.675 95.3618 147.713C101.349 152.11 107.149 154.78 112.841 156.549C112.932 156.577 113.029 156.544 113.087 156.468C114.433 154.63 115.633 152.691 116.662 150.652C116.723 150.533 116.665 150.391 116.541 150.344C114.637 149.622 112.824 148.741 111.081 147.741C110.943 147.661 110.932 147.463 111.059 147.369C111.426 147.094 111.793 146.808 112.143 146.519C112.206 146.466 112.295 146.455 112.369 146.488C123.825 151.719 136.228 151.719 147.548 146.488C147.623 146.452 147.711 146.463 147.777 146.516C148.128 146.805 148.495 147.094 148.865 147.369C148.991 147.463 148.983 147.661 148.845 147.741C147.101 148.761 145.289 149.622 143.382 150.341C143.258 150.388 143.203 150.533 143.264 150.652C144.315 152.688 145.515 154.627 146.837 156.466C146.892 156.544 146.991 156.577 147.082 156.549C152.802 154.78 158.602 152.11 164.589 147.713C164.641 147.675 164.675 147.616 164.68 147.552C166.14 132.453 162.235 119.337 154.33 107.71C154.311 107.671 154.278 107.643 154.239 107.626ZM118.373 139.597C114.924 139.597 112.082 136.431 112.082 132.542C112.082 128.653 114.869 125.487 118.373 125.487C121.905 125.487 124.719 128.681 124.664 132.542C124.664 136.431 121.877 139.597 118.373 139.597ZM141.633 139.597C138.184 139.597 135.342 136.431 135.342 132.542C135.342 128.653 138.129 125.487 141.633 125.487C145.165 125.487 147.979 128.681 147.924 132.542C147.924 136.431 145.165 139.597 141.633 139.597Z" fill="#5865F2"/>
</g>
<g filter="url(#filter0_f_306_504)">
<circle cx="129.981" cy="130.506" r="40.9388" fill="#5865F2"/>
</g>
<defs>
<filter id="filter0_f_306_504" x="0.0422363" y="0.567627" width="259.878" height="259.877" filterUnits="userSpaceOnUse" color-interpolation-filters="sRGB">
<feFlood flood-opacity="0" result="BackgroundImageFix"/>
<feBlend mode="normal" in="SourceGraphic" in2="BackgroundImageFix" result="shape"/>
<feGaussianBlur stdDeviation="44.5" result="effect1_foregroundBlur_306_504"/>
</filter>
<clipPath id="clip0_306_504">
<rect width="70" height="70" fill="white" transform="translate(94.9814 95.5059)"/>
</clipPath>
</defs>
</svg>
