<svg width="62" height="35" viewBox="0 0 62 35" fill="none" xmlns="http://www.w3.org/2000/svg">
<g clip-path="url(#clip0_27_410)">
<mask id="mask0_27_410" style="mask-type:luminance" maskUnits="userSpaceOnUse" x="0" y="0" width="62" height="35">
<path d="M0 0H62V35H0V0Z" fill="white"/>
</mask>
<g mask="url(#mask0_27_410)">
<path fill-rule="evenodd" clip-rule="evenodd" d="M41.9792 2.05566C38.5547 2.05566 35.4157 2.65932 32.562 3.86663C29.7142 5.0694 27.5166 6.8327 25.9691 9.15655C24.4275 11.4759 23.6567 14.1946 23.6567 17.3127C23.6567 20.1721 24.3393 22.8477 25.7043 25.3395C27.0753 27.8313 29.0699 29.7353 31.6882 31.0515C34.3125 32.3632 37.7163 33.0191 41.8997 33.0191C45.942 33.0191 49.3605 32.1658 52.1554 30.4592C54.9561 28.7481 56.8948 26.2654 57.9716 23.0111L52.8349 22.0103C52.1289 24.5293 50.7785 26.4288 48.7839 27.7087C46.7892 28.9886 44.3533 29.6286 41.4761 29.6286C39.1108 29.6286 36.9131 29.1588 34.8832 28.2193C32.8533 27.2798 31.3558 25.8614 30.3909 23.9642C29.4318 22.0625 28.9522 19.8385 28.9522 17.2923C28.9522 15.3179 29.3582 13.4026 30.1702 11.5462C30.9822 9.68531 32.3884 8.20341 34.389 7.10049C36.3954 5.99757 38.8901 5.44612 41.8733 5.44612C44.4681 5.44612 46.6216 5.94311 48.3338 6.9371C50.046 7.93108 51.3522 9.51738 52.2524 11.696L57.3096 10.7769C56.2682 8.01278 54.4236 5.86822 51.7758 4.3432C49.1281 2.81818 45.8625 2.05566 41.9792 2.05566Z" fill="#F8F7FA"/>
<path fill-rule="evenodd" clip-rule="evenodd" d="M23.2774 3.15723V23.3794C23.2774 25.0613 23.041 26.2871 22.5681 27.0568C22.0952 27.8221 21.2322 28.4294 19.9791 28.8788C18.726 29.3238 17.2365 29.5462 15.5105 29.5462C13.1698 29.5462 11.3375 29.1324 10.0134 28.3049C8.6894 27.4773 7.94463 25.9423 7.77913 23.6998L1.57272 24.1803C1.47815 27.1035 2.64062 29.306 5.06013 30.7876C7.48752 32.2692 10.9828 33.01 15.546 33.01C18.6196 33.01 21.2953 32.6563 23.573 31.9489C25.8585 31.2414 27.5253 30.2136 28.5735 28.8655C29.6296 27.5173 30.1577 25.6152 30.1577 23.1592V3.15723L23.2774 3.15723Z" fill="#F8F7FA"/>
<path fill-rule="evenodd" clip-rule="evenodd" d="M34.1592 10.9106H40.4514V15.2141H34.1592V10.9106Z" fill="#E06666"/>
<path fill-rule="evenodd" clip-rule="evenodd" d="M40.4512 10.9105L41.9032 9.47607V13.7795L40.4512 15.214V10.9105Z" fill="#B35151"/>
<path fill-rule="evenodd" clip-rule="evenodd" d="M34.1592 10.9105L35.6112 9.47607H41.9034L40.4514 10.9105H34.1592Z" fill="#E68484"/>
<path fill-rule="evenodd" clip-rule="evenodd" d="M34.1592 21.8359H40.4514V26.1393H34.1592V21.8359Z" fill="#3C78D8"/>
<path fill-rule="evenodd" clip-rule="evenodd" d="M40.4512 21.8358L41.9032 20.4014V24.7048L40.4512 26.1392V21.8358Z" fill="#2F5FAC"/>
<path fill-rule="evenodd" clip-rule="evenodd" d="M34.1592 21.8358L35.6112 20.4014H41.9034L40.4514 21.8358H34.1592Z" fill="#6393DF"/>
<path fill-rule="evenodd" clip-rule="evenodd" d="M43.8115 16.6484H50.1037V20.9518H43.8115V16.6484Z" fill="#93C47D"/>
<path fill-rule="evenodd" clip-rule="evenodd" d="M50.1035 16.6488L51.5556 15.2144V19.5178L50.1035 20.9522V16.6488Z" fill="#759C63"/>
<path fill-rule="evenodd" clip-rule="evenodd" d="M43.8115 16.6488L45.2636 15.2144H51.5557L50.1037 16.6488H43.8115Z" fill="#A8CF97"/>
<path fill-rule="evenodd" clip-rule="evenodd" d="M11.9507 16.0977H18.2429V20.4011H11.9507V16.0977Z" fill="#F1C232"/>
<path fill-rule="evenodd" clip-rule="evenodd" d="M18.2432 16.0976L19.6952 14.6631V18.9665L18.2432 20.401V16.0976Z" fill="#C09B27"/>
<path fill-rule="evenodd" clip-rule="evenodd" d="M11.9507 16.0976L13.4027 14.6631H19.6949L18.2429 16.0976H11.9507Z" fill="#F3CE5B"/>
</g>
</g>
<defs>
<clipPath id="clip0_27_410">
<rect width="62" height="35" fill="white"/>
</clipPath>
</defs>
</svg>
