<svg version="1.1" viewBox="0.0 0.0 568.3438320209974 565.5826771653543" fill="none" stroke="none" stroke-linecap="square" stroke-miterlimit="10" xmlns:xlink="http://www.w3.org/1999/xlink" xmlns="http://www.w3.org/2000/svg"><clipPath id="p.0"><path d="m0 0l568.3438 0l0 565.5827l-568.3438 0l0 -565.5827z" clip-rule="nonzero"/></clipPath><g clip-path="url(#p.0)"><path fill="#000000" fill-opacity="0.0" d="m0 0l568.3438 0l0 565.5827l-568.3438 0z" fill-rule="evenodd"/><path fill="#000000" fill-opacity="0.0" d="m0 0l567.2756 0l0 566.1732l-567.2756 0z" fill-rule="evenodd"/><path fill="#666666" d="m398.81863 135.7756c-32.19989 0 -61.71646 5.745697 -88.54971 17.237091c-26.777924 11.448181 -47.44232 28.231659 -61.993134 50.350433c-14.495483 22.075577 -21.743225 47.952805 -21.743225 77.63168c0 27.216461 6.4178467 52.68329 19.253555 76.40048c12.891037 23.717194 31.646652 41.839874 56.26683 54.368103c24.675537 12.484985 56.681793 18.727509 96.0188 18.727509c38.009155 0 70.15375 -8.121765 96.43375 -24.365204c26.335327 -16.286682 44.565308 -39.91748 54.690002 -70.892395l-48.299835 -9.525757c-6.63916 23.97641 -19.336548 42.05591 -38.092163 54.238525c-18.755615 12.182587 -41.660675 18.273895 -68.71524 18.273895c-22.24118 0 -42.90555 -4.471283 -61.993134 -13.413818c-19.087555 -8.942566 -33.16809 -22.44278 -42.241608 -40.50067c-9.018188 -18.101135 -13.527283 -39.26947 -13.527283 -63.505066c0 -18.792297 3.817505 -37.02301 11.452545 -54.69211c7.63501 -17.712296 20.858002 -31.817322 39.668945 -42.31511c18.866272 -10.497772 42.324615 -15.746658 70.37506 -15.746658c24.398895 0 44.648315 4.730484 60.74826 14.191437c16.099945 9.460953 28.382385 24.559616 36.84732 45.29596l47.552948 -8.748154c-9.792725 -26.309235 -27.137573 -46.721573 -52.034393 -61.237015c-24.89682 -14.515442 -55.602905 -21.773163 -92.118286 -21.773163z" fill-rule="evenodd"/><path fill="#666666" d="m222.9632 146.26276l0 192.47882c0 16.008148 -2.2231903 27.675446 -6.669586 35.001923c-4.446396 7.2841187 -12.561066 13.06485 -24.34401 17.342163c-11.782944 4.234955 -25.789093 6.3524475 -42.018433 6.3524475c-22.009651 0 -39.239426 -3.938507 -51.68933 -11.815552c-12.449905 -7.877014 -19.452972 -22.48761 -21.009216 -43.831787l-58.358925 4.5737305c-0.8892784 27.82367 10.041445 48.786713 32.79216 62.88913c22.824821 14.102417 55.691086 21.153625 98.59879 21.153625c28.901566 0 54.060745 -3.3667908 75.47754 -10.100372c21.490906 -6.7335815 37.16446 -16.516357 47.02063 -29.348267c9.930267 -12.831909 14.895416 -30.93637 14.895416 -54.313324l0 -190.38254z" fill-rule="evenodd"/><path fill="#e06666" d="m325.2848 220.06168l59.165344 0l0 40.960632l-59.165344 0z" fill-rule="evenodd"/><path fill="#b35151" d="m384.45013 220.06168l13.653534 -13.653534l0 40.960617l-13.653534 13.653549z" fill-rule="evenodd"/><path fill="#e68484" d="m325.2848 220.06168l13.653534 -13.653534l59.165344 0l-13.653534 13.653534z" fill-rule="evenodd"/><path fill="#000000" fill-opacity="0.0" d="m325.2848 220.06168l13.653534 -13.653534l59.165344 0l0 40.960617l-13.653534 13.653549l-59.165344 0zm0 0l59.165344 0l13.653534 -13.653534m-13.653534 13.653534l0 40.960632" fill-rule="evenodd"/><path fill="#3c78d8" d="m325.2861 324.04855l59.165344 0l0 40.960632l-59.165344 0z" fill-rule="evenodd"/><path fill="#2f5fac" d="m384.45145 324.04855l13.653534 -13.653534l0 40.960632l-13.653534 13.653534z" fill-rule="evenodd"/><path fill="#6393df" d="m325.2861 324.04855l13.653534 -13.653534l59.165344 0l-13.653534 13.653534z" fill-rule="evenodd"/><path fill="#000000" fill-opacity="0.0" d="m325.2861 324.04855l13.653534 -13.653534l59.165344 0l0 40.960632l-13.653534 13.653534l-59.165344 0zm0 0l59.165344 0l13.653534 -13.653534m-13.653534 13.653534l0 40.960632" fill-rule="evenodd"/><path fill="#93c47d" d="m416.04724 274.67584l59.165344 0l0 40.960632l-59.165344 0z" fill-rule="evenodd"/><path fill="#759c63" d="m475.2126 274.67584l13.653564 -13.653534l0 40.960632l-13.653564 13.653534z" fill-rule="evenodd"/><path fill="#a8cf97" d="m416.04724 274.67584l13.653534 -13.653534l59.165375 0l-13.653564 13.653534z" fill-rule="evenodd"/><path fill="#000000" fill-opacity="0.0" d="m416.04724 274.67584l13.653534 -13.653534l59.165375 0l0 40.960632l-13.653564 13.653534l-59.165344 0zm0 0l59.165344 0l13.653564 -13.653534m-13.653564 13.653534l0 40.960632" fill-rule="evenodd"/><path fill="#f1c232" d="m116.46063 269.43307l59.16536 0l0 40.960632l-59.16536 0z" fill-rule="evenodd"/><path fill="#c09b27" d="m175.62599 269.43307l13.653534 -13.653549l0 40.960617l-13.653534 13.653564z" fill-rule="evenodd"/><path fill="#f3ce5b" d="m116.46063 269.43307l13.653534 -13.653549l59.16536 0l-13.653534 13.653549z" fill-rule="evenodd"/><path fill="#000000" fill-opacity="0.0" d="m116.46063 269.43307l13.653534 -13.653549l59.16536 0l0 40.960617l-13.653534 13.653564l-59.16536 0zm0 0l59.16536 0l13.653534 -13.653549m-13.653534 13.653549l0 40.960632" fill-rule="evenodd"/></g></svg>