<?xml version="1.0" standalone="no"?>
<!DOCTYPE svg PUBLIC "-//W3C//DTD SVG 20010904//EN"
 "http://www.w3.org/TR/2001/REC-SVG-20010904/DTD/svg10.dtd">
<svg version="1.0" xmlns="http://www.w3.org/2000/svg"
 width="567.000000pt" height="567.000000pt" viewBox="0 0 567.000000 567.000000"
 preserveAspectRatio="xMidYMid meet">
<metadata>
Created by potrace 1.14, written by Peter Selinger 2001-2017
</metadata>
<g transform="translate(0.000000,567.000000) scale(0.100000,-0.100000)"
fill="#000000" stroke="none">
<path d="M3867 5514 c-1 -1 -38 -4 -82 -8 -102 -7 -229 -24 -280 -38 -22 -5
-51 -12 -65 -15 -111 -19 -336 -103 -467 -173 -51 -27 -94 -46 -96 -42 -2 4
-3 55 -2 115 l0 107 -25 1 c-106 3 -612 0 -615 -3 -3 -3 -5 -459 -6 -1014 -1
-1096 -1 -1115 -56 -1230 -78 -165 -354 -266 -702 -258 -58 1 -122 5 -141 7
-96 14 -130 21 -181 37 -211 67 -318 187 -356 398 -8 48 -17 93 -19 100 -2 8
-18 11 -51 8 -26 -3 -86 -8 -133 -11 -47 -3 -103 -7 -125 -10 -22 -2 -85 -7
-140 -10 -142 -9 -134 -4 -130 -83 5 -85 12 -124 32 -187 79 -249 295 -421
638 -509 99 -25 123 -30 200 -41 22 -3 51 -8 65 -10 62 -11 219 -18 370 -18
530 0 933 109 1155 314 l44 41 58 -50 c202 -172 475 -287 795 -332 238 -34
595 -34 794 0 493 83 859 334 1057 725 46 91 80 186 70 195 -4 4 -37 13 -73
20 -101 19 -102 19 -156 30 -28 6 -61 13 -75 15 -13 3 -57 11 -96 19 l-73 14
-11 -42 c-15 -58 -80 -195 -125 -263 -48 -72 -153 -177 -227 -226 -311 -207
-780 -251 -1185 -113 -115 39 -255 112 -309 161 -6 5 -30 26 -53 45 -59 48
-132 144 -178 231 l-39 74 1 570 2 570 50 80 c77 124 136 186 249 267 239 170
583 247 955 213 374 -34 640 -207 781 -510 17 -36 35 -67 39 -70 7 -4 77 7
190 30 14 3 82 15 153 27 146 24 139 13 82 133 -180 376 -573 632 -1075 700
-97 14 -423 28 -433 19z"/>
<path d="M3317 4741 l-67 -69 0 -204 0 -205 295 0 295 0 68 71 69 71 -1 200
-1 200 -296 3 -295 2 -67 -69z"/>
<path d="M1234 4249 l-66 -67 0 -193 c0 -107 1 -200 1 -206 1 -10 67 -13 294
-13 l293 0 70 73 70 72 -2 185 c-1 102 -2 192 -3 201 -1 13 -36 15 -296 15
l-295 0 -66 -67z"/>
<path d="M4308 4262 c-18 -2 -47 -25 -90 -71 l-63 -68 0 -199 1 -199 294 -2
295 -3 25 24 c14 12 45 43 69 69 l44 46 1 191 c0 106 -2 197 -6 203 -6 9 -496
17 -570 9z"/>
<path d="M3317 3702 l-67 -68 2 -204 3 -205 293 0 293 0 69 70 68 71 -1 199
-2 200 -295 3 -295 2 -68 -68z"/>
<path d="M2628 2510 c-88 -16 -134 -88 -125 -198 5 -71 23 -103 76 -139 36
-25 111 -26 150 -2 22 13 67 87 58 95 -2 2 -17 6 -33 9 -25 5 -31 2 -46 -24
-21 -38 -59 -49 -94 -27 -32 22 -44 54 -44 120 0 42 5 58 25 80 33 36 88 36
112 0 14 -21 22 -25 47 -20 41 9 42 11 15 51 -29 41 -87 64 -141 55z"/>
<path d="M1803 2374 c-1 -106 -5 -140 -16 -151 -20 -21 -55 -8 -63 23 -5 19
-13 24 -36 24 -30 0 -30 -1 -25 -37 8 -47 32 -71 79 -78 51 -8 103 17 117 57
6 17 11 91 11 164 l0 134 -33 0 -32 0 -2 -136z"/>
<path d="M2223 2333 l-1 -173 34 0 c28 0 32 3 27 18 -6 16 -5 16 13 1 31 -27
60 -31 99 -15 44 19 65 63 61 132 -4 91 -70 143 -137 110 -18 -9 -33 -16 -33
-16 -1 0 -1 26 0 59 l1 59 -32 -1 -31 -1 -1 -173z m158 5 c25 -47 7 -121 -31
-131 -34 -9 -60 25 -60 78 0 74 61 109 91 53z"/>
<path d="M3605 2480 c-17 -11 -30 -28 -30 -40 0 -11 -6 -25 -14 -30 -20 -12
-25 -50 -6 -50 17 0 17 0 19 -90 1 -36 5 -75 9 -87 8 -22 39 -35 72 -28 11 2
23 4 26 4 4 1 6 11 5 24 -1 15 -8 23 -23 25 -22 3 -23 8 -23 78 0 65 2 74 18
74 25 0 31 7 25 31 -3 10 -14 19 -24 19 -14 0 -19 9 -21 45 l-3 45 -30 -20z"/>
<path d="M1998 2403 c-83 -33 -94 -191 -16 -231 122 -62 233 49 178 178 -24
56 -96 79 -162 53z m96 -65 c35 -50 9 -128 -43 -128 -16 0 -35 7 -42 16 -17
21 -17 97 0 118 20 24 67 20 85 -6z"/>
<path d="M2940 2413 c-8 -4 -21 -13 -28 -22 -10 -13 -12 -14 -10 -1 2 10 -7
16 -27 18 l-30 3 -1 -126 -1 -125 33 0 32 0 4 90 c3 95 12 112 50 102 14 -3
21 1 25 17 3 11 8 21 12 21 12 0 92 -237 85 -253 -3 -10 -20 -21 -37 -25 -36
-9 -44 -24 -22 -45 23 -23 88 -8 106 24 13 25 109 298 109 311 0 5 -14 8 -31
6 -29 -3 -32 -7 -58 -88 l-28 -85 -28 88 -29 87 -42 0 c-23 0 -48 2 -56 4 -7
3 -20 2 -28 -1z"/>
<path d="M3371 2399 c-27 -16 -32 -17 -28 -5 5 13 -1 16 -26 16 l-32 0 0 -172
0 -173 33 -3 32 -3 0 62 c0 54 2 60 15 49 21 -18 89 -17 110 0 43 36 58 135
29 191 -13 26 -65 59 -91 59 -4 0 -23 -9 -42 -21z m69 -54 c20 -24 18 -100 -4
-124 -15 -16 -23 -18 -44 -10 -15 6 -30 16 -34 22 -12 19 -9 85 4 107 15 24
60 27 78 5z"/>
<path d="M276 1869 c1 -93 4 -173 8 -176 3 -4 47 -6 96 -5 119 2 141 16 154
98 4 25 -19 70 -39 78 -15 5 -14 9 4 32 28 35 27 76 -3 110 -22 27 -28 28
-122 31 l-99 3 1 -171z m165 101 c21 -12 25 -40 7 -58 -7 -7 -34 -12 -60 -12
l-48 0 0 40 0 40 41 0 c22 0 49 -5 60 -10z m13 -146 c39 -39 3 -82 -66 -79
l-43 2 -3 46 -3 47 50 0 c32 0 55 -6 65 -16z"/>
<path d="M589 2026 c-6 -88 -2 -329 6 -332 52 -17 50 -23 50 168 l0 177 -27
-1 c-16 -1 -28 -6 -29 -12z"/>
<path d="M1208 2028 c-3 -7 -4 -85 -4 -172 l1 -160 28 -7 c28 -8 33 2 28 53
-1 10 4 27 13 39 14 21 15 20 42 -32 31 -62 37 -68 69 -62 l23 5 -40 78 -41
78 38 46 37 46 -33 0 c-28 0 -41 -8 -71 -42 l-36 -43 0 70 c0 118 0 115 -26
115 -13 0 -26 -6 -28 -12z"/>
<path d="M1682 1866 c-1 -175 2 -188 39 -179 16 5 19 15 19 79 0 110 27 157
68 116 15 -15 18 -34 18 -103 -1 -88 8 -107 45 -88 25 13 19 204 -7 229 -25
25 -68 32 -91 15 -29 -23 -33 -18 -33 45 0 60 0 60 -29 58 l-28 -2 -1 -170z"/>
<path d="M2184 2031 c-8 -9 -4 -51 6 -52 41 -5 45 -3 48 28 3 30 1 33 -23 31
-14 -1 -28 -4 -31 -7z"/>
<path d="M2711 2014 c-26 -21 -31 -33 -31 -69 0 -36 5 -48 30 -68 16 -14 52
-33 79 -42 59 -19 72 -32 60 -62 -17 -46 -102 -38 -114 10 -6 23 -15 26 -57
18 -28 -4 12 -85 52 -106 104 -54 219 37 176 140 -15 35 -34 47 -121 77 -28
10 -41 20 -43 36 -7 44 77 50 96 7 9 -19 17 -23 39 -19 15 3 28 6 29 7 0 1 -3
17 -8 34 -17 65 -128 87 -187 37z"/>
<path d="M3855 2032 c-3 -3 -5 -17 -5 -32 0 -23 4 -27 28 -25 23 1 27 6 30 32
3 27 0 31 -22 31 -14 0 -28 -3 -31 -6z"/>
<path d="M4469 2038 c-1 -2 -2 -79 -3 -173 -1 -144 1 -171 14 -176 21 -9 40 0
40 18 0 11 6 10 26 -6 35 -28 63 -26 96 4 49 45 52 166 5 213 -27 26 -80 33
-100 13 -20 -20 -23 -12 -23 47 1 55 0 57 -26 60 -16 2 -29 2 -29 0z m139
-166 c20 -26 15 -99 -9 -123 -18 -18 -23 -19 -42 -6 -38 25 -44 102 -10 139
16 18 41 14 61 -10z"/>
<path d="M4730 2005 c0 -31 3 -34 23 -31 12 3 25 5 30 5 4 1 7 15 7 31 0 27
-3 30 -30 30 -28 0 -30 -3 -30 -35z"/>
<path d="M4850 1866 c0 -181 2 -189 42 -178 15 4 17 22 17 178 l-1 174 -29 0
-29 0 0 -174z"/>
<path d="M4970 2005 c0 -32 6 -35 52 -26 4 0 6 14 6 30 -1 26 -5 29 -30 29
-25 -1 -28 -5 -28 -33z"/>
<path d="M3498 2008 c-17 -12 -28 -29 -28 -44 0 -13 -6 -24 -13 -24 -7 0 -14
-11 -15 -25 -1 -16 3 -25 13 -25 12 0 15 -16 15 -85 0 -72 3 -88 20 -105 23
-23 49 -26 74 -7 21 16 12 47 -15 47 -17 0 -19 8 -19 71 0 62 2 71 20 76 27 7
28 53 1 53 -16 0 -20 8 -23 44 l-3 45 -27 -21z"/>
<path d="M5118 2008 c-17 -12 -28 -29 -28 -44 0 -15 -6 -24 -15 -24 -9 0 -15
-9 -15 -25 0 -15 6 -25 15 -25 11 0 15 -19 17 -92 3 -88 4 -93 30 -107 35 -20
79 -3 71 28 -3 12 -14 21 -24 21 -17 0 -19 8 -19 75 0 68 2 75 20 75 15 0 20
7 20 25 0 18 -5 25 -19 25 -16 0 -20 8 -23 44 l-3 45 -27 -21z"/>
<path d="M763 1935 c-106 -45 -89 -230 24 -251 79 -15 140 54 131 148 -9 86
-82 135 -155 103z m81 -67 c26 -36 21 -93 -10 -117 -45 -36 -88 6 -79 76 8 61
59 84 89 41z"/>
<path d="M1033 1943 c-30 -6 -73 -58 -75 -91 -7 -121 40 -184 126 -168 38 7
79 49 74 75 -4 22 -58 28 -58 7 0 -27 -35 -38 -59 -18 -27 21 -35 92 -14 122
18 25 63 27 70 2 3 -14 12 -17 34 -14 34 5 35 7 9 50 -11 18 -28 32 -39 32
-11 0 -25 2 -33 4 -7 2 -23 1 -35 -1z"/>
<path d="M1500 1938 c-81 -29 -94 -185 -19 -239 49 -34 119 -16 148 40 11 19
11 25 0 32 -24 15 -47 10 -54 -11 -10 -30 -63 -28 -75 4 -12 33 -5 106 11 117
22 14 47 10 61 -9 9 -12 21 -16 40 -12 27 5 27 5 11 37 -8 18 -23 35 -32 37
-37 11 -67 13 -91 4z"/>
<path d="M1984 1935 c-28 -11 -44 -32 -44 -55 0 -18 42 -18 61 1 11 11 25 16
36 12 46 -17 32 -48 -26 -58 -52 -9 -81 -37 -81 -80 0 -58 54 -89 109 -62 24
12 32 13 41 2 12 -14 63 -8 54 7 -4 6 -8 53 -9 105 -2 77 -6 99 -21 113 -25
25 -82 32 -120 15z m81 -162 c-5 -31 -22 -44 -50 -41 -12 2 -21 12 -23 26 -3
17 4 25 30 36 40 17 50 13 43 -21z"/>
<path d="M2393 1937 c-13 -5 -23 -14 -23 -19 0 -5 -5 -6 -10 -3 -6 4 -8 11 -5
16 4 5 -8 9 -24 9 l-31 0 0 -124 c0 -109 2 -124 18 -128 37 -10 42 1 42 88 0
71 3 87 20 104 16 16 25 18 40 10 23 -12 22 -8 24 -113 1 -80 10 -99 45 -90
14 3 16 19 14 110 -1 88 -5 109 -20 124 -23 23 -61 29 -90 16z"/>
<path d="M3264 1935 c-34 -14 -44 -31 -44 -74 0 -35 22 -54 88 -76 54 -17 60
-23 40 -43 -19 -19 -55 -14 -71 8 -11 16 -21 19 -41 14 -29 -7 -30 -8 -16 -35
26 -48 132 -62 172 -21 25 25 29 85 7 107 -8 8 -39 23 -69 32 -60 20 -74 39
-35 49 18 4 32 1 45 -11 26 -24 75 -13 61 14 -23 43 -83 59 -137 36z"/>
<path d="M3636 1929 c-13 -10 -26 -27 -29 -38 -7 -26 33 -33 61 -10 26 21 62
14 62 -11 0 -14 -14 -23 -55 -35 -68 -19 -89 -50 -71 -105 14 -44 59 -60 103
-38 23 12 31 12 41 2 15 -17 55 -6 48 13 -3 8 -6 54 -6 103 0 109 -12 129 -83
134 -35 2 -54 -2 -71 -15z m83 -185 c-16 -20 -46 -18 -58 4 -12 23 -3 37 34
49 27 9 30 8 33 -14 2 -13 -2 -31 -9 -39z"/>
<path d="M4070 1942 c-8 -2 -23 -11 -32 -20 -16 -14 -18 -13 -18 1 0 11 -8 17
-25 17 -21 0 -25 -5 -26 -32 -2 -77 2 -211 6 -218 2 -4 15 -5 28 -3 23 4 24 9
25 90 1 91 17 128 50 116 28 -11 32 -24 32 -115 0 -89 5 -100 43 -90 17 4 18
15 15 113 -2 80 -7 112 -18 123 -17 17 -57 26 -80 18z"/>
<path d="M4274 1939 c-20 -7 -54 -45 -54 -60 0 -13 51 -16 58 -4 17 28 72 21
72 -10 0 -13 -16 -22 -60 -30 -34 -7 -70 -33 -71 -53 -1 -9 -2 -24 -3 -32 -4
-51 61 -83 113 -55 18 9 31 11 31 5 0 -5 12 -10 28 -10 l27 0 -3 92 c-3 118
-7 135 -35 149 -27 15 -75 19 -103 8z m65 -195 c-23 -27 -66 -11 -65 25 1 8
17 20 36 26 33 11 35 11 38 -12 2 -13 -2 -31 -9 -39z"/>
<path d="M2182 1816 c1 -110 3 -125 18 -129 34 -9 40 7 41 118 0 61 0 116 0
123 -1 6 -14 12 -30 12 l-29 0 0 -124z"/>
<path d="M2969 1936 c-10 -10 0 -200 11 -221 22 -40 81 -43 124 -6 18 15 19
15 13 -1 -7 -18 9 -27 36 -20 15 4 17 19 17 128 l0 124 -30 0 -30 0 0 -89 c0
-69 -4 -91 -16 -102 -48 -40 -70 -7 -69 105 l1 86 -26 0 c-15 0 -29 -2 -31 -4z"/>
<path d="M3850 1816 c0 -129 3 -138 43 -128 15 4 17 19 17 128 l0 124 -30 0
-30 0 0 -124z"/>
<path d="M4730 1812 l0 -129 30 5 30 4 0 124 0 124 -30 0 -30 0 0 -128z"/>
<path d="M4970 1903 c-1 -21 -2 -77 -3 -125 l-2 -86 28 -5 c15 -2 28 -1 28 2
1 3 3 61 4 129 l3 122 -29 0 c-27 0 -29 -3 -29 -37z"/>
<path d="M5245 1811 c39 -117 42 -131 28 -150 -8 -12 -23 -21 -34 -21 -14 0
-19 -7 -19 -29 0 -26 2 -28 36 -25 20 1 44 10 54 19 10 9 39 82 65 162 26 81
49 153 52 161 4 10 -2 13 -28 10 -33 -3 -34 -5 -55 -81 -12 -43 -24 -80 -27
-83 -2 -3 -15 34 -28 81 -23 84 -24 85 -56 85 l-32 0 44 -129z"/>
<path d="M2179 1579 c-8 -4 -1 -55 21 -160 42 -204 35 -187 73 -186 31 2 32 3
54 92 22 87 30 123 33 155 2 16 36 -95 43 -139 3 -14 10 -45 16 -68 11 -40 14
-43 43 -40 34 3 32 -1 52 98 3 13 16 75 29 137 24 111 24 120 0 116 -7 -1 -19
-2 -26 -3 -12 -1 -30 -69 -44 -171 -5 -37 -22 -65 -24 -39 0 7 -2 21 -4 29 -2
8 -11 51 -20 95 -9 44 -18 82 -20 83 -7 8 -66 8 -71 0 -4 -7 -32 -116 -49
-192 -3 -15 -8 -27 -10 -25 -3 4 -26 116 -39 189 -5 27 -11 36 -26 36 -12 0
-26 -3 -31 -7z"/>
<path d="M3068 1570 c-2 -8 -3 -87 -3 -175 l1 -160 30 0 c27 0 29 3 30 41 1
79 20 83 56 11 23 -47 29 -53 57 -53 17 0 31 2 31 4 0 2 -9 21 -19 41 -11 20
-29 55 -40 77 l-20 41 34 41 c19 22 35 42 35 44 0 1 -15 4 -33 5 -29 2 -38 -3
-67 -42 -19 -25 -34 -45 -35 -45 0 0 -1 41 0 92 l0 91 -27 1 c-17 1 -28 -4
-30 -14z"/>
<path d="M2654 1489 c-54 -15 -83 -69 -77 -147 5 -73 44 -112 112 -112 35 0
81 35 81 61 0 24 -41 26 -60 4 -19 -22 -52 -15 -67 15 l-12 25 74 3 75 3 0 30
c0 44 -26 94 -58 110 -36 18 -33 17 -68 8z m61 -78 l15 -29 -45 0 c-52 0 -60
7 -39 36 21 31 51 28 69 -7z"/>
<path d="M2890 1486 c-51 -17 -73 -54 -74 -125 -2 -94 46 -142 127 -127 24 4
43 17 57 36 l21 29 -26 7 c-17 4 -32 1 -44 -10 -10 -9 -25 -16 -34 -16 -15 0
-47 35 -47 52 0 5 34 8 76 8 l77 0 -7 45 c-11 82 -62 122 -126 101z m60 -65
c17 -33 12 -41 -30 -39 -49 2 -54 8 -34 36 19 27 50 28 64 3z"/>
<path d="M1529 1100 c-3 -88 1 -447 5 -465 22 -105 85 -157 191 -157 92 0 137
29 171 107 15 34 18 80 19 293 1 138 -1 252 -4 253 -39 6 -82 5 -87 -2 -2 -4
-6 -114 -7 -243 -2 -221 -3 -236 -23 -263 -29 -39 -90 -44 -129 -10 -36 30
-40 63 -40 315 0 111 -2 203 -5 203 -3 1 -24 2 -47 3 -43 2 -43 2 -44 -34z"/>
<path d="M2023 811 l2 -325 45 -1 45 0 5 100 c5 93 7 103 38 148 18 26 37 47
41 47 5 0 14 -15 22 -32 7 -18 25 -60 39 -93 15 -33 38 -84 50 -112 12 -29 25
-53 29 -54 17 -2 121 -4 121 -2 0 2 -43 91 -95 200 -89 183 -94 197 -80 217 8
12 31 44 51 71 20 28 53 74 75 103 22 28 38 52 37 53 -14 5 -119 5 -126 0 -8
-6 -40 -50 -154 -215 l-47 -69 -3 144 -3 144 -47 0 -47 0 2 -324z"/>
<path d="M2979 1122 c-51 -24 -81 -70 -94 -141 -6 -34 -4 -35 52 -45 29 -5 33
-3 39 22 11 48 32 72 63 72 37 0 61 -28 63 -76 1 -48 -19 -93 -73 -159 -102
-126 -146 -207 -151 -275 l-3 -34 160 -1 160 0 2 57 1 57 -94 3 -94 3 75 99
c41 54 82 119 92 145 25 64 23 155 -3 206 -37 71 -124 101 -195 67z"/>
<path d="M3350 1123 c-72 -26 -112 -140 -112 -318 1 -238 58 -348 175 -332 97
13 140 118 140 338 -1 158 -33 260 -96 304 -21 15 -77 19 -107 8z m66 -101
c24 -17 36 -76 38 -193 4 -173 -16 -259 -59 -259 -41 0 -62 87 -59 250 2 128
11 177 37 195 24 17 28 18 43 7z"/>
<path d="M3707 1106 c-48 -24 -87 -88 -87 -143 0 -30 3 -33 29 -33 16 0 36 -3
45 -6 12 -4 16 0 16 16 0 24 17 61 34 72 6 4 24 8 39 8 23 0 31 -7 43 -35 8
-20 13 -48 10 -63 -2 -15 -5 -33 -5 -39 -1 -7 -36 -59 -79 -115 -110 -145
-134 -191 -144 -268 l-3 -25 160 0 c120 0 161 3 165 12 3 7 4 33 2 58 l-4 45
-89 0 c-49 0 -89 3 -89 8 0 4 27 41 60 82 92 114 115 168 115 266 0 73 -3 84
-28 117 -34 45 -53 56 -106 61 -28 3 -54 -3 -84 -18z"/>
<path d="M4093 1110 c-18 -10 -39 -29 -47 -42 -19 -29 -37 -108 -25 -108 13 0
16 -1 48 -10 26 -7 30 -5 36 18 8 34 33 62 55 62 54 0 71 -97 25 -138 -15 -12
-30 -20 -35 -17 -10 6 -16 -15 -23 -71 -3 -26 0 -30 15 -26 55 14 93 -32 90
-111 -3 -73 -50 -114 -97 -83 -13 8 -26 29 -30 46 -8 37 -11 39 -62 28 l-42
-9 14 -45 c7 -25 21 -56 30 -70 38 -58 124 -81 185 -49 109 56 134 257 40 326
-25 19 -28 25 -15 32 8 4 24 25 34 46 54 104 -19 240 -129 241 -19 0 -49 -9
-67 -20z"/>
</g>
</svg>
