<svg width="188" height="60" viewBox="0 0 188 60" fill="none" xmlns="http://www.w3.org/2000/svg">
<g clip-path="url(#clip0_27_515)">
<path d="M59.9228 27.9649C58.7998 11.4329 44.4898 -1.05306 27.9628 0.0699442C19.7298 0.630944 12.4998 4.46594 7.45379 10.2109L7.43879 10.2009C7.40279 10.2469 7.37179 10.2929 7.34079 10.3389C2.32979 16.1199 -0.490211 23.8009 0.0697887 32.0359C0.121789 32.8219 0.213789 33.5919 0.326789 34.3559C0.326789 34.3929 0.336789 34.4229 0.341789 34.4589C0.418789 34.9619 0.506789 35.4659 0.603789 35.9589C0.695735 36.4146 0.79843 36.8681 0.911789 37.3189C4.37779 51.1349 17.3208 60.9199 32.0348 59.9189C48.5618 58.7949 61.0528 44.4859 59.9288 27.9549L59.9228 27.9649ZM53.3928 28.4109C53.5318 30.4449 53.4028 32.4369 53.0388 34.3569C53.0388 34.3469 53.0288 34.3369 53.0288 34.3259C50.8508 29.0119 46.5488 25.1719 42.7698 23.0509C43.5348 14.0459 40.4798 10.2469 37.0198 9.63094C36.3494 9.505 35.6603 9.51743 34.9948 9.66749C34.3294 9.81754 33.7016 10.102 33.1501 10.5035C32.5986 10.905 32.135 11.415 31.7877 12.0021C31.4405 12.5893 31.2169 13.2412 31.1308 13.9179C31.0465 14.5707 31.0918 15.2337 31.2641 15.869C31.4364 16.5042 31.7324 17.0992 32.1349 17.6199C32.5375 18.1407 33.0388 18.5769 33.6102 18.9036C34.1816 19.2303 34.8118 19.4411 35.4648 19.5239C35.7058 19.5549 35.9418 19.5649 36.1728 19.5599C36.1896 19.8813 36.1983 20.2031 36.1988 20.5249C32.9998 19.7349 30.0118 19.5749 27.2858 19.8219C26.2607 19.8892 25.2405 20.0178 24.2308 20.2069C24.5708 17.1669 25.7148 13.7479 27.9278 11.2529C30.0678 8.83494 33.2518 7.45394 36.7218 7.80794C37.3798 7.87494 38.0828 8.03894 38.7138 8.24994C38.7448 8.25994 38.7758 8.26994 38.8018 8.27494C46.8418 11.5509 52.7618 19.1849 53.3878 28.4109H53.3928ZM32.4818 32.9909C32.4818 32.9909 32.4818 32.9959 32.4768 33.0009C31.7183 34.091 30.8588 35.1071 29.9098 36.0359C28.4724 34.5176 27.2555 32.8049 26.2948 30.9479C26.2488 30.8499 26.1978 30.7629 26.1508 30.6649V30.6549C25.5878 29.4515 25.1375 28.1985 24.8058 26.9119C26.9358 26.4089 29.0258 26.2239 31.0238 26.3219L31.3418 26.3369H31.3518C32.6048 26.4399 33.9088 26.6709 35.2588 27.0409C34.6321 29.1481 33.698 31.1513 32.4868 32.9859L32.4818 32.9909ZM22.2338 7.86994L22.2188 7.88994C18.7018 12.4289 17.5308 18.0709 17.5828 22.4039C9.39879 26.2439 7.64279 30.7879 8.83379 34.0939C8.86379 34.1869 8.90079 34.2739 8.93679 34.3619C9.44991 35.5877 10.4287 36.5595 11.658 37.0639C12.8873 37.5683 14.2666 37.564 15.4928 37.0519C16.7185 36.5388 17.6904 35.5601 18.1948 34.3307C18.6992 33.1014 18.6949 31.7221 18.1828 30.4959C18.0896 30.2782 17.9817 30.067 17.8598 29.8639C18.1168 29.6939 18.3938 29.5259 18.6918 29.3509C19.6048 32.5189 20.9558 35.1939 22.5318 37.4319C23.1018 38.2789 23.7178 39.0949 24.3898 39.8809C21.5868 41.1079 18.0548 41.8269 14.7838 41.1589C11.6218 40.5129 8.83379 38.4489 7.40179 35.2649C7.12746 34.6405 6.92095 33.9884 6.78579 33.3199C6.70136 32.7458 6.63798 32.1687 6.59579 31.5899C5.86579 20.8439 12.5308 11.2789 22.2338 7.86994ZM31.5878 53.3939C25.2068 53.8299 19.2408 51.6539 14.7328 47.7819C20.4218 48.5579 25.8948 46.7499 29.6228 44.5379C37.0408 49.7079 41.8568 48.9579 44.1258 46.2729C44.5703 45.7547 44.9043 45.1511 45.1071 44.4992C45.3099 43.8472 45.3773 43.1607 45.3052 42.4818C45.2331 41.8028 45.023 41.1458 44.6878 40.551C44.3525 39.9562 43.8993 39.4362 43.3558 39.0229C42.8323 38.6239 42.2353 38.3319 41.5989 38.1636C40.9625 37.9954 40.2992 37.9542 39.6469 38.0424C38.9946 38.1307 38.3661 38.3466 37.7973 38.6778C37.2284 39.0091 36.7305 39.4492 36.3318 39.9729C36.1888 40.1629 36.0598 40.3689 35.9468 40.5739C35.6748 40.4349 35.3868 40.2809 35.0948 40.1119C37.185 37.9555 38.8978 35.4631 40.1618 32.7389C40.6143 31.8169 41.012 30.8689 41.3528 29.8999C43.8178 31.7179 46.2098 34.4129 47.2678 37.5799C48.2898 40.6399 47.8988 44.0899 45.8558 46.9199C45.4522 47.469 44.9909 47.9732 44.4798 48.4239L44.4598 48.4439C40.7679 51.3519 36.283 53.0757 31.5938 53.3889L31.5878 53.3939Z" fill="url(#paint0_linear_27_515)"/>
<path style="mix-blend-mode:overlay" opacity="0.9" d="M37.02 9.62605C36.4572 9.51919 35.8801 9.51242 35.315 9.60605C38.186 11.166 40.275 15.515 39.177 24.099C38.8134 26.8907 37.9931 29.6036 36.749 32.129C35.6768 34.4336 34.2814 36.5735 32.605 38.484C33.3997 39.0819 34.2314 39.6289 35.095 40.122C37.1854 37.966 38.8986 35.474 40.163 32.75C41.4101 30.2258 42.2305 27.5124 42.591 24.72C43.901 14.503 40.687 10.283 37.021 9.63005L37.02 9.62605Z" fill="url(#paint1_radial_27_515)"/>
<g style="mix-blend-mode:overlay" opacity="0.8">
<path d="M39.176 24.0941C40.275 15.5141 38.185 11.1611 35.315 9.6001C35.202 9.6151 35.095 9.6411 34.981 9.6671C37.79 11.2841 39.812 15.6271 38.729 24.0941C38.3655 26.8858 37.5452 29.5987 36.301 32.1241C35.2676 34.3471 33.932 36.4167 32.332 38.2741C32.424 38.3461 32.512 38.4131 32.604 38.4791C34.279 36.5673 35.674 34.4272 36.747 32.1231C37.9945 29.5989 38.8153 26.8865 39.176 24.0941Z" fill="white"/>
</g>
<path style="mix-blend-mode:overlay" opacity="0.5" d="M28.2661 43.5569C27.9941 43.3519 27.7371 43.1359 27.4761 42.9199C23.2401 44.6869 17.3711 45.7949 11.5391 44.4399C12.4888 45.6564 13.5567 46.7759 14.7271 47.7819C20.4161 48.5579 25.8891 46.7499 29.6171 44.5379C29.1589 44.2178 28.7068 43.8891 28.2611 43.5519L28.2661 43.5569Z" fill="url(#paint2_radial_27_515)"/>
<path style="mix-blend-mode:overlay" opacity="0.6" d="M27.4798 42.9199C27.3518 42.8119 27.2188 42.7049 27.0958 42.5969C22.8288 44.3009 16.9298 45.3229 11.1128 43.8699C11.2568 44.0599 11.4008 44.2549 11.5438 44.4399C17.3718 45.7949 23.2438 44.6869 27.4798 42.9199Z" fill="url(#paint3_linear_27_515)"/>
<path style="mix-blend-mode:overlay" opacity="0.9" d="M8.83878 34.0999C8.86878 34.1919 8.90578 34.2799 8.94178 34.3669C9.13178 34.8189 9.37778 35.2239 9.67578 35.5889C9.59378 32.3239 12.3148 28.3339 20.2928 24.9969C22.892 23.9158 25.6517 23.2705 28.4608 23.0869C30.9934 22.8611 33.5454 22.9995 36.0388 23.4979C36.1678 22.4199 36.2188 21.4139 36.2088 20.5249C33.2966 19.7918 30.2818 19.5541 27.2908 19.8219C24.4814 20.0059 21.7215 20.6512 19.1218 21.7319C9.61978 25.7059 7.57078 30.5989 8.83978 34.1049V34.0999H8.83878Z" fill="url(#paint4_radial_27_515)"/>
<g style="mix-blend-mode:overlay" opacity="0.8">
<path d="M20.2931 25.0019C12.3151 28.3399 9.59315 32.3289 9.67615 35.5939C9.74815 35.6809 9.82515 35.7639 9.90215 35.8459C9.89615 32.6059 12.6481 28.6839 20.5191 25.3869C23.1184 24.3059 25.878 23.6606 28.6872 23.4769C31.1291 23.2609 33.5892 23.3821 35.9982 23.8369C36.0143 23.7242 36.028 23.6112 36.0392 23.4979C33.5454 23.0024 30.9938 22.8644 28.4612 23.0879C25.6521 23.2721 22.8926 23.9174 20.2931 24.9979V25.0019Z" fill="white"/>
</g>
<path style="mix-blend-mode:overlay" opacity="0.4" d="M42.6008 24.715C42.5608 25.054 42.5038 25.382 42.4468 25.716C46.0918 28.499 49.9888 33.032 51.7348 38.756C52.3119 37.3238 52.7469 35.8383 53.0338 34.321C50.8618 29.007 46.5598 25.171 42.7808 23.051C42.7348 23.591 42.6778 24.14 42.6058 24.715H42.6008Z" fill="url(#paint5_radial_27_515)"/>
<path style="mix-blend-mode:overlay" opacity="0.5" d="M42.4469 25.7161C42.4159 25.8801 42.3899 26.0501 42.3589 26.2141C45.9689 29.0581 49.8039 33.6541 51.4519 39.4191C51.5489 39.1991 51.6419 38.9771 51.7289 38.7571C49.9839 33.0321 46.0919 28.5041 42.4409 25.7161H42.4469Z" fill="url(#paint6_linear_27_515)"/>
<path style="mix-blend-mode:overlay" opacity="0.9" d="M44.1258 46.268C44.4968 45.8309 44.7919 45.3347 44.9988 44.8C42.2108 46.504 37.3988 46.14 30.5148 40.897C28.2769 39.1876 26.3374 37.1197 24.7748 34.777C23.3127 32.6972 22.156 30.4187 21.3398 28.011C20.3438 28.437 19.4458 28.899 18.6758 29.351C19.4988 32.2392 20.8001 34.9691 22.5258 37.427C24.0658 39.727 25.9858 41.807 28.2658 43.547C36.4598 49.79 41.7228 49.117 44.1198 46.267H44.1258V46.268Z" fill="url(#paint7_radial_27_515)"/>
<g style="mix-blend-mode:overlay" opacity="0.8">
<path d="M30.5201 40.8981C37.3991 46.1391 42.2151 46.5041 45.0021 44.7991C45.0431 44.6921 45.0791 44.5841 45.1101 44.4811C42.3071 46.1091 37.5321 45.6821 30.7451 40.5131C28.5073 38.8036 26.5678 36.7357 25.0051 34.3931C23.597 32.3871 22.4724 30.1964 21.6631 27.8831C21.5551 27.9291 21.4531 27.9701 21.3501 28.0161C22.1659 30.4241 23.3223 32.7029 24.7841 34.7831C26.3241 37.0831 28.2441 39.1631 30.5241 40.9031L30.5191 40.8981H30.5201Z" fill="white"/>
</g>
<path style="mix-blend-mode:overlay" opacity="0.3" d="M19.1172 21.7221C19.4302 21.5931 19.7432 21.4751 20.0612 21.3571C20.6472 16.8081 22.6232 11.1661 26.7112 6.79712C25.1812 7.01712 23.6762 7.37712 22.2182 7.88512C18.7002 12.4241 17.5302 18.0661 17.5822 22.4001C18.0692 22.1701 18.5782 21.9431 19.1122 21.7231L19.1172 21.7221Z" fill="url(#paint8_radial_27_515)"/>
<path style="mix-blend-mode:overlay" opacity="0.4" d="M20.0601 21.3571C20.2201 21.3011 20.3741 21.2391 20.5331 21.1831C21.1901 16.6331 23.2541 11.0171 27.4181 6.7041C27.1821 6.7301 26.9451 6.7611 26.7091 6.7921C22.6221 11.1661 20.6461 16.8031 20.0611 21.3521V21.3571H20.0601Z" fill="url(#paint9_linear_27_515)"/>
<path style="mix-blend-mode:multiply" opacity="0.4" d="M27.9628 0.0709141C19.7278 0.630914 12.4998 4.46591 7.45284 10.2109L7.33984 10.3389C8.31984 11.3149 11.5338 13.2349 12.8328 14.0359C15.4213 11.2473 18.65 9.13095 22.2398 7.86991C22.4918 7.54091 22.7578 7.21791 23.0358 6.90491C26.4238 3.07991 31.0498 1.06191 36.4198 1.06191C37.0158 1.06191 38.2328 1.15991 38.2578 1.15991C34.9164 0.198691 31.4325 -0.17021 27.9638 0.0699141L27.9628 0.0709141Z" fill="url(#paint10_linear_27_515)"/>
<path style="mix-blend-mode:multiply" opacity="0.4" d="M31.5881 53.3991C25.2071 53.8351 19.2411 51.6591 14.7331 47.7881C14.3097 47.7328 13.8885 47.6624 13.4701 47.5771C8.46411 46.5551 4.39811 43.5571 1.71811 38.9111C1.42301 38.3977 1.154 37.8697 0.912109 37.3291C4.37811 51.1451 17.3211 60.9311 32.0301 59.9291C32.0971 58.4151 31.6501 54.8991 31.5831 53.3991H31.5881Z" fill="url(#paint11_linear_27_515)"/>
<path style="mix-blend-mode:multiply" opacity="0.4" d="M59.9238 27.965C58.9998 27.872 54.5018 28.227 53.3938 28.411C53.5318 30.445 53.4038 32.437 53.0388 34.357C53.1928 34.737 53.3418 35.127 53.4748 35.522C55.0928 40.369 54.5278 45.385 51.8478 50.036C51.5512 50.5484 51.2291 51.0457 50.8828 51.526C50.8828 51.526 50.8978 51.515 50.9028 51.505C56.9978 45.575 60.5448 37.114 59.9238 27.97V27.965Z" fill="url(#paint12_linear_27_515)"/>
<path style="mix-blend-mode:multiply" opacity="0.5" d="M36.7282 7.80296C37.3852 7.86996 38.0882 8.03396 38.7202 8.24496C38.7502 8.25496 38.7822 8.26496 38.8072 8.26996C41.3826 9.32111 43.7518 10.8195 45.8052 12.696C45.8052 12.696 45.8152 12.701 45.8202 12.706C46.8062 11.582 48.7002 10.345 48.7002 10.345C48.7002 10.345 45.8002 7.37696 41.3592 6.45296C38.2532 5.80596 31.2452 5.18496 26.8242 12.706L26.8652 12.666C27.1942 12.172 27.5382 11.69 27.9332 11.248C30.0742 8.82996 33.2572 7.44796 36.7282 7.80296Z" fill="url(#paint13_linear_27_515)"/>
<path style="mix-blend-mode:multiply" opacity="0.5" d="M45.8559 46.9251C45.4523 47.4741 44.991 47.9784 44.4799 48.4291C44.4599 48.4491 44.4339 48.4701 44.4129 48.4911C42.2148 50.1946 39.733 51.4962 37.0819 52.3361C37.0769 52.3361 37.0719 52.3361 37.0659 52.3411C37.5489 53.7581 37.6719 56.0171 37.6719 56.0171C37.6719 56.0171 41.6919 54.9911 44.7119 51.6071C46.8219 49.2401 50.8669 43.4801 46.5639 35.8921C46.5639 35.8921 46.5699 35.9171 46.5799 35.9481C46.8469 36.4781 47.0879 37.0211 47.2729 37.5811C48.2949 40.6411 47.9039 44.0911 45.8609 46.9201L45.8559 46.9251Z" fill="url(#paint14_linear_27_515)"/>
<path style="mix-blend-mode:multiply" opacity="0.5" d="M7.41291 35.276C7.13817 34.6513 6.93131 33.9989 6.79591 33.33C6.79091 33.3 6.78091 33.268 6.77591 33.237C6.39591 30.47 6.51891 27.667 7.10991 24.967V24.951C5.64091 24.663 3.62391 23.637 3.62391 23.637C3.62391 23.637 2.50391 27.637 3.92691 31.939C4.92291 34.952 7.88491 41.334 16.6069 41.401C16.6069 41.401 16.5819 41.395 16.5509 41.385C15.9609 41.349 15.3709 41.288 14.7909 41.17C11.6279 40.523 8.83991 38.459 7.40691 35.276H7.41291Z" fill="url(#paint15_linear_27_515)"/>
<path style="mix-blend-mode:multiply" opacity="0.6" d="M35.4652 19.52C35.7062 19.55 35.9422 19.56 36.1732 19.555C36.1732 19.555 36.0142 16.439 35.6342 14.837C35.2492 13.24 34.6842 12.177 34.0682 11.577C33.6222 11.146 32.2202 10.611 31.1322 13.907C31.0477 14.5598 31.0929 15.2228 31.2651 15.8581C31.4373 16.4934 31.7331 17.0885 32.1355 17.6093C32.538 18.1301 33.0393 18.5664 33.6106 18.8933C34.182 19.2201 34.8122 19.431 35.4652 19.514V19.519V19.52Z" fill="url(#paint16_linear_27_515)"/>
<path style="mix-blend-mode:multiply" opacity="0.5" d="M18.19 30.506C18.0964 30.2886 17.9881 30.0777 17.866 29.875C17.866 29.875 15.242 31.569 14.051 32.698C12.86 33.828 12.223 34.85 12.013 35.686C11.864 36.287 12.1 37.766 15.499 37.062C16.7247 36.5489 17.6965 35.5701 18.2009 34.3408C18.7053 33.1115 18.701 31.7322 18.189 30.506H18.19Z" fill="url(#paint17_linear_27_515)"/>
<path style="mix-blend-mode:multiply" opacity="0.6" d="M36.3381 39.968C36.1941 40.158 36.0661 40.364 35.9531 40.568C35.9531 40.568 38.7311 41.991 40.3071 42.458C41.8831 42.926 43.0841 42.967 43.9111 42.73C44.5071 42.561 45.6671 41.611 43.3611 39.024C42.8377 38.6251 42.2408 38.3332 41.6045 38.1651C40.9682 37.9969 40.305 37.9558 39.6528 38.044C39.0006 38.1322 38.3722 38.3481 37.8035 38.6792C37.2347 39.0104 36.7368 39.4504 36.3381 39.974V39.968Z" fill="url(#paint18_linear_27_515)"/>
<path style="mix-blend-mode:multiply" opacity="0.3" d="M35.26 27.0459C34.63 29.1409 33.746 31.0459 32.663 32.7239C32.606 32.8109 32.55 32.8989 32.488 32.9909C32.488 32.9909 32.488 32.9959 32.483 33.0009C31.7245 34.0909 30.8651 35.1071 29.916 36.0359C30.604 36.7649 31.343 37.4729 32.16 38.1459C33.0878 38.8757 34.0693 39.5345 35.096 40.1169C37.1865 37.9609 38.8997 35.4688 40.164 32.7449C40.6163 31.8225 41.0136 30.8742 41.354 29.9049C40.297 29.1299 39.229 28.5089 38.244 28.0879C37.273 27.6718 36.2743 27.3236 35.255 27.0459H35.261H35.26Z" fill="url(#paint19_linear_27_515)"/>
<path style="mix-blend-mode:multiply" opacity="0.3" d="M14.7338 47.7879C20.4218 48.5629 25.8948 46.7559 29.6228 44.5429C29.1646 44.2229 28.7125 43.8941 28.2668 43.5569C26.8489 42.4723 25.5485 41.2423 24.3868 39.887C21.5828 41.113 18.0508 41.832 14.7798 41.164C11.6178 40.518 8.82976 38.454 7.39676 35.271C7.12237 34.6462 6.91586 33.9938 6.78076 33.325C7.60776 39.126 10.5338 44.1879 14.7288 47.7869L14.7338 47.7879Z" fill="url(#paint20_linear_27_515)"/>
<path style="mix-blend-mode:multiply" opacity="0.3" d="M29.9148 36.0351C28.4779 34.517 27.2613 32.8046 26.3008 30.9481C26.2548 30.8501 26.2028 30.7631 26.1568 30.6651V30.6551C25.5938 29.4517 25.1435 28.1986 24.8118 26.9121C23.8358 27.1431 22.8558 27.4311 21.8698 27.8011C20.7752 28.2385 19.7146 28.7566 18.6968 29.3511C19.6108 32.5191 20.9608 35.1941 22.5368 37.4321C23.1068 38.2791 23.7238 39.0951 24.3968 39.8811C25.5968 39.3571 26.6708 38.7361 27.5268 38.0941C28.37 37.4608 29.1695 36.7712 29.9198 36.0301L29.9148 36.0351Z" fill="url(#paint21_linear_27_515)"/>
<path style="mix-blend-mode:multiply" opacity="0.3" d="M22.2202 7.89011C18.7032 12.4291 17.5322 18.0711 17.5842 22.4041C18.091 22.1661 18.6028 21.9387 19.1192 21.7221C20.7649 21.0347 22.4788 20.5235 24.2322 20.1971C24.5722 17.1571 25.7162 13.7381 27.9292 11.2431C30.0692 8.82511 33.2532 7.44311 36.7242 7.79811C37.3812 7.86511 38.0842 8.02911 38.7162 8.24011C38.7462 8.25011 38.7772 8.26011 38.8032 8.26511C35.5087 6.9208 31.9498 6.35016 28.4002 6.59711C26.2442 6.74611 24.1802 7.18211 22.2292 7.87011C22.2242 7.87511 22.2192 7.88511 22.2142 7.89011H22.2202Z" fill="url(#paint22_linear_27_515)"/>
<path style="mix-blend-mode:multiply" opacity="0.3" d="M53.0339 34.316C50.8579 29.002 46.5549 25.161 42.7759 23.041C42.7299 23.581 42.6739 24.135 42.5959 24.715C42.3668 26.4836 41.9522 28.2232 41.3589 29.905C43.8239 31.723 46.2159 34.418 47.2739 37.586C48.2949 40.646 47.9049 44.096 45.8619 46.925C45.4583 47.4741 44.997 47.9783 44.4859 48.429L44.4659 48.449C48.8709 44.989 51.9859 39.999 53.0549 34.352C53.0549 34.342 53.0449 34.331 53.0449 34.321L53.0339 34.316Z" fill="url(#paint23_linear_27_515)"/>
<path style="mix-blend-mode:multiply" opacity="0.3" d="M24.2159 23.8109C24.3416 24.8569 24.5387 25.893 24.8059 26.9119C26.9369 26.4089 29.0259 26.2239 31.0239 26.3219L31.3419 26.3369H31.3519C32.6049 26.4399 33.9089 26.6709 35.2599 27.0409C35.5469 26.0809 35.7889 25.0839 35.9629 24.0469C36.1529 22.7539 36.2089 21.5569 36.2039 20.5149C33.0059 19.7249 30.0179 19.5649 27.2919 19.8119C26.2668 19.8791 25.2467 20.0077 24.2369 20.1969C24.0929 21.5009 24.0869 22.7379 24.2209 23.8069L24.2159 23.8109Z" fill="url(#paint24_linear_27_515)"/>
<path d="M150.427 22.281L146.566 33.027H146.597L150.448 22.343L150.427 22.281ZM81.8922 22.281L78.0322 33.027H78.0472L81.9072 22.317L81.8922 22.281ZM82.8572 24.966L85.7522 33.027H79.9462L78.4822 37.093H87.2312L89.7112 43.988H95.2612L85.1472 18.616L82.8572 24.966Z" fill="white"/>
<path d="M78.0312 33.0269L81.8922 22.2809L81.9082 22.3169L83.5352 17.7989H79.2742L68.8672 43.9899H74.0942L78.0472 33.0279L78.0312 33.0269ZM112.077 30.4959C110.814 29.7509 109.135 29.0529 107.045 28.4109C105.849 28.0209 104.914 27.6609 104.237 27.3279C103.559 26.9939 103.087 26.6149 102.825 26.1939C102.563 25.7669 102.43 25.2689 102.43 24.6939C102.43 23.6829 102.82 22.9029 103.6 22.3539C104.381 21.8039 105.474 21.5269 106.876 21.5269C108.026 21.5269 109.222 21.7009 110.475 22.0449C111.727 22.3889 112.836 22.8609 113.802 23.4569L114.526 19.2209C113.54 18.6259 112.338 18.1479 110.927 17.7889C109.548 17.4378 108.13 17.2585 106.706 17.2549C104.802 17.2549 103.143 17.5629 101.747 18.1849C100.345 18.8049 99.2622 19.6889 98.4922 20.8389C97.7222 21.9889 97.3372 23.3439 97.3372 24.9049C97.3372 26.2399 97.5932 27.3899 98.1122 28.3649C98.6302 29.3409 99.4722 30.1879 100.643 30.8959C101.813 31.6099 103.354 32.2519 105.258 32.8259C106.634 33.2429 107.702 33.6329 108.462 33.9969C109.222 34.3619 109.751 34.7729 110.049 35.2189C110.346 35.6659 110.495 36.1989 110.495 36.8209C110.495 37.8989 110.054 38.7459 109.171 39.3519C108.288 39.9579 107.061 40.2659 105.5 40.2659C104.144 40.2659 102.727 40.0559 101.244 39.6289C99.7602 39.2029 98.4712 38.6589 97.3672 37.9919L96.8852 42.3659C97.5262 42.8019 98.3332 43.1819 99.2982 43.5009C100.263 43.8239 101.3 44.0759 102.414 44.2609C103.528 44.4449 104.637 44.5379 105.741 44.5379C108.842 44.5379 111.276 43.8289 113.047 42.4179C114.813 41.0049 115.701 39.0489 115.701 36.5439C115.701 35.2139 115.414 34.0589 114.839 33.0839C114.264 32.1079 113.345 31.2449 112.082 30.5009L112.077 30.4959ZM139.57 17.7999H117.416V22.0699H139.57V17.7999ZM131.128 23.8579H125.855V43.9829H131.128V23.8579ZM146.567 33.0269L150.428 22.2809L150.448 22.3429L152.086 17.7989H147.804L137.402 43.9889H142.639L145.119 37.0929H145.129L146.598 33.0269H146.567ZM151.397 24.9869L154.283 33.0269H148.496L147.033 37.0929H155.766L158.246 43.9879H163.796L153.687 18.6359L151.397 24.9869ZM180.846 33.3759C182.094 32.6776 183.157 31.692 183.947 30.5009C184.753 29.2939 185.154 27.8879 185.154 26.2809C185.154 24.5349 184.764 23.0309 183.983 21.7679C183.203 20.5049 182.089 19.5289 180.641 18.8409C179.193 18.1529 177.473 17.8089 175.471 17.8089H173.638V21.7729H174.778C178.269 21.7729 180.014 23.2669 180.014 26.2499C180.014 29.2329 178.212 30.7269 174.603 30.7269H173.633V34.6899H176.323L181.837 43.9929H187.731L180.841 33.3809L180.846 33.3759ZM171.857 17.7999H166.861V43.9829H171.857V17.7999Z" fill="white"/>
</g>
<defs>
<linearGradient id="paint0_linear_27_515" x1="9.52679" y1="50.4729" x2="47.7758" y2="12.2189" gradientUnits="userSpaceOnUse">
<stop stop-color="#E6007A"/>
<stop offset="0.21" stop-color="#703AC2"/>
<stop offset="0.46" stop-color="#0070EB"/>
<stop offset="0.77" stop-color="#0297FB"/>
<stop offset="1" stop-color="#0AE2FF"/>
</linearGradient>
<radialGradient id="paint1_radial_27_515" cx="0" cy="0" r="1" gradientUnits="userSpaceOnUse" gradientTransform="translate(38.55 23.924) scale(11.408)">
<stop stop-color="white"/>
<stop offset="1" stop-color="white" stop-opacity="0"/>
</radialGradient>
<radialGradient id="paint2_radial_27_515" cx="0" cy="0" r="1" gradientUnits="userSpaceOnUse" gradientTransform="translate(21.6901 45.0869) scale(6.63838 6.63839)">
<stop stop-color="white"/>
<stop offset="1" stop-color="white" stop-opacity="0"/>
</radialGradient>
<linearGradient id="paint3_linear_27_515" x1="11.7288" y1="43.9629" x2="18.1268" y2="43.8749" gradientUnits="userSpaceOnUse">
<stop stop-color="white" stop-opacity="0"/>
<stop offset="1" stop-color="white"/>
</linearGradient>
<radialGradient id="paint4_radial_27_515" cx="0" cy="0" r="1" gradientUnits="userSpaceOnUse" gradientTransform="translate(20.464 25.6269) rotate(-120) scale(11.408 11.408)">
<stop stop-color="white"/>
<stop offset="1" stop-color="white" stop-opacity="0"/>
</radialGradient>
<radialGradient id="paint5_radial_27_515" cx="0" cy="0" r="1" gradientUnits="userSpaceOnUse" gradientTransform="translate(47.2225 29.6481) rotate(-120) scale(6.63838)">
<stop stop-color="white"/>
<stop offset="1" stop-color="white" stop-opacity="0"/>
</radialGradient>
<linearGradient id="paint6_linear_27_515" x1="51.2269" y1="38.8321" x2="47.9519" y2="33.3361" gradientUnits="userSpaceOnUse">
<stop stop-color="white" stop-opacity="0"/>
<stop offset="1" stop-color="white"/>
</linearGradient>
<radialGradient id="paint7_radial_27_515" cx="0" cy="0" r="1" gradientUnits="userSpaceOnUse" gradientTransform="translate(30.4404 39.9111) rotate(120) scale(11.408)">
<stop stop-color="white"/>
<stop offset="1" stop-color="white" stop-opacity="0"/>
</radialGradient>
<radialGradient id="paint8_radial_27_515" cx="0" cy="0" r="1" gradientUnits="userSpaceOnUse" gradientTransform="translate(21.0826 15.2602) rotate(120) scale(6.63838)">
<stop stop-color="white"/>
<stop offset="1" stop-color="white" stop-opacity="0"/>
</radialGradient>
<linearGradient id="paint9_linear_27_515" x1="27.0321" y1="7.1931" x2="23.9131" y2="12.7801" gradientUnits="userSpaceOnUse">
<stop stop-color="white" stop-opacity="0"/>
<stop offset="1" stop-color="white"/>
</linearGradient>
<linearGradient id="paint10_linear_27_515" x1="28.4258" y1="4.35291" x2="18.6498" y2="7.19691" gradientUnits="userSpaceOnUse">
<stop stop-color="#231F20"/>
<stop offset="1" stop-color="white"/>
</linearGradient>
<linearGradient id="paint11_linear_27_515" x1="9.95811" y1="41.6271" x2="18.1321" y2="50.1591" gradientUnits="userSpaceOnUse">
<stop stop-color="#231F20"/>
<stop offset="1" stop-color="white"/>
</linearGradient>
<linearGradient id="paint12_linear_27_515" x1="53.8248" y1="40.343" x2="56.6688" y2="31.697" gradientUnits="userSpaceOnUse">
<stop stop-color="#231F20"/>
<stop offset="1" stop-color="white"/>
</linearGradient>
<linearGradient id="paint13_linear_27_515" x1="32.8772" y1="9.30196" x2="45.9802" y2="12.301" gradientUnits="userSpaceOnUse">
<stop stop-color="#231F20"/>
<stop offset="1" stop-color="white"/>
</linearGradient>
<linearGradient id="paint14_linear_27_515" x1="46.4859" y1="42.8401" x2="37.3309" y2="52.6901" gradientUnits="userSpaceOnUse">
<stop stop-color="#231F20"/>
<stop offset="1" stop-color="white"/>
</linearGradient>
<linearGradient id="paint15_linear_27_515" x1="10.6329" y1="37.861" x2="6.68291" y2="25.012" gradientUnits="userSpaceOnUse">
<stop stop-color="#231F20"/>
<stop offset="1" stop-color="white"/>
</linearGradient>
<linearGradient id="paint16_linear_27_515" x1="35.7422" y1="14.133" x2="31.5992" y2="18.282" gradientUnits="userSpaceOnUse">
<stop stop-color="#231F20"/>
<stop offset="1" stop-color="white"/>
</linearGradient>
<linearGradient id="paint17_linear_27_515" x1="13.389" y1="32.951" x2="19.051" y2="34.472" gradientUnits="userSpaceOnUse">
<stop stop-color="#231F20"/>
<stop offset="1" stop-color="white"/>
</linearGradient>
<linearGradient id="paint18_linear_27_515" x1="40.8611" y1="42.903" x2="39.3441" y2="37.243" gradientUnits="userSpaceOnUse">
<stop stop-color="#231F20"/>
<stop offset="1" stop-color="white"/>
</linearGradient>
<linearGradient id="paint19_linear_27_515" x1="32.242" y1="37.8679" x2="34.732" y2="34.4339" gradientUnits="userSpaceOnUse">
<stop stop-color="#231F20"/>
<stop offset="1" stop-color="white"/>
</linearGradient>
<linearGradient id="paint20_linear_27_515" x1="23.6778" y1="36.38" x2="18.7028" y2="38.752" gradientUnits="userSpaceOnUse">
<stop stop-color="#231F20"/>
<stop offset="1" stop-color="white"/>
</linearGradient>
<linearGradient id="paint21_linear_27_515" x1="21.8698" y1="28.0981" x2="23.4098" y2="31.2971" gradientUnits="userSpaceOnUse">
<stop stop-color="#231F20"/>
<stop offset="1" stop-color="white"/>
</linearGradient>
<linearGradient id="paint22_linear_27_515" x1="29.0332" y1="18.2201" x2="27.9702" y2="14.5491" gradientUnits="userSpaceOnUse">
<stop stop-color="#231F20"/>
<stop offset="1" stop-color="white"/>
</linearGradient>
<linearGradient id="paint23_linear_27_515" x1="40.5229" y1="35.034" x2="43.6029" y2="35.743" gradientUnits="userSpaceOnUse">
<stop stop-color="#231F20"/>
<stop offset="1" stop-color="white"/>
</linearGradient>
<linearGradient id="paint24_linear_27_515" x1="35.6909" y1="24.6279" x2="31.7839" y2="23.9189" gradientUnits="userSpaceOnUse">
<stop stop-color="#231F20"/>
<stop offset="1" stop-color="white"/>
</linearGradient>
<clipPath id="clip0_27_515">
<rect width="188" height="60" fill="white"/>
</clipPath>
</defs>
</svg>
