<svg width="128" height="51" viewBox="0 0 128 51" fill="none" xmlns="http://www.w3.org/2000/svg">
<path d="M2.75879 38.25H10.422V25.6732H16.0145L22.8813 38.25H31.3409L23.6423 24.4606C27.766 22.7282 30.049 19.2116 30.049 14.3611C30.049 7.31045 25.2882 2.77173 17.0587 2.77173H2.75879V38.25ZM10.422 19.6447V8.9042H15.5898C20.0142 8.9042 22.1557 10.8271 22.1557 14.3611C22.1557 17.8777 20.0142 19.6447 15.6252 19.6447H10.422Z" fill="#F8F7FA"/>
<path d="M45.7016 38.7698C52.4269 38.7698 56.9573 35.5648 58.0194 30.6278L51.0464 30.1774C50.2853 32.2044 48.3386 33.261 45.8255 33.261C42.0558 33.261 39.6666 30.8182 39.6666 26.8513V26.834H58.1786V24.8071C58.1786 15.7644 52.586 11.2949 45.4006 11.2949C37.4012 11.2949 32.2158 16.8557 32.2158 25.067C32.2158 33.5035 37.3306 38.7698 45.7016 38.7698ZM39.6666 22.2606C39.8258 19.229 42.1797 16.8038 45.5245 16.8038C48.7987 16.8038 51.0641 19.0904 51.0818 22.2606H39.6666Z" fill="#F8F7FA"/>
<path d="M69.0662 2.77173H61.5269V38.25H69.0662V2.77173Z" fill="#F8F7FA"/>
<path d="M81.2852 38.7523C85.3026 38.7523 87.9042 37.0374 89.2317 34.5603H89.4441V38.2501H96.5939V20.3031C96.5939 13.9627 91.1076 11.2949 85.0549 11.2949C78.542 11.2949 74.2593 14.3438 73.2151 19.1944L80.1881 19.7487C80.7012 17.9817 82.3117 16.6825 85.0196 16.6825C87.5856 16.6825 89.0546 17.9471 89.0546 20.1298V20.2338C89.0546 21.9488 87.1964 22.174 82.4711 22.6244C77.091 23.1095 72.2593 24.8764 72.2593 30.8185C72.2593 36.0848 76.0998 38.7523 81.2852 38.7523ZM83.4444 33.6595C81.126 33.6595 79.4623 32.6027 79.4623 30.5757C79.4623 28.4969 81.2146 27.4749 83.8692 27.1112C85.515 26.886 88.2052 26.5048 89.1078 25.9158V28.7397C89.1078 31.5286 86.7539 33.6595 83.4444 33.6595Z" fill="#F8F7FA"/>
<path d="M104.553 48.2283C110.163 48.2283 113.136 45.4219 114.676 41.1257L125.241 11.676L117.26 11.6414L111.578 31.1821H111.295L105.668 11.6414H97.7388L107.49 39.0123L107.048 40.1382C106.057 42.6327 104.163 42.7541 101.508 41.9573L99.8094 47.4661C100.889 47.9165 102.641 48.2283 104.553 48.2283Z" fill="#F8F7FA"/>
</svg>
