<?xml version="1.0" standalone="no"?>
<!DOCTYPE svg PUBLIC "-//W3C//DTD SVG 20010904//EN"
 "http://www.w3.org/TR/2001/REC-SVG-20010904/DTD/svg10.dtd">
<svg version="1.0" xmlns="http://www.w3.org/2000/svg"
 width="512.000000pt" height="512.000000pt" viewBox="0 0 512.000000 512.000000"
 preserveAspectRatio="xMidYMid meet">
<metadata>
Created by potrace 1.14, written by Peter Selinger 2001-2017
</metadata>
<g transform="translate(0.000000,512.000000) scale(0.100000,-0.100000)"
fill="#000000" stroke="none">
<path d="M3618 3896 c-1 -2 -64 -6 -138 -9 -74 -3 -144 -8 -155 -10 -11 -3
-42 -8 -68 -11 -27 -4 -59 -10 -70 -12 -12 -3 -33 -7 -47 -9 -119 -19 -357
-106 -477 -174 l-68 -39 -3 83 -3 83 -289 -1 c-203 0 -290 -3 -291 -11 -1 -6
-2 -423 -3 -926 -2 -503 -6 -937 -10 -965 -13 -93 -37 -147 -90 -203 -72 -77
-202 -132 -365 -156 -86 -12 -307 -14 -368 -2 -18 3 -48 8 -65 11 -110 18
-234 81 -294 148 -49 55 -94 157 -109 247 -3 19 -8 44 -10 55 -2 11 -4 24 -4
28 -1 5 -9 6 -18 3 -10 -3 -67 -8 -128 -11 -60 -4 -126 -9 -145 -11 -38 -5
-133 -11 -193 -13 l-38 -1 2 -67 c7 -200 99 -373 254 -480 41 -28 89 -57 95
-58 3 -1 20 -9 39 -19 81 -43 270 -96 431 -121 149 -22 521 -23 705 -1 85 10
255 46 295 63 8 3 18 6 22 5 14 -3 117 37 194 76 88 44 156 92 215 153 27 28
40 35 46 26 12 -18 177 -140 193 -142 3 -1 37 -17 75 -37 113 -58 325 -122
445 -134 25 -3 51 -7 59 -10 24 -8 212 -18 341 -18 115 0 211 6 315 20 59 7
214 44 252 60 18 8 33 11 33 8 0 -4 6 -1 13 5 8 6 17 8 20 4 4 -3 7 -1 7 6 0
7 4 10 8 7 14 -8 218 101 296 158 77 57 173 148 216 204 14 18 33 43 43 54 9
12 17 27 17 35 0 7 4 13 8 13 7 0 55 75 57 90 1 3 16 37 34 75 37 78 45 129
21 130 -12 1 -112 16 -130 20 -3 1 -18 4 -35 8 -16 4 -41 9 -55 12 -14 3 -60
12 -103 21 -89 19 -89 19 -108 -51 -10 -38 -55 -138 -72 -160 -4 -5 -20 -30
-36 -54 -44 -67 -133 -154 -213 -207 -124 -81 -313 -146 -462 -158 -31 -3 -61
-8 -68 -12 -7 -4 -8 -3 -4 4 4 8 2 10 -7 6 -27 -10 -122 -11 -134 -1 -9 6 -13
6 -13 -2 0 -7 -4 -10 -8 -7 -5 3 -40 8 -78 11 -101 10 -212 38 -350 89 -46 17
-104 47 -146 77 -14 11 -31 19 -37 19 -6 0 -11 5 -11 10 0 6 -5 10 -10 10 -15
0 -135 124 -173 179 -17 25 -42 68 -54 94 -23 49 -23 50 -23 558 l0 509 34 68
c31 60 50 86 129 172 12 14 47 44 77 67 30 24 61 48 68 53 6 6 12 8 12 4 0 -3
7 -1 15 6 18 15 153 81 175 85 8 2 17 4 20 5 3 1 8 2 13 1 4 0 7 4 7 10 0 5 5
7 10 4 6 -4 18 -1 27 7 9 7 18 11 20 9 3 -3 69 6 113 16 103 22 397 25 505 4
294 -55 493 -198 607 -436 37 -79 43 -85 72 -79 12 2 71 13 131 25 115 22 134
26 175 34 14 3 39 8 57 11 l31 6 -13 38 c-39 111 -136 251 -250 363 -48 47
-217 167 -235 167 -5 0 -10 4 -12 8 -4 10 -229 102 -250 102 -8 0 -18 3 -22 7
-3 4 -14 8 -24 9 -22 4 -61 12 -89 18 -11 2 -43 8 -70 12 -26 3 -57 8 -68 11
-11 2 -63 6 -115 9 -52 3 -100 7 -107 9 -6 2 -13 2 -15 1z"/>
<path d="M3064 3251 c-10 -2 -46 -31 -79 -66 l-60 -62 2 -177 c0 -98 3 -179 5
-182 3 -2 31 -4 64 -4 32 0 70 0 84 -1 26 -1 40 -1 75 0 11 1 47 1 80 1 33 0
65 1 70 1 6 0 35 0 65 -1 81 0 93 2 115 16 11 8 16 14 13 14 -4 0 14 20 40 44
l47 44 0 179 c-1 173 -7 221 -26 192 -5 -8 -9 -9 -9 -4 0 9 -439 15 -486 6z"/>
<path d="M1172 2799 c-9 -4 -41 -32 -71 -63 l-53 -57 0 -172 c0 -95 1 -178 1
-184 1 -10 61 -13 265 -13 l264 0 55 53 c29 28 58 61 64 72 7 15 11 333 4 365
-2 8 -509 6 -529 -1z"/>
<path d="M3895 2760 c-16 -4 -56 -33 -89 -64 l-59 -57 -1 -184 c-1 -116 3
-186 9 -188 5 -2 126 -3 268 -2 l258 1 61 61 60 61 2 87 c0 48 -2 89 -7 92 -4
2 -4 9 0 16 11 18 10 127 -2 127 -7 0 -7 3 0 8 6 4 11 14 10 22 0 12 -16 15
-70 17 -38 1 -84 4 -102 6 -17 2 -29 -1 -27 -5 3 -5 -7 -6 -22 -2 -16 4 -33 7
-39 6 -44 -6 -118 -6 -127 -1 -6 4 -23 3 -38 -1 -15 -4 -33 -4 -41 0 -8 4 -27
4 -44 0z"/>
<path d="M2991 2249 c-34 -33 -61 -66 -62 -72 -1 -18 -1 -319 0 -342 1 -19 8
-20 254 -20 139 1 258 5 266 9 10 7 12 5 6 -5 -4 -8 23 16 61 54 l69 67 -1
178 c-1 97 -2 180 -3 185 -1 4 -120 7 -265 7 l-264 0 -61 -61z"/>
</g>
</svg>
