<svg width="135" height="104" viewBox="0 0 135 104" fill="none" xmlns="http://www.w3.org/2000/svg">
<g opacity="0.15">
<mask id="mask0_218_6682" style="mask-type:luminance" maskUnits="userSpaceOnUse" x="0" y="0" width="135" height="104">
<path d="M0 0.00976562H135V103.41H0V0.00976562Z" fill="white"/>
</mask>
<g mask="url(#mask0_218_6682)">
<path fill-rule="evenodd" clip-rule="evenodd" d="M91.4064 6.08203C83.95 6.08203 77.1149 7.8654 70.9012 11.4322C64.7004 14.9855 59.9152 20.1948 56.5457 27.0601C53.1891 33.9121 51.5107 41.944 51.5107 51.1558C51.5107 59.6034 52.9969 67.5079 55.9692 74.8693C58.9543 82.2308 63.2975 87.8558 68.9987 91.7443C74.7127 95.6195 82.1243 97.5571 91.2334 97.5571C100.035 97.5571 107.479 95.0362 113.564 89.9945C119.663 84.9393 123.884 77.6047 126.229 67.9906L115.044 65.034C113.507 72.4759 110.566 78.0874 106.223 81.8687C101.88 85.65 96.5759 87.5407 90.311 87.5407C85.1607 87.5407 80.3755 86.1529 75.9555 83.3772C71.5354 80.6016 68.2748 76.4113 66.1737 70.8064C64.0854 65.1882 63.0413 58.6178 63.0413 51.0955C63.0413 45.2626 63.9253 39.6041 65.6933 34.1199C67.4613 28.6223 70.5233 24.2443 74.8793 20.9859C79.2481 17.7276 84.6802 16.0984 91.1758 16.0984C96.8257 16.0984 101.515 17.5667 105.243 20.5032C108.971 23.4398 111.815 28.1262 113.776 34.5624L124.787 31.8471C122.52 23.6811 118.503 17.3454 112.738 12.8401C106.973 8.33472 99.8621 6.08203 91.4064 6.08203Z" fill="#231F20"/>
<path fill-rule="evenodd" clip-rule="evenodd" d="M50.6849 9.33691V69.0793C50.6849 74.048 50.1701 77.6694 49.1405 79.9434C48.1108 82.2043 46.2317 83.9985 43.5032 85.3261C40.7747 86.6406 37.5313 87.2978 33.7732 87.2978C28.6765 87.2978 24.6867 86.0754 21.8037 83.6305C18.9207 81.1856 17.299 76.6507 16.9387 70.0258L3.42471 71.4454C3.21878 80.0814 5.74996 86.588 11.0183 90.9652C16.3037 95.3423 23.9144 97.5309 33.8504 97.5309C40.543 97.5309 46.369 96.4859 51.3284 94.3959C56.305 92.3059 59.9345 89.2695 62.2168 85.2867C64.5163 81.3039 65.6661 75.6845 65.6661 68.4287V9.33692L50.6849 9.33691Z" fill="#231F20"/>
<path fill-rule="evenodd" clip-rule="evenodd" d="M74.3789 32.2437H88.0796V44.9572H74.3789V32.2437Z" fill="#E06666"/>
<path fill-rule="evenodd" clip-rule="evenodd" d="M88.0791 32.2432L91.2408 28.0054V40.7189L88.0791 44.9568V32.2432Z" fill="#B35151"/>
<path fill-rule="evenodd" clip-rule="evenodd" d="M74.3789 32.2432L77.5406 28.0054H91.2413L88.0796 32.2432H74.3789Z" fill="#E68484"/>
<path fill-rule="evenodd" clip-rule="evenodd" d="M74.3789 64.519H88.0796V77.2326H74.3789V64.519Z" fill="#3C78D8"/>
<path fill-rule="evenodd" clip-rule="evenodd" d="M88.0801 64.5191L91.2418 60.2812V72.9948L88.0801 77.2326V64.5191Z" fill="#2F5FAC"/>
<path fill-rule="evenodd" clip-rule="evenodd" d="M74.3789 64.5191L77.5406 60.2812H91.2413L88.0796 64.5191H74.3789Z" fill="#6393DF"/>
<path fill-rule="evenodd" clip-rule="evenodd" d="M95.3965 49.1948H109.097V61.9084H95.3965V49.1948Z" fill="#93C47D"/>
<path fill-rule="evenodd" clip-rule="evenodd" d="M109.097 49.1949L112.258 44.957V57.6706L109.097 61.9084V49.1949Z" fill="#759C63"/>
<path fill-rule="evenodd" clip-rule="evenodd" d="M95.3965 49.1949L98.5582 44.957H112.259L109.097 49.1949H95.3965Z" fill="#A8CF97"/>
<path fill-rule="evenodd" clip-rule="evenodd" d="M26.0215 47.5674H39.7222V60.2809H26.0215V47.5674Z" fill="#F1C232"/>
<path fill-rule="evenodd" clip-rule="evenodd" d="M39.7227 47.5669L42.8844 43.3291V56.0426L39.7227 60.2805V47.5669Z" fill="#C09B27"/>
<path fill-rule="evenodd" clip-rule="evenodd" d="M26.0215 47.5669L29.1832 43.3291H42.8839L39.7222 47.5669H26.0215Z" fill="#F3CE5B"/>
</g>
</g>
</svg>
