<svg width="52" height="52" viewBox="0 0 52 52" fill="none" xmlns="http://www.w3.org/2000/svg">
<g clip-path="url(#clip0_36_1011)">
<path d="M41.1667 6.50008H32.11C31.2 3.98675 28.8167 2.16675 26 2.16675C23.1833 2.16675 20.8 3.98675 19.89 6.50008H10.8333C8.45 6.50008 6.5 8.45008 6.5 10.8334V41.1667C6.5 43.5501 8.45 45.5001 10.8333 45.5001H41.1667C43.55 45.5001 45.5 43.5501 45.5 41.1667V10.8334C45.5 8.45008 43.55 6.50008 41.1667 6.50008ZM26 6.50008C27.1917 6.50008 28.1667 7.47508 28.1667 8.66675C28.1667 9.85841 27.1917 10.8334 26 10.8334C24.8083 10.8334 23.8333 9.85841 23.8333 8.66675C23.8333 7.47508 24.8083 6.50008 26 6.50008ZM21.6667 36.8334L13 28.1667L16.055 25.1117L21.6667 30.7017L35.945 16.4234L39 19.5001L21.6667 36.8334Z" fill="white"/>
</g>
<defs>
<clipPath id="clip0_36_1011">
<rect width="52" height="52" fill="white"/>
</clipPath>
</defs>
</svg>
