<svg width="32" height="32" viewBox="0 0 32 32" fill="none" xmlns="http://www.w3.org/2000/svg">
<path d="M28 13.332C28 22.6654 16 30.6654 16 30.6654C16 30.6654 4 22.6654 4 13.332C4 10.1494 5.26428 7.09719 7.51472 4.84675C9.76516 2.59631 12.8174 1.33203 16 1.33203C19.1826 1.33203 22.2348 2.59631 24.4853 4.84675C26.7357 7.09719 28 10.1494 28 13.332Z" stroke="#FFD65A" stroke-width="2" stroke-linecap="round" stroke-linejoin="round"/>
<path d="M16 17.332C18.2091 17.332 20 15.5412 20 13.332C20 11.1229 18.2091 9.33203 16 9.33203C13.7909 9.33203 12 11.1229 12 13.332C12 15.5412 13.7909 17.332 16 17.332Z" stroke="#FFD65A" stroke-width="2" stroke-linecap="round" stroke-linejoin="round"/>
</svg>
